<svg width="1080" height="1080" viewBox="0 0 1080 1080" fill="none" xmlns="http://www.w3.org/2000/svg">
<g clip-path="url(#clip0_1331_384)">
<rect width="1080" height="1080" fill="#E7EDFD"/>
<path d="M360.008 150L359.959 127.264L348.689 146.08H345.847L334.577 127.558V150H328.55V115.7H333.793L347.366 138.387L360.792 115.7H365.986L366.084 150H360.008ZM386.169 150.343C383.523 150.343 381.138 149.771 379.015 148.628C376.891 147.485 375.225 145.9 374.017 143.875C372.841 141.817 372.253 139.498 372.253 136.917C372.253 134.336 372.841 132.033 374.017 130.008C375.225 127.983 376.891 126.398 379.015 125.255C381.138 124.112 383.523 123.54 386.169 123.54C388.847 123.54 391.248 124.112 393.372 125.255C395.495 126.398 397.145 127.983 398.321 130.008C399.529 132.033 400.134 134.336 400.134 136.917C400.134 139.498 399.529 141.817 398.321 143.875C397.145 145.9 395.495 147.485 393.372 148.628C391.248 149.771 388.847 150.343 386.169 150.343ZM386.169 145.1C388.423 145.1 390.285 144.349 391.755 142.846C393.225 141.343 393.96 139.367 393.96 136.917C393.96 134.467 393.225 132.491 391.755 130.988C390.285 129.485 388.423 128.734 386.169 128.734C383.915 128.734 382.053 129.485 380.583 130.988C379.145 132.491 378.427 134.467 378.427 136.917C378.427 139.367 379.145 141.343 380.583 142.846C382.053 144.349 383.915 145.1 386.169 145.1ZM420.198 123.54C422.746 123.54 425.017 124.095 427.009 125.206C429.035 126.317 430.619 127.885 431.762 129.91C432.906 131.935 433.477 134.271 433.477 136.917C433.477 139.563 432.906 141.915 431.762 143.973C430.619 145.998 429.035 147.566 427.009 148.677C425.017 149.788 422.746 150.343 420.198 150.343C416.67 150.343 413.877 149.167 411.819 146.815V159.506H405.694V123.834H411.525V127.264C412.538 126.023 413.779 125.092 415.249 124.471C416.752 123.85 418.402 123.54 420.198 123.54ZM419.512 145.1C421.766 145.1 423.612 144.349 425.049 142.846C426.519 141.343 427.254 139.367 427.254 136.917C427.254 134.467 426.519 132.491 425.049 130.988C423.612 129.485 421.766 128.734 419.512 128.734C418.042 128.734 416.719 129.077 415.543 129.763C414.367 130.416 413.436 131.364 412.75 132.605C412.064 133.846 411.721 135.284 411.721 136.917C411.721 138.55 412.064 139.988 412.75 141.229C413.436 142.47 414.367 143.434 415.543 144.12C416.719 144.773 418.042 145.1 419.512 145.1ZM463.583 137.064C463.583 137.489 463.551 138.093 463.485 138.877H442.954C443.314 140.804 444.245 142.34 445.747 143.483C447.283 144.594 449.177 145.149 451.431 145.149C454.306 145.149 456.674 144.202 458.536 142.307L461.819 146.08C460.643 147.485 459.157 148.546 457.36 149.265C455.564 149.984 453.538 150.343 451.284 150.343C448.41 150.343 445.878 149.771 443.689 148.628C441.501 147.485 439.802 145.9 438.593 143.875C437.417 141.817 436.829 139.498 436.829 136.917C436.829 134.369 437.401 132.082 438.544 130.057C439.72 127.999 441.337 126.398 443.395 125.255C445.453 124.112 447.773 123.54 450.353 123.54C452.901 123.54 455.172 124.112 457.164 125.255C459.19 126.366 460.758 127.95 461.868 130.008C463.012 132.033 463.583 134.385 463.583 137.064ZM450.353 128.44C448.393 128.44 446.727 129.028 445.355 130.204C444.016 131.347 443.199 132.883 442.905 134.81H457.752C457.491 132.915 456.691 131.38 455.351 130.204C454.012 129.028 452.346 128.44 450.353 128.44ZM481.423 133.83H494.898V138.926H481.423V133.83ZM539.348 123.834V150H533.272V129.028H520.385V150H514.26V123.834H539.348ZM558.784 150.343C556.138 150.343 553.754 149.771 551.63 148.628C549.507 147.485 547.841 145.9 546.632 143.875C545.456 141.817 544.868 139.498 544.868 136.917C544.868 134.336 545.456 132.033 546.632 130.008C547.841 127.983 549.507 126.398 551.63 125.255C553.754 124.112 556.138 123.54 558.784 123.54C561.463 123.54 563.864 124.112 565.987 125.255C568.111 126.398 569.76 127.983 570.936 130.008C572.145 132.033 572.749 134.336 572.749 136.917C572.749 139.498 572.145 141.817 570.936 143.875C569.76 145.9 568.111 147.485 565.987 148.628C563.864 149.771 561.463 150.343 558.784 150.343ZM558.784 145.1C561.038 145.1 562.9 144.349 564.37 142.846C565.84 141.343 566.575 139.367 566.575 136.917C566.575 134.467 565.84 132.491 564.37 130.988C562.9 129.485 561.038 128.734 558.784 128.734C556.53 128.734 554.668 129.485 553.198 130.988C551.761 132.491 551.042 134.467 551.042 136.917C551.042 139.367 551.761 141.343 553.198 142.846C554.668 144.349 556.53 145.1 558.784 145.1ZM602.24 139.514H597.487V150H591.362V123.834H597.487V134.418H602.387L610.129 123.834H616.695L607.189 136.427L617.332 150H610.129L602.24 139.514ZM631.963 150.343C629.317 150.343 626.932 149.771 624.809 148.628C622.686 147.485 621.02 145.9 619.811 143.875C618.635 141.817 618.047 139.498 618.047 136.917C618.047 134.336 618.635 132.033 619.811 130.008C621.02 127.983 622.686 126.398 624.809 125.255C626.932 124.112 629.317 123.54 631.963 123.54C634.642 123.54 637.043 124.112 639.166 125.255C641.289 126.398 642.939 127.983 644.115 130.008C645.324 132.033 645.928 134.336 645.928 136.917C645.928 139.498 645.324 141.817 644.115 143.875C642.939 145.9 641.289 147.485 639.166 148.628C637.043 149.771 634.642 150.343 631.963 150.343ZM631.963 145.1C634.217 145.1 636.079 144.349 637.549 142.846C639.019 141.343 639.754 139.367 639.754 136.917C639.754 134.467 639.019 132.491 637.549 130.988C636.079 129.485 634.217 128.734 631.963 128.734C629.709 128.734 627.847 129.485 626.377 130.988C624.94 132.491 624.221 134.467 624.221 136.917C624.221 139.367 624.94 141.343 626.377 142.846C627.847 144.349 629.709 145.1 631.963 145.1ZM674.918 123.834V150H668.793V129.028H658.993L658.748 134.222C658.584 137.685 658.258 140.592 657.768 142.944C657.31 145.263 656.51 147.109 655.367 148.481C654.256 149.82 652.721 150.49 650.761 150.49C649.846 150.49 648.719 150.31 647.38 149.951L647.674 144.806C648.131 144.904 648.523 144.953 648.85 144.953C650.091 144.953 651.022 144.463 651.643 143.483C652.263 142.47 652.655 141.278 652.819 139.906C653.015 138.501 653.178 136.509 653.309 133.928L653.75 123.834H674.918ZM682.676 123.834H688.801V150H682.676V123.834ZM685.763 119.522C684.653 119.522 683.722 119.179 682.97 118.493C682.219 117.774 681.843 116.892 681.843 115.847C681.843 114.802 682.219 113.936 682.97 113.25C683.722 112.531 684.653 112.172 685.763 112.172C686.874 112.172 687.805 112.515 688.556 113.201C689.308 113.854 689.683 114.687 689.683 115.7C689.683 116.778 689.308 117.693 688.556 118.444C687.838 119.163 686.907 119.522 685.763 119.522ZM696.59 123.834H702.715V134.467H715.896V123.834H722.021V150H715.896V139.661H702.715V150H696.59V123.834ZM741.401 150.343C738.755 150.343 736.371 149.771 734.247 148.628C732.124 147.485 730.458 145.9 729.249 143.875C728.073 141.817 727.485 139.498 727.485 136.917C727.485 134.336 728.073 132.033 729.249 130.008C730.458 127.983 732.124 126.398 734.247 125.255C736.371 124.112 738.755 123.54 741.401 123.54C744.08 123.54 746.481 124.112 748.604 125.255C750.728 126.398 752.377 127.983 753.553 130.008C754.762 132.033 755.366 134.336 755.366 136.917C755.366 139.498 754.762 141.817 753.553 143.875C752.377 145.9 750.728 147.485 748.604 148.628C746.481 149.771 744.08 150.343 741.401 150.343ZM741.401 145.1C743.655 145.1 745.517 144.349 746.987 142.846C748.457 141.343 749.192 139.367 749.192 136.917C749.192 134.467 748.457 132.491 746.987 130.988C745.517 129.485 743.655 128.734 741.401 128.734C739.147 128.734 737.285 129.485 735.815 130.988C734.378 132.491 733.659 134.467 733.659 136.917C733.659 139.367 734.378 141.343 735.815 142.846C737.285 144.349 739.147 145.1 741.401 145.1ZM259.99 210.53H251.41V230H242.962V183.8H251.41V203.138H260.254L273.52 183.8H282.628L266.854 206.174L283.222 230H273.52L259.99 210.53ZM302.719 230.462C299.155 230.462 295.943 229.692 293.083 228.152C290.223 226.612 287.979 224.478 286.351 221.75C284.767 218.978 283.975 215.854 283.975 212.378C283.975 208.902 284.767 205.8 286.351 203.072C287.979 200.344 290.223 198.21 293.083 196.67C295.943 195.13 299.155 194.36 302.719 194.36C306.327 194.36 309.561 195.13 312.421 196.67C315.281 198.21 317.503 200.344 319.087 203.072C320.715 205.8 321.529 208.902 321.529 212.378C321.529 215.854 320.715 218.978 319.087 221.75C317.503 224.478 315.281 226.612 312.421 228.152C309.561 229.692 306.327 230.462 302.719 230.462ZM302.719 223.4C305.755 223.4 308.263 222.388 310.243 220.364C312.223 218.34 313.213 215.678 313.213 212.378C313.213 209.078 312.223 206.416 310.243 204.392C308.263 202.368 305.755 201.356 302.719 201.356C299.683 201.356 297.175 202.368 295.195 204.392C293.259 206.416 292.291 209.078 292.291 212.378C292.291 215.678 293.259 218.34 295.195 220.364C297.175 222.388 299.683 223.4 302.719 223.4ZM360.576 194.756V230H352.326V201.752H339.126L338.796 208.748C338.576 213.412 338.136 217.328 337.476 220.496C336.86 223.62 335.782 226.106 334.242 227.954C332.746 229.758 330.678 230.66 328.038 230.66C326.806 230.66 325.288 230.418 323.484 229.934L323.88 223.004C324.496 223.136 325.024 223.202 325.464 223.202C327.136 223.202 328.39 222.542 329.226 221.222C330.062 219.858 330.59 218.252 330.81 216.404C331.074 214.512 331.294 211.828 331.47 208.352L332.064 194.756H360.576ZM371.027 194.756H379.277V217.988L398.747 194.756H406.271V230H398.021V206.768L378.617 230H371.027V194.756ZM450.657 230.528C446.961 230.528 443.639 229.758 440.691 228.218C437.743 226.634 435.433 224.478 433.761 221.75C432.089 218.978 431.253 215.854 431.253 212.378C431.253 208.902 432.089 205.778 433.761 203.006C435.433 200.234 437.743 198.078 440.691 196.538C443.639 194.954 446.961 194.162 450.657 194.162C453.869 194.162 456.773 194.69 459.369 195.746C461.965 196.802 464.165 198.32 465.969 200.3L461.217 204.92C458.445 202.148 455.035 200.762 450.987 200.762C447.995 200.762 445.421 201.576 443.265 203.204C441.153 204.788 439.789 206.922 439.173 209.606H455.475V215.546H439.239C439.899 218.142 441.285 220.21 443.397 221.75C445.509 223.246 448.039 223.994 450.987 223.994C455.035 223.994 458.445 222.586 461.217 219.77L465.969 224.39C464.209 226.414 462.009 227.954 459.369 229.01C456.773 230.022 453.869 230.528 450.657 230.528ZM533.114 230L533.048 199.376L517.868 224.72H514.04L498.86 199.772V230H490.742V183.8H497.804L516.086 214.358L534.17 183.8H541.166L541.298 230H533.114ZM585.643 212.576C585.643 213.148 585.599 213.962 585.511 215.018H557.857C558.341 217.614 559.595 219.682 561.619 221.222C563.687 222.718 566.239 223.466 569.275 223.466C573.147 223.466 576.337 222.19 578.845 219.638L583.267 224.72C581.683 226.612 579.681 228.042 577.261 229.01C574.841 229.978 572.113 230.462 569.077 230.462C565.205 230.462 561.795 229.692 558.847 228.152C555.899 226.612 553.611 224.478 551.983 221.75C550.399 218.978 549.607 215.854 549.607 212.378C549.607 208.946 550.377 205.866 551.917 203.138C553.501 200.366 555.679 198.21 558.451 196.67C561.223 195.13 564.347 194.36 567.823 194.36C571.255 194.36 574.313 195.13 576.997 196.67C579.725 198.166 581.837 200.3 583.333 203.072C584.873 205.8 585.643 208.968 585.643 212.576ZM567.823 200.96C565.183 200.96 562.939 201.752 561.091 203.336C559.287 204.876 558.187 206.944 557.791 209.54H577.789C577.437 206.988 576.359 204.92 574.555 203.336C572.751 201.752 570.507 200.96 567.823 200.96ZM620.635 201.752H608.293V230H600.043V201.752H587.635V194.756H620.635V201.752ZM639.093 194.36C644.285 194.36 648.245 195.614 650.973 198.122C653.745 200.586 655.131 204.326 655.131 209.342V230H647.343V225.71C646.331 227.25 644.879 228.438 642.987 229.274C641.139 230.066 638.895 230.462 636.255 230.462C633.615 230.462 631.305 230.022 629.325 229.142C627.345 228.218 625.805 226.964 624.705 225.38C623.649 223.752 623.121 221.926 623.121 219.902C623.121 216.734 624.287 214.204 626.619 212.312C628.995 210.376 632.713 209.408 637.773 209.408H646.881V208.88C646.881 206.416 646.133 204.524 644.637 203.204C643.185 201.884 641.007 201.224 638.103 201.224C636.123 201.224 634.165 201.532 632.229 202.148C630.337 202.764 628.731 203.622 627.411 204.722L624.177 198.716C626.025 197.308 628.247 196.23 630.843 195.482C633.439 194.734 636.189 194.36 639.093 194.36ZM637.971 224.456C640.039 224.456 641.865 223.994 643.449 223.07C645.077 222.102 646.221 220.738 646.881 218.978V214.886H638.367C633.615 214.886 631.239 216.448 631.239 219.572C631.239 221.068 631.833 222.256 633.021 223.136C634.209 224.016 635.859 224.456 637.971 224.456ZM698.472 194.756V230H690.288V201.752H672.93V230H664.68V194.756H698.472ZM724.652 230.462C721.088 230.462 717.876 229.692 715.016 228.152C712.156 226.612 709.912 224.478 708.284 221.75C706.7 218.978 705.908 215.854 705.908 212.378C705.908 208.902 706.7 205.8 708.284 203.072C709.912 200.344 712.156 198.21 715.016 196.67C717.876 195.13 721.088 194.36 724.652 194.36C728.26 194.36 731.494 195.13 734.354 196.67C737.214 198.21 739.436 200.344 741.02 203.072C742.648 205.8 743.462 208.902 743.462 212.378C743.462 215.854 742.648 218.978 741.02 221.75C739.436 224.478 737.214 226.612 734.354 228.152C731.494 229.692 728.26 230.462 724.652 230.462ZM724.652 223.4C727.688 223.4 730.196 222.388 732.176 220.364C734.156 218.34 735.146 215.678 735.146 212.378C735.146 209.078 734.156 206.416 732.176 204.392C730.196 202.368 727.688 201.356 724.652 201.356C721.616 201.356 719.108 202.368 717.128 204.392C715.192 206.416 714.224 209.078 714.224 212.378C714.224 215.678 715.192 218.34 717.128 220.364C719.108 222.388 721.616 223.4 724.652 223.4ZM782.509 194.756V230H774.259V201.752H761.059L760.729 208.748C760.509 213.412 760.069 217.328 759.409 220.496C758.793 223.62 757.715 226.106 756.175 227.954C754.679 229.758 752.611 230.66 749.971 230.66C748.739 230.66 747.221 230.418 745.417 229.934L745.813 223.004C746.429 223.136 746.957 223.202 747.397 223.202C749.069 223.202 750.323 222.542 751.159 221.222C751.995 219.858 752.523 218.252 752.743 216.404C753.007 214.512 753.227 211.828 753.403 208.352L753.997 194.756H782.509ZM792.96 194.756H801.21V230H792.96V194.756ZM797.118 188.948C795.622 188.948 794.368 188.486 793.356 187.562C792.344 186.594 791.838 185.406 791.838 183.998C791.838 182.59 792.344 181.424 793.356 180.5C794.368 179.532 795.622 179.048 797.118 179.048C798.614 179.048 799.868 179.51 800.88 180.434C801.892 181.314 802.398 182.436 802.398 183.8C802.398 185.252 801.892 186.484 800.88 187.496C799.912 188.464 798.658 188.948 797.118 188.948ZM827.738 230.462C824.086 230.462 820.808 229.692 817.904 228.152C815 226.612 812.734 224.478 811.106 221.75C809.478 218.978 808.664 215.854 808.664 212.378C808.664 208.902 809.478 205.8 811.106 203.072C812.734 200.344 814.978 198.21 817.838 196.67C820.742 195.13 824.042 194.36 827.738 194.36C831.214 194.36 834.25 195.064 836.846 196.472C839.486 197.88 841.466 199.904 842.786 202.544L836.45 206.24C835.438 204.612 834.162 203.402 832.622 202.61C831.126 201.774 829.476 201.356 827.672 201.356C824.592 201.356 822.04 202.368 820.016 204.392C817.992 206.372 816.98 209.034 816.98 212.378C816.98 215.722 817.97 218.406 819.95 220.43C821.974 222.41 824.548 223.4 827.672 223.4C829.476 223.4 831.126 223.004 832.622 222.212C834.162 221.376 835.438 220.144 836.45 218.516L842.786 222.212C841.422 224.852 839.42 226.898 836.78 228.35C834.184 229.758 831.17 230.462 827.738 230.462Z" fill="#263238"/>
<rect x="358" y="298" width="364" height="66" rx="33" fill="#ED1C24"/>
<path d="M391.044 341.516L392.556 338.096C393.636 338.84 394.812 339.416 396.084 339.824C397.38 340.208 398.664 340.412 399.936 340.436C401.208 340.46 402.36 340.316 403.392 340.004C404.448 339.692 405.288 339.224 405.912 338.6C406.536 337.976 406.848 337.196 406.848 336.26C406.848 335.132 406.38 334.292 405.444 333.74C404.532 333.164 403.284 332.876 401.7 332.876H395.832V329.204H401.34C402.756 329.204 403.848 328.916 404.616 328.34C405.408 327.764 405.804 326.984 405.804 326C405.804 325.184 405.54 324.512 405.012 323.984C404.508 323.456 403.812 323.06 402.924 322.796C402.06 322.532 401.076 322.412 399.972 322.436C398.892 322.436 397.764 322.604 396.588 322.94C395.412 323.252 394.296 323.72 393.24 324.344L391.764 320.564C393.348 319.724 395.004 319.136 396.732 318.8C398.484 318.464 400.176 318.368 401.808 318.512C403.44 318.656 404.904 319.028 406.2 319.628C407.52 320.228 408.576 321.02 409.368 322.004C410.16 322.964 410.556 324.104 410.556 325.424C410.556 326.624 410.232 327.692 409.584 328.628C408.96 329.54 408.096 330.248 406.992 330.752C405.888 331.256 404.604 331.508 403.14 331.508L403.32 330.356C404.976 330.356 406.416 330.644 407.64 331.22C408.888 331.772 409.848 332.54 410.52 333.524C411.216 334.508 411.564 335.648 411.564 336.944C411.564 338.168 411.252 339.26 410.628 340.22C410.004 341.156 409.152 341.948 408.072 342.596C406.992 343.22 405.756 343.688 404.364 344C402.972 344.288 401.508 344.396 399.972 344.324C398.436 344.252 396.9 343.988 395.364 343.532C393.852 343.076 392.412 342.404 391.044 341.516ZM426.699 344.252C425.139 344.252 423.711 343.892 422.415 343.172C421.143 342.452 420.123 341.372 419.355 339.932C418.611 338.468 418.239 336.62 418.239 334.388C418.239 332.132 418.599 330.284 419.319 328.844C420.063 327.404 421.071 326.336 422.343 325.64C423.615 324.92 425.067 324.56 426.699 324.56C428.595 324.56 430.263 324.968 431.703 325.784C433.167 326.6 434.319 327.74 435.159 329.204C436.023 330.668 436.455 332.396 436.455 334.388C436.455 336.38 436.023 338.12 435.159 339.608C434.319 341.072 433.167 342.212 431.703 343.028C430.263 343.844 428.595 344.252 426.699 344.252ZM416.043 350.984V324.776H420.327V329.312L420.183 334.424L420.543 339.536V350.984H416.043ZM426.195 340.4C427.275 340.4 428.235 340.16 429.075 339.68C429.939 339.2 430.623 338.504 431.127 337.592C431.631 336.68 431.883 335.612 431.883 334.388C431.883 333.14 431.631 332.072 431.127 331.184C430.623 330.272 429.939 329.576 429.075 329.096C428.235 328.616 427.275 328.376 426.195 328.376C425.115 328.376 424.143 328.616 423.279 329.096C422.415 329.576 421.731 330.272 421.227 331.184C420.723 332.072 420.471 333.14 420.471 334.388C420.471 335.612 420.723 336.68 421.227 337.592C421.731 338.504 422.415 339.2 423.279 339.68C424.143 340.16 425.115 340.4 426.195 340.4ZM441.774 351.236C440.838 351.236 439.902 351.08 438.966 350.768C438.03 350.456 437.25 350.024 436.626 349.472L438.426 346.16C438.882 346.568 439.398 346.892 439.974 347.132C440.55 347.372 441.138 347.492 441.738 347.492C442.554 347.492 443.214 347.288 443.718 346.88C444.222 346.472 444.69 345.788 445.122 344.828L446.238 342.308L446.598 341.768L453.87 324.776H458.19L449.19 345.548C448.59 346.988 447.918 348.128 447.174 348.968C446.454 349.808 445.638 350.396 444.726 350.732C443.838 351.068 442.854 351.236 441.774 351.236ZM445.734 344.684L437.058 324.776H441.738L448.794 341.372L445.734 344.684ZM473.088 336.404C472.176 336.836 471.204 337.196 470.172 337.484C469.164 337.748 468.096 337.88 466.968 337.88C464.544 337.88 462.66 337.316 461.316 336.188C459.972 335.06 459.3 333.308 459.3 330.932V324.776H463.8V330.644C463.8 331.916 464.16 332.84 464.88 333.416C465.624 333.992 466.644 334.28 467.94 334.28C468.804 334.28 469.668 334.172 470.532 333.956C471.396 333.74 472.248 333.44 473.088 333.056V336.404ZM472.764 344V324.776H477.264V344H472.764ZM482.955 344V324.776H487.455V332.588H497.139V324.776H501.639V344H497.139V336.404H487.455V344H482.955ZM515.878 344.252C513.91 344.252 512.158 343.832 510.622 342.992C509.086 342.128 507.874 340.952 506.986 339.464C506.098 337.976 505.654 336.284 505.654 334.388C505.654 332.468 506.098 330.776 506.986 329.312C507.874 327.824 509.086 326.66 510.622 325.82C512.158 324.98 513.91 324.56 515.878 324.56C517.87 324.56 519.634 324.98 521.17 325.82C522.73 326.66 523.942 327.812 524.806 329.276C525.694 330.74 526.138 332.444 526.138 334.388C526.138 336.284 525.694 337.976 524.806 339.464C523.942 340.952 522.73 342.128 521.17 342.992C519.634 343.832 517.87 344.252 515.878 344.252ZM515.878 340.4C516.982 340.4 517.966 340.16 518.83 339.68C519.694 339.2 520.366 338.504 520.846 337.592C521.35 336.68 521.602 335.612 521.602 334.388C521.602 333.14 521.35 332.072 520.846 331.184C520.366 330.272 519.694 329.576 518.83 329.096C517.966 328.616 516.994 328.376 515.914 328.376C514.81 328.376 513.826 328.616 512.962 329.096C512.122 329.576 511.45 330.272 510.946 331.184C510.442 332.072 510.19 333.14 510.19 334.388C510.19 335.612 510.442 336.68 510.946 337.592C511.45 338.504 512.122 339.2 512.962 339.68C513.826 340.16 514.798 340.4 515.878 340.4ZM539.813 344V324.776H544.313V344H539.813ZM542.081 321.608C541.241 321.608 540.545 321.344 539.993 320.816C539.465 320.288 539.201 319.652 539.201 318.908C539.201 318.14 539.465 317.504 539.993 317C540.545 316.472 541.241 316.208 542.081 316.208C542.921 316.208 543.605 316.46 544.133 316.964C544.685 317.444 544.961 318.056 544.961 318.8C544.961 319.592 544.697 320.264 544.169 320.816C543.641 321.344 542.945 321.608 542.081 321.608ZM559.624 344V324.776H578.056V344H573.592V327.548L574.636 328.592H563.08L564.124 327.548V344H559.624ZM594.424 344.252C592.864 344.252 591.436 343.892 590.14 343.172C588.868 342.452 587.848 341.372 587.08 339.932C586.336 338.468 585.964 336.62 585.964 334.388C585.964 332.132 586.324 330.284 587.044 328.844C587.788 327.404 588.796 326.336 590.068 325.64C591.34 324.92 592.792 324.56 594.424 324.56C596.32 324.56 597.988 324.968 599.428 325.784C600.892 326.6 602.044 327.74 602.884 329.204C603.748 330.668 604.18 332.396 604.18 334.388C604.18 336.38 603.748 338.12 602.884 339.608C602.044 341.072 600.892 342.212 599.428 343.028C597.988 343.844 596.32 344.252 594.424 344.252ZM583.768 350.984V324.776H588.052V329.312L587.908 334.424L588.268 339.536V350.984H583.768ZM593.92 340.4C595 340.4 595.96 340.16 596.8 339.68C597.664 339.2 598.348 338.504 598.852 337.592C599.356 336.68 599.608 335.612 599.608 334.388C599.608 333.14 599.356 332.072 598.852 331.184C598.348 330.272 597.664 329.576 596.8 329.096C595.96 328.616 595 328.376 593.92 328.376C592.84 328.376 591.868 328.616 591.004 329.096C590.14 329.576 589.456 330.272 588.952 331.184C588.448 332.072 588.196 333.14 588.196 334.388C588.196 335.612 588.448 336.68 588.952 337.592C589.456 338.504 590.14 339.2 591.004 339.68C591.868 340.16 592.84 340.4 593.92 340.4ZM616.866 344.252C614.898 344.252 613.146 343.832 611.61 342.992C610.074 342.128 608.862 340.952 607.974 339.464C607.086 337.976 606.642 336.284 606.642 334.388C606.642 332.468 607.086 330.776 607.974 329.312C608.862 327.824 610.074 326.66 611.61 325.82C613.146 324.98 614.898 324.56 616.866 324.56C618.858 324.56 620.622 324.98 622.158 325.82C623.718 326.66 624.93 327.812 625.794 329.276C626.682 330.74 627.126 332.444 627.126 334.388C627.126 336.284 626.682 337.976 625.794 339.464C624.93 340.952 623.718 342.128 622.158 342.992C620.622 343.832 618.858 344.252 616.866 344.252ZM616.866 340.4C617.97 340.4 618.954 340.16 619.818 339.68C620.682 339.2 621.354 338.504 621.834 337.592C622.338 336.68 622.59 335.612 622.59 334.388C622.59 333.14 622.338 332.072 621.834 331.184C621.354 330.272 620.682 329.576 619.818 329.096C618.954 328.616 617.982 328.376 616.902 328.376C615.798 328.376 614.814 328.616 613.95 329.096C613.11 329.576 612.438 330.272 611.934 331.184C611.43 332.072 611.178 333.14 611.178 334.388C611.178 335.612 611.43 336.68 611.934 337.592C612.438 338.504 613.11 339.2 613.95 339.68C614.814 340.16 615.786 340.4 616.866 340.4ZM639.96 344.252C637.944 344.252 636.144 343.832 634.56 342.992C633 342.128 631.776 340.952 630.888 339.464C630 337.976 629.556 336.284 629.556 334.388C629.556 332.468 630 330.776 630.888 329.312C631.776 327.824 633 326.66 634.56 325.82C636.144 324.98 637.944 324.56 639.96 324.56C641.832 324.56 643.476 324.944 644.892 325.712C646.332 326.456 647.424 327.56 648.168 329.024L644.712 331.04C644.136 330.128 643.428 329.456 642.588 329.024C641.772 328.592 640.884 328.376 639.924 328.376C638.82 328.376 637.824 328.616 636.936 329.096C636.048 329.576 635.352 330.272 634.848 331.184C634.344 332.072 634.092 333.14 634.092 334.388C634.092 335.636 634.344 336.716 634.848 337.628C635.352 338.516 636.048 339.2 636.936 339.68C637.824 340.16 638.82 340.4 639.924 340.4C640.884 340.4 641.772 340.184 642.588 339.752C643.428 339.32 644.136 338.648 644.712 337.736L648.168 339.752C647.424 341.192 646.332 342.308 644.892 343.1C643.476 343.868 641.832 344.252 639.96 344.252ZM655.625 344V327.512L656.669 328.592H648.857V324.776H666.857V328.592H659.081L660.125 327.512V344H655.625ZM677.486 344.252C675.518 344.252 673.766 343.832 672.23 342.992C670.694 342.128 669.482 340.952 668.594 339.464C667.706 337.976 667.262 336.284 667.262 334.388C667.262 332.468 667.706 330.776 668.594 329.312C669.482 327.824 670.694 326.66 672.23 325.82C673.766 324.98 675.518 324.56 677.486 324.56C679.478 324.56 681.242 324.98 682.778 325.82C684.338 326.66 685.55 327.812 686.414 329.276C687.302 330.74 687.746 332.444 687.746 334.388C687.746 336.284 687.302 337.976 686.414 339.464C685.55 340.952 684.338 342.128 682.778 342.992C681.242 343.832 679.478 344.252 677.486 344.252ZM677.486 340.4C678.59 340.4 679.574 340.16 680.438 339.68C681.302 339.2 681.974 338.504 682.454 337.592C682.958 336.68 683.21 335.612 683.21 334.388C683.21 333.14 682.958 332.072 682.454 331.184C681.974 330.272 681.302 329.576 680.438 329.096C679.574 328.616 678.602 328.376 677.522 328.376C676.418 328.376 675.434 328.616 674.57 329.096C673.73 329.576 673.058 330.272 672.554 331.184C672.05 332.072 671.798 333.14 671.798 334.388C671.798 335.612 672.05 336.68 672.554 337.592C673.058 338.504 673.73 339.2 674.57 339.68C675.434 340.16 676.406 340.4 677.486 340.4Z" fill="white"/>
<path d="M-10.2392 1119.5C-22.0032 1107.56 -29.3583 839.947 -29.6543 824.853C-30.0443 805.002 -23.1543 793.912 -6.90129 779.431C8.43071 765.772 13.7167 772.865 34.2257 776.663C59.1437 781.276 85.1647 782.457 110.416 785.686C153.299 791.17 196.861 784.474 238.543 776.912C269.851 771.232 296.557 769.237 328.143 773.256C360.336 777.352 391.082 787.113 422.771 793.699C459.058 801.242 497.167 808.187 534.105 812.154C571.118 816.128 608.847 809.852 646.152 809.852C729.13 809.852 817.676 826.433 896.536 799.657C947.383 782.392 997.255 771.721 1050.67 763.255C1066.46 760.751 1082.5 757.971 1098.11 755.37C1113.89 752.741 1122.64 749.297 1127.61 763.288C1134.86 783.684 1128.62 809.098 1128.94 830.297C1129.29 853.193 1127.29 1119.54 1098.11 1126.6C1067.84 1133.93 1032.57 1130.56 1001.64 1129.76C945.851 1128.31 890.603 1122.97 834.646 1122.89C777.114 1122.81 719.522 1128.15 662.093 1130.59C603.401 1133.08 544.257 1132.36 485.451 1132C423.868 1131.62 362.495 1125.09 300.964 1125.16C251.366 1125.22 201.732 1125.82 152.252 1126.29C116.855 1126.63 81.9678 1129.7 46.5648 1129.7C27.3368 1129.7 2.80877 1132.75 -10.2392 1119.5Z" fill="#B5C0E0"/>
<path d="M1.62161 797.398C-7.32339 794.211 -15.1234 789.921 -19.1814 783.536C-41.2704 748.783 18.4626 736.367 49.4356 732.305C90.3556 726.94 129.961 734.145 170.635 737.158C214.601 740.415 260.125 735.554 303.313 729.574C361.039 721.581 420.321 715.745 479.065 715.18C578.47 714.223 677.469 729.476 776.419 719.308C808.769 715.983 842.683 713.87 875.281 716.568C908.753 719.339 944.151 721.441 976.839 727.547C1007.07 733.194 1039.47 724.879 1068.71 735.584C1089.34 743.137 1284.24 1028.25 1262.32 1043.07C1226.07 1067.56 1174.6 1068.34 1131.06 1080.79C1108.44 1087.25 1089.85 1098.7 1068.71 1107C1045.13 1116.26 964 927.5 904 905.5C849.5 885.517 730.016 838.603 686.5 837.288C643.783 835.998 601.263 830.509 559.194 824.61C508.31 817.475 457.13 813.507 406.505 805.55C363.23 798.749 322.572 791.65 278.146 791.005C198.664 789.851 112.166 825.08 34.2786 805.817C24.7276 803.457 12.3506 801.221 1.62161 797.398Z" fill="#FDD3AF"/>
<path d="M974.846 923.989C973.071 922.732 969.378 925.106 967.9 926.256C968.192 928.799 972.216 930.821 974.114 932.169C976.89 934.14 979.595 935.741 982.007 938.104C984.448 940.495 986.48 943.553 989.568 945.189C991.085 945.992 992.401 946.435 993.519 945.141C994.399 944.123 995.773 941.173 995.883 939.81C996.032 937.955 993.624 936.432 992.344 935.425C987.156 931.339 981.503 925.665 975.325 923.256C975.943 923.02 976.6 923.02 977.244 923.213L974.846 923.989Z" fill="#F175AB"/>
<path d="M999.225 938.924C993.24 939.765 988.723 942.393 983.093 938.814C978.529 935.914 974.732 930.496 974.149 925.053C973.217 916.363 973.064 908.871 977.198 900.613C979.239 896.536 983.245 892.157 986.865 889.437C991.128 886.234 999.012 888.007 1003.74 889.387C1013.44 892.217 1029.05 904.355 1030.29 915.344C1030.97 921.362 1031.28 930.422 1024.66 933.339C1016.7 936.842 1007.74 937.727 999.225 938.924Z" fill="#F175AB"/>
<path d="M1023.27 930.526C1020.29 932.296 1016.14 932.661 1012.75 932.924C1007.97 933.295 1003.12 933.122 998.324 933.64C996.489 933.838 994.653 934.031 992.891 934.437C991.919 934.661 990.904 935.216 989.928 935.208C992.15 932.996 995.504 931.752 998.282 930.303C1002.33 928.192 1006.59 926.485 1011.03 925.432C1013.79 924.779 1016.52 924.015 1019.34 923.666C1021.75 923.368 1024.32 923.149 1026.02 925.222C1027.82 927.429 1025.22 929.364 1023.27 930.526Z" fill="#F6B1CF"/>
<path d="M1018 911.761C1020.44 910.891 1026.71 909.589 1028.01 912.845C1028.65 914.427 1027.93 917.722 1026.64 918.857C1024.01 921.183 1019.61 921.001 1016.27 921.514C1005.75 923.13 995.282 926.372 986.646 932.651C986.155 933.007 985.609 933.36 985.105 933.702C986.873 930.686 989.986 928.232 992.663 925.982C996.552 922.712 1000.94 919.509 1005.41 917.105C1009.52 914.902 1013.63 913.316 1018 911.761Z" fill="#F6B1CF"/>
<path d="M1002.06 908.108C1004.34 905.507 1006.32 902.636 1008.91 900.324C1010.87 898.583 1015.16 896.574 1017.63 898.391C1019.4 899.692 1021.65 901.18 1022.63 903.22C1024.1 906.286 1021.04 908.11 1018.52 909.16C1012.73 911.568 1006.75 913.024 1001.43 916.494C998.15 918.628 994.73 920.652 991.708 923.134C989.679 924.799 988.184 926.79 986.449 928.726C985.635 929.634 984.662 930.638 983.819 931.261C985.732 927.246 989.022 923.86 991.735 920.356C995.031 916.098 998.522 912.149 1002.06 908.108Z" fill="#F6B1CF"/>
<path d="M1008.2 893.395C1010.06 895.972 1005.76 899.662 1004.35 901.46C997.945 909.603 991.047 917.047 985.646 925.868C984.629 927.53 983.565 929.196 982.731 930.637C985.717 922.769 989.111 915.017 992.257 907.238C993.878 903.229 995.041 899.006 997.413 895.338C998.462 893.717 999.859 891.874 1001.81 891.304C1003.66 890.761 1007.07 891.843 1008.2 893.395Z" fill="#F6B1CF"/>
<path d="M981.319 930.431C981.593 925.949 983.608 920.994 985.061 916.735C986.583 912.278 988.216 908.027 989.958 903.718C991.108 900.876 992.481 897.956 994.274 895.44C995.713 893.421 998.388 890.653 994.347 889.663C988.028 888.116 984.48 896.035 983.05 900.785C980.508 909.224 981.108 921.819 981.319 930.431Z" fill="#F6B1CF"/>
<path d="M979.088 911.673C979.169 909.632 981.372 902.394 979.578 900.905C977.955 899.557 976.334 904.199 975.94 905.399C975.199 907.655 974.779 910.023 974.542 912.387C974.309 914.716 974.352 917.155 975.001 919.398C975.529 921.226 976.652 924.607 978.106 925.841C979.497 924.937 979.149 919.855 979.149 918.416C979.15 916.171 978.998 913.909 979.088 911.673Z" fill="#F6B1CF"/>
<path d="M752.05 762.43C727.287 766.016 697.459 765.815 671.817 765.585C635.122 765.256 596.312 761.787 560.2 767.624C525.28 773.269 540.706 790.608 568.199 796.277C586.097 799.966 605.832 799.537 624.379 799.661C678.448 800.022 727.296 803.901 779.932 811.014C843.815 819.648 907.83 819.466 971.655 811.838C994.046 809.162 1066.14 797.55 1060.64 773.538C1056.22 754.255 974.36 757.53 952.877 758.773C920.896 760.623 894.449 759.529 863.298 757.035C828.306 754.235 786.23 757.48 752.05 762.43Z" fill="#FAB27B"/>
<path d="M161.123 916.721C148.177 927.497 152.856 935.372 160.316 947.695C175.333 972.504 202.667 990.546 228.68 1003.02C241.054 1008.95 252.592 1009.94 265.661 1012.65C280.421 1015.71 294.432 1023.61 309.274 1027.77C340.678 1036.56 375.41 1036.72 407.172 1031.54C446.119 1025.19 485.47 1021.26 524.432 1015.39C546.302 1012.1 599.285 1008.07 595.84 975.484C593.51 953.46 570.177 939.314 550.653 938.412C516.153 936.819 484.831 926.295 450.742 922.866C401.37 917.903 349.956 911.291 301.48 899.748C259.928 889.852 196.358 887.39 161.123 916.721Z" fill="#9AA8D0"/>
<path d="M419.829 783.99C419.323 784.292 418.823 784.605 418.33 784.935C418.951 785.038 419.569 785.145 420.179 785.256C420.037 784.832 419.925 784.41 419.829 783.99Z" fill="#ED2777"/>
<path d="M399.345 784.101C400.179 783.997 401.019 783.921 401.862 783.863C401.326 783.724 400.788 783.593 400.248 783.465C399.949 783.68 399.641 783.883 399.345 784.101Z" fill="#ED2777"/>
<path d="M415.488 862.519C416.307 861.965 417.138 861.441 417.979 860.934C413.664 841.982 435.37 824.618 447.972 810.318C452.368 805.078 457.451 801.324 463 798.632C447.984 793.422 432.757 789.827 418.685 787.85C373.636 781.526 325.053 785.587 282 801.425C317.382 807.795 348.593 833.651 363.003 868C369.393 864.133 376.534 862.049 383.935 861.121C384.427 860.755 384.939 860.416 385.436 860.056C385.037 859.962 384.645 859.852 384.246 859.761C384.645 859.852 385.039 859.962 385.436 860.056C386.333 860.271 387.228 860.49 388.118 860.723C397.287 860.091 406.707 861.042 415.488 862.519Z" fill="#F36D21"/>
<path d="M329 957.677C329 958.005 329.003 958.341 329.003 958.67C370.368 964.952 412.995 962.29 453.451 951.148C460.178 949.295 467.086 947.004 474 944.309C473.72 943.045 473.415 941.789 473.089 940.541C473.077 940.496 473.066 940.451 473.054 940.408C471.062 932.852 468.211 925.618 464.615 918.787C464.592 918.744 464.57 918.701 464.547 918.657C463.975 917.575 463.382 916.503 462.774 915.443C462.716 915.343 462.658 915.241 462.6 915.141C461.992 914.087 461.367 913.042 460.723 912.011C460.694 911.965 460.666 911.922 460.638 911.877C457.959 907.598 454.98 903.506 451.734 899.619C451.654 899.523 451.577 899.426 451.497 899.331C450.808 898.51 450.098 897.702 449.384 896.9C449.167 896.656 448.951 896.412 448.732 896.169C448.06 895.427 447.377 894.693 446.684 893.967C446.412 893.683 446.139 893.4 445.864 893.119C445.185 892.42 444.499 891.726 443.799 891.044C443.511 890.763 443.218 890.487 442.926 890.208C442.214 889.526 441.499 888.845 440.768 888.18C440.571 888.001 440.37 887.829 440.172 887.651C438.574 886.217 436.937 884.822 435.26 883.471C435.065 883.314 434.875 883.15 434.68 882.995C434.023 882.471 433.35 881.965 432.68 881.455C432.206 881.093 431.734 880.729 431.254 880.374C430.628 879.911 429.992 879.46 429.356 879.008C428.813 878.622 428.268 878.239 427.719 877.861C427.104 877.44 426.484 877.024 425.862 876.614C425.265 876.221 424.664 875.835 424.061 875.452C423.462 875.071 422.86 874.691 422.252 874.32C421.584 873.912 420.91 873.516 420.234 873.121C419.672 872.792 419.115 872.459 418.548 872.138C417.634 871.621 416.706 871.123 415.777 870.63C415.305 870.379 414.836 870.126 414.361 869.88C413.237 869.302 412.103 868.735 410.959 868.19C410.472 867.958 409.977 867.738 409.488 867.513C408.645 867.125 407.802 866.739 406.95 866.367C406.412 866.133 405.87 865.909 405.329 865.683C404.508 865.339 403.684 865.003 402.854 864.675C402.303 864.458 401.748 864.245 401.194 864.035C400.346 863.715 399.491 863.406 398.635 863.103C398.101 862.914 397.566 862.724 397.028 862.542C396.09 862.225 395.144 861.925 394.198 861.63C393.737 861.486 393.279 861.336 392.816 861.197C391.405 860.776 389.986 860.373 388.559 860C387.155 860.095 385.756 860.224 384.367 860.398C352.804 883.692 330.462 918.06 329 957.677Z" fill="white"/>
<path d="M224.438 903C225.746 900.767 227.176 898.597 228.734 896.497C228.946 896.21 229.16 895.926 229.375 895.643C229.795 895.094 230.216 894.545 230.654 894.006C231.288 893.224 231.939 892.451 232.61 891.689C232.88 891.384 233.165 891.086 233.442 890.783C234.015 890.157 234.6 889.54 235.201 888.929C235.473 888.652 235.746 888.376 236.023 888.102C236.889 887.25 237.774 886.408 238.698 885.587C270.072 858.831 316.443 853.159 356.301 864.229C357.571 862.964 358.792 861.628 360 860.27C344.392 829.596 315.028 806.906 282.048 801C278.969 802.127 275.915 803.303 272.895 804.55C243.7 816.606 219.691 837.429 207 861.462C208.401 875.433 213.989 887.949 221.944 899.535C222.748 900.7 223.589 901.852 224.438 903Z" fill="white"/>
<path d="M522.099 877.337C523.497 878.549 524.87 879.813 526.228 881.105C526.484 881.349 526.743 881.586 526.997 881.832C528.144 882.943 529.271 884.084 530.386 885.247C530.897 885.777 531.405 886.311 531.909 886.853C532.798 887.812 533.676 888.785 534.544 889.775C535.282 890.615 536.006 891.469 536.728 892.33C536.796 892.411 536.862 892.496 536.931 892.577C538.4 894.342 539.83 896.149 541.224 897.998V898C546.455 891.459 550.8 884.384 554 876.791C553.55 875.18 553.061 873.563 552.501 871.931C540.4 836.685 502.709 812.414 463.587 799C458.036 801.661 452.953 805.371 448.557 810.55C435.952 824.684 414.243 841.848 418.559 860.58C449.78 841.992 494.969 854.803 522.099 877.337Z" fill="white"/>
<path d="M475.543 960.505C475.523 960.121 475.486 959.741 475.462 959.359C475.37 957.925 475.259 956.496 475.108 955.079C475.077 954.773 475.037 954.47 475.002 954.164C474.823 952.619 474.618 951.08 474.372 949.556C474.347 949.401 474.321 949.247 474.296 949.093C474.011 947.382 473.691 945.682 473.325 944C466.443 946.724 459.567 949.042 452.871 950.916C412.603 962.184 370.173 964.874 329 958.523C329.002 960.096 329.008 961.684 329.02 963.282C329.022 963.581 329.027 963.884 329.03 964.183C329.043 965.526 329.058 966.875 329.081 968.233C329.09 968.71 329.103 969.191 329.113 969.67C329.138 970.872 329.164 972.075 329.199 973.285C329.219 973.909 329.245 974.538 329.269 975.166C329.307 976.246 329.343 977.325 329.393 978.41C329.428 979.173 329.476 979.941 329.517 980.705C329.569 981.664 329.615 982.621 329.676 983.581C329.736 984.498 329.812 985.414 329.882 986.331C329.943 987.149 329.998 987.968 330.069 988.786C330.165 989.892 330.283 990.999 330.396 992.105C330.461 992.739 330.514 993.374 330.585 994.008C330.781 995.749 330.998 997.488 331.241 999.222C381.484 1005.86 435.774 1000.16 476.645 986.818C476.763 986.779 476.881 986.736 477 986.698C476.31 979.403 475.689 972.333 475.689 965.832C475.689 964.041 475.634 962.267 475.543 960.505Z" fill="#CBCBCB"/>
<path d="M212.508 943C212.629 941.368 212.793 939.752 212.977 938.142C213.028 937.7 213.088 937.261 213.144 936.819C213.301 935.576 213.478 934.342 213.675 933.116C213.74 932.717 213.801 932.32 213.871 931.923C214.44 928.625 215.158 925.385 216.044 922.216C216.059 922.163 216.075 922.108 216.092 922.055C216.534 920.485 217.022 918.935 217.547 917.401C217.583 917.293 217.619 917.187 217.658 917.079C219.331 912.252 221.43 907.622 224 903.229C223.158 902.089 222.323 900.946 221.529 899.789C213.637 888.29 208.092 875.867 206.704 862C193.19 887.604 192.612 916.876 212.508 943Z" fill="#CBCBCB"/>
<path d="M541 898.092C542.193 899.639 543.36 901.211 544.496 902.813C544.531 902.864 544.567 902.916 544.604 902.967C545.684 904.496 546.744 906.039 547.766 907.612C548.042 908.032 548.299 908.465 548.571 908.889C549.362 910.133 550.155 911.373 550.909 912.642C551.96 914.405 552.977 916.191 553.951 918C557.8 905.488 558.212 891.729 553.993 877C550.736 884.552 546.318 891.588 541 898.092Z" fill="#CBCBCB"/>
<path d="M393.651 862.305C394.599 862.596 395.545 862.893 396.483 863.205C397.022 863.386 397.557 863.572 398.092 863.761C398.949 864.06 399.805 864.365 400.653 864.681C401.21 864.887 401.764 865.099 402.316 865.314C403.146 865.636 403.971 865.97 404.793 866.31C405.335 866.533 405.877 866.756 406.416 866.986C407.268 867.353 408.113 867.734 408.957 868.117C409.447 868.341 409.942 868.557 410.429 868.787C411.574 869.327 412.708 869.885 413.835 870.457C414.31 870.698 414.78 870.949 415.252 871.197C416.183 871.685 417.11 872.177 418.027 872.687C418.595 873.003 419.152 873.333 419.714 873.659C420.391 874.051 421.068 874.44 421.735 874.844C422.343 875.21 422.944 875.585 423.546 875.962C424.149 876.34 424.751 876.722 425.348 877.11C425.972 877.517 426.592 877.927 427.207 878.343C427.757 878.716 428.302 879.095 428.846 879.476C429.483 879.922 430.12 880.369 430.747 880.826C431.227 881.176 431.699 881.537 432.174 881.893C432.844 882.397 433.518 882.898 434.176 883.415C434.373 883.569 434.562 883.731 434.757 883.886C436.436 885.221 438.075 886.599 439.674 888.017C439.872 888.192 440.074 888.362 440.27 888.539C441.002 889.196 441.716 889.869 442.431 890.543C442.723 890.819 443.017 891.091 443.305 891.369C444.004 892.043 444.691 892.729 445.372 893.419C445.648 893.699 445.921 893.976 446.193 894.257C446.886 894.974 447.57 895.698 448.244 896.433C448.464 896.673 448.679 896.914 448.896 897.155C449.611 897.948 450.319 898.746 451.011 899.557C451.091 899.651 451.17 899.747 451.248 899.841C454.499 903.683 457.481 907.726 460.162 911.954C460.19 911.998 460.218 912.041 460.247 912.086C460.892 913.105 461.515 914.138 462.126 915.179C462.184 915.278 462.242 915.377 462.301 915.478C462.911 916.527 463.501 917.584 464.075 918.653C464.098 918.696 464.12 918.739 464.143 918.782C467.745 925.532 470.597 932.676 472.591 940.145C472.603 940.19 472.615 940.233 472.627 940.277C472.955 941.51 473.258 942.751 473.539 944C498.945 934.224 524.38 918.88 541 898.216C539.603 896.372 538.164 894.568 536.693 892.808C536.625 892.727 536.558 892.643 536.49 892.562C535.768 891.701 535.038 890.853 534.299 890.014C533.429 889.028 532.55 888.053 531.656 887.1C531.153 886.558 530.641 886.029 530.129 885.499C529.009 884.342 527.881 883.197 526.729 882.093C526.474 881.849 526.214 881.611 525.957 881.368C524.594 880.081 523.218 878.819 521.816 877.611C494.602 855.138 449.274 842.365 417.957 860.899C418.118 861.595 418.305 862.29 418.54 862.991C417.523 862.807 416.495 862.632 415.457 862.46C406.649 861.006 397.199 860.07 388 860.691C389.431 861.059 390.849 861.456 392.262 861.874C392.73 862.013 393.189 862.163 393.651 862.305Z" fill="#0794E2"/>
<path d="M548.71 909.013C548.444 908.579 548.19 908.14 547.919 907.71C546.91 906.109 545.872 904.529 544.808 902.973C544.773 902.921 544.739 902.867 544.702 902.815C543.585 901.183 542.438 899.578 541.264 898C524.691 919.019 499.331 934.627 474 944.57C474.367 946.242 474.692 947.931 474.974 949.631C474.999 949.784 475.026 949.939 475.051 950.092C475.295 951.608 475.506 953.135 475.682 954.671C475.717 954.975 475.757 955.276 475.789 955.58C475.938 956.99 476.053 958.409 476.143 959.834C476.168 960.214 476.203 960.592 476.224 960.973C476.316 962.726 476.371 964.487 476.371 966.262C476.371 972.724 476.996 979.75 477.686 987C511.834 975.851 544.2 951.337 554 918.303C553.042 916.457 552.038 914.637 551.008 912.837C550.266 911.55 549.49 910.28 548.71 909.013Z" fill="#1E6A94"/>
<path d="M361.336 865.943C359.546 865.37 357.733 864.841 355.912 864.336C354.043 866.196 352.068 867.896 349.849 869.231C352.067 867.896 354.043 866.196 355.912 864.336C316.039 853.279 269.651 858.944 238.265 885.671C237.34 886.49 236.458 887.331 235.59 888.182C235.311 888.455 235.039 888.731 234.767 889.008C234.166 889.617 233.582 890.237 233.008 890.861C232.731 891.164 232.445 891.46 232.175 891.766C231.501 892.525 230.853 893.299 230.219 894.08C229.781 894.62 229.358 895.167 228.939 895.715C228.722 895.998 228.51 896.282 228.298 896.568C226.742 898.67 225.309 900.835 224 903.064C239.817 924.434 263.796 942.591 289.137 950.191C302.058 954.067 315.227 956.985 328.522 959C328.522 958.671 328.519 958.335 328.519 958.007C329.984 918.389 352.372 884.02 384 860.723C376.57 861.651 369.396 863.728 362.979 867.585C361.946 865.137 360.816 862.738 359.614 860.38C358.406 861.736 357.184 863.071 355.914 864.335C357.733 864.841 359.544 865.368 361.336 865.943Z" fill="#0794E2"/>
<path d="M330.148 991.972C330.035 990.881 329.915 989.789 329.82 988.696C329.749 987.887 329.696 987.081 329.632 986.273C329.562 985.368 329.486 984.462 329.426 983.559C329.363 982.611 329.318 981.667 329.266 980.721C329.225 979.966 329.176 979.208 329.142 978.456C329.092 977.384 329.055 976.32 329.017 975.253C328.993 974.636 328.967 974.013 328.947 973.397C328.91 972.202 328.885 971.016 328.86 969.829C328.85 969.357 328.837 968.881 328.829 968.411C328.805 967.069 328.789 965.741 328.777 964.414C328.774 964.118 328.769 963.82 328.767 963.524C328.756 961.945 328.749 960.38 328.747 958.828C315.493 956.817 302.366 953.905 289.485 950.036C264.223 942.451 240.32 924.328 224.552 903C221.968 907.411 219.861 912.065 218.176 916.912C218.139 917.019 218.101 917.127 218.065 917.236C217.536 918.774 217.048 920.333 216.602 921.91C216.587 921.964 216.571 922.019 216.554 922.072C215.662 925.253 214.943 928.511 214.369 931.822C214.301 932.221 214.238 932.62 214.173 933.02C213.973 934.252 213.797 935.493 213.639 936.74C213.582 937.182 213.522 937.623 213.471 938.069C213.285 939.686 213.121 941.31 213 942.948C219.419 951.37 227.949 959.467 238.857 967.01C263.934 984.35 296.518 994.521 331 999C330.754 997.288 330.536 995.572 330.341 993.853C330.266 993.224 330.213 992.598 330.148 991.972Z" fill="#1E6A94"/>
<path d="M379.045 831.109C373.584 831.318 368.4 831.815 363.711 832.529C355.007 833.858 291.459 850.382 304.845 865.092C324.855 887.083 367.789 879.833 394.187 879.935C401.455 879.963 461.515 870.154 451.976 856.304C437.859 835.808 405.286 830.108 379.045 831.109Z" fill="#D64B27"/>
<path d="M369.632 834.738C387.387 846.608 391.083 857.79 393.691 863.836C394.296 865.236 395.607 866.152 397.113 866.396L410.014 868.492C411.663 868.759 413.336 868.186 414.474 866.964L419.738 861.313C421.26 859.678 421.514 857.232 420.358 855.32L416.888 849.576C416.743 849.336 416.569 849.098 416.386 848.885C391.743 820.317 396.116 825.229 380.263 812.514C367.675 802.418 257.491 852.623 245.312 856.878C245.015 856.982 244.784 857.024 244.472 857.065C233.779 858.479 213.147 864.185 194.49 847.978C182.15 837.259 169.312 841.538 165.219 847.978C155.949 862.567 157.959 874.925 178.172 883.423C191.647 889.088 225.147 891.064 250.494 881.106C271.814 872.73 348.65 841.468 364.524 834.368C366.187 833.624 368.117 833.725 369.632 834.738Z" fill="#352C35"/>
<g filter="url(#filter0_d_1331_384)">
<path d="M320.069 734.655L310.179 727.705C297.314 714.945 261.735 673.484 270.942 663.693C290.619 642.771 267.707 649.805 264.724 649.531C262.338 649.311 261.925 647.26 262.017 646.262C258.722 639.985 250.995 640.718 248.593 645.027C242.949 641.519 237.518 645.519 237.602 650.057C230.631 651.66 228.462 656.767 230.535 661.488C225.959 661.929 225.915 668.111 228.218 670.336C237.322 676.005 241.312 680.6 242.168 682.189C250.374 710.73 277.787 747.378 290.468 762.135L288.977 761.998L295.746 770.171L320.069 734.655Z" fill="white"/>
<path d="M263.069 667.501C262.613 672.462 258.122 675.438 253.181 674.983C248.239 674.529 246.519 674.442 246.975 669.481C247.431 664.519 253.871 660.677 258.812 661.131C263.754 661.586 263.525 662.539 263.069 667.501Z" fill="#E3A9A1"/>
<path d="M263.069 667.501C262.613 672.462 258.122 675.438 253.181 674.983C248.239 674.529 246.519 674.442 246.975 669.481C247.431 664.519 253.871 660.677 258.812 661.131C263.754 661.586 263.525 662.539 263.069 667.501Z" fill="#E3A9A1"/>
<path d="M263.069 667.501C262.613 672.462 258.122 675.438 253.181 674.983C248.239 674.529 246.519 674.442 246.975 669.481C247.431 664.519 253.871 660.677 258.812 661.131C263.754 661.586 263.525 662.539 263.069 667.501Z" fill="#E3A9A1"/>
<path d="M271.682 653.431C272.451 654.903 271.886 656.717 270.419 657.483C268.953 658.249 264.285 658.484 263.516 657.011C262.747 655.539 266.168 652.918 267.635 652.152C269.101 651.386 270.913 651.959 271.682 653.431Z" fill="#E3A9A1"/>
<path d="M271.682 653.431C272.451 654.903 271.886 656.717 270.419 657.483C268.953 658.249 264.285 658.484 263.516 657.011C262.747 655.539 266.168 652.918 267.635 652.152C269.101 651.386 270.913 651.959 271.682 653.431Z" fill="#E3A9A1"/>
<path d="M271.682 653.431C272.451 654.903 271.886 656.717 270.419 657.483C268.953 658.249 264.285 658.484 263.516 657.011C262.747 655.539 266.168 652.918 267.635 652.152C269.101 651.386 270.913 651.959 271.682 653.431Z" fill="#E3A9A1"/>
</g>
<g filter="url(#filter1_d_1331_384)">
<path d="M347.142 880.567C287.914 875.962 273.819 818.698 274.876 788.218C347.259 768.541 492.697 759.049 487.775 806.4C483.212 850.294 469.944 862.403 459.461 869.971C436.997 886.189 380.089 884.603 347.142 880.567Z" fill="white"/>
<path d="M472.728 753.537C468.235 744.514 464.74 715.442 463.741 694.89L459.248 645.266C458.749 641.256 453.257 629.699 435.284 621.278C418.196 613.272 370.554 617.309 349.912 619.702C348.043 619.919 340.67 624.936 333.65 630.389C332.511 631.274 331.26 632.005 329.925 632.541L325.514 634.313C324.806 634.597 324.096 634.909 323.515 635.408C320.562 637.944 321.068 642.355 320.542 646.577L316.961 675.341C313.966 691.883 310.97 706.92 304.979 721.958L286.053 755.576C285.69 756.221 285.276 756.832 284.849 757.435C279.298 765.279 276.427 778.204 274.876 788.218C273.908 794.468 277.218 800.59 282.943 803.146C353.258 834.54 436.432 824.637 478.198 813.464C484.018 811.907 488.317 806.415 487.901 800.345C487.251 790.867 484.699 782.832 483.212 779.101L472.728 753.537Z" fill="white"/>
</g>
<g filter="url(#filter2_d_1331_384)">
<path d="M452.811 789.92C460.585 782.402 470.177 756.168 470.188 746.57L480.424 780.036C478.017 794.752 476.002 801.361 469.158 807.742C448.681 826.834 434.411 822.754 430.669 822.391C410.482 818.902 413.491 800.507 425.68 798.012C426.29 788.575 434.766 792.766 436.909 799.101C441.453 796.478 445.036 797.438 452.811 789.92Z" fill="white"/>
<path d="M452.811 789.92C460.585 782.402 470.177 756.168 470.188 746.57L480.424 780.036C478.017 794.752 476.002 801.361 469.158 807.742C448.681 826.834 434.411 822.754 430.669 822.391C410.482 818.902 413.491 800.507 425.68 798.012C426.29 788.575 434.766 792.766 436.909 799.101C441.453 796.478 445.036 797.438 452.811 789.92Z" stroke="black"/>
</g>
<path d="M331.492 878.31C293.241 870.242 277.473 828.135 275.607 805.181C275.52 804.118 276.927 803.77 277.441 804.704C294.111 835.035 329.485 849.862 346.163 853.556C357.031 857.406 386.59 864.117 417.888 860.157C447.209 856.446 473.906 826.376 485.651 809.023C486.234 808.162 487.608 808.633 487.518 809.668C483.501 856.011 464.584 870.283 443.97 878.31C422.779 884.911 370.615 886.561 331.492 878.31Z" fill="#D7D4D4"/>
<path d="M293.462 833.621C305.761 851.257 311.514 869.914 301.437 876.942C291.36 883.971 269.268 876.709 256.969 859.073C249.529 850.989 243.966 825.035 253.237 816.52C263.314 809.492 281.162 815.986 293.462 833.621Z" fill="#352C35"/>
<path d="M289.752 849.151C294.353 855.748 296.31 862.862 292.139 865.771C288.503 868.307 281.411 866.81 276.603 862.015C275.168 860.583 273.865 858.964 273.085 857.092C271.338 852.898 270.864 846.043 273.947 843.283C278.118 840.374 285.151 842.554 289.752 849.151Z" fill="#E3A9A1"/>
<path d="M265.327 844.027C265.327 846.075 263.667 847.735 261.619 847.735C259.571 847.735 257.911 846.075 257.911 844.027C257.911 841.98 259.571 840.32 261.619 840.32C263.667 840.32 265.327 841.98 265.327 844.027Z" fill="#E3A9A1"/>
<path d="M269.034 832.904C269.034 834.952 267.374 836.612 265.327 836.612C263.279 836.612 261.619 834.952 261.619 832.904C261.619 830.857 263.279 829.197 265.327 829.197C267.374 829.197 269.034 830.857 269.034 832.904Z" fill="#E3A9A1"/>
<path d="M280.157 832.904C280.157 834.952 278.497 836.612 276.45 836.612C274.402 836.612 272.742 834.952 272.742 832.904C272.742 830.857 274.402 829.197 276.45 829.197C278.497 829.197 280.157 830.857 280.157 832.904Z" fill="#E3A9A1"/>
<path d="M445.309 837.96C433.009 855.596 427.256 874.253 437.334 881.281C447.411 888.31 469.502 881.047 481.802 863.412C489.241 855.328 494.805 829.374 485.534 820.859C475.456 813.831 457.609 820.324 445.309 837.96Z" fill="#352C35"/>
<path d="M449.019 853.49C444.418 860.087 442.46 867.201 446.632 870.11C450.267 872.646 457.36 871.149 462.167 866.354C463.603 864.922 464.906 863.303 465.685 861.431C467.433 857.237 467.906 850.382 464.824 847.622C460.652 844.713 453.619 846.893 449.019 853.49Z" fill="#E3A9A1"/>
<path d="M473.444 848.366C473.444 850.414 475.104 852.074 477.152 852.074C479.199 852.074 480.859 850.414 480.859 848.366C480.859 846.318 479.199 844.658 477.152 844.658C475.104 844.658 473.444 846.318 473.444 848.366Z" fill="#E3A9A1"/>
<path d="M469.736 837.243C469.736 839.291 471.396 840.951 473.444 840.951C475.492 840.951 477.152 839.291 477.152 837.243C477.152 835.195 475.492 833.535 473.444 833.535C471.396 833.535 469.736 835.195 469.736 837.243Z" fill="#E3A9A1"/>
<path d="M458.613 837.243C458.613 839.291 460.273 840.951 462.321 840.951C464.369 840.951 466.029 839.291 466.029 837.243C466.029 835.195 464.369 833.535 462.321 833.535C460.273 833.535 458.613 835.195 458.613 837.243Z" fill="#E3A9A1"/>
<path d="M275.022 670.154L316.959 675.337L321.453 639.247C313.964 642.756 292.995 660.3 279.515 662.635C267.886 664.65 272.027 669.653 275.022 670.154Z" fill="#352C35"/>
<path d="M276.518 670.825L316.958 675.336L324.446 649.772C316.458 653.281 309.469 666.314 281.012 666.314C268.97 666.314 273.023 669.823 276.518 670.825Z" fill="url(#paint0_linear_1331_384)"/>
<path d="M492.203 675.339L483.217 667.82C468.239 654.286 467.34 647.669 457.755 639.248C448.169 630.827 456.257 673.835 462.248 693.384H463.746C473.232 693.384 495.798 691.278 504.185 688.872C512.573 686.466 493.701 676.842 492.203 675.339Z" fill="#352C35"/>
<path d="M499.282 683.371C508.868 686.98 503.276 689.887 499.282 690.89C495.688 692.527 471.735 693.065 460.751 693.385L456.258 667.821C467.241 671.33 489.697 679.762 499.282 683.371Z" fill="url(#paint1_linear_1331_384)"/>
<path d="M403.835 702.409C389.957 688.475 387.444 649.644 398.735 626.899C399.124 626.116 399.744 625.458 400.497 625.012C427.922 608.777 451.883 629.098 460.039 641.164C460.519 641.874 460.77 642.708 460.809 643.564L463.552 704.139C463.663 706.604 461.958 708.788 459.532 709.236C418.24 716.87 409.634 708.231 403.835 702.409L403.835 702.409Z" fill="#352C35"/>
<path d="M360.398 702.406C391.402 700.1 390.034 651.115 386.351 623.213C386.072 621.099 384.455 619.422 382.348 619.098C347.344 613.722 326.655 628.97 320.527 638.326C320.136 638.923 319.923 639.616 319.855 640.327L315.503 685.47C315.478 685.733 315.47 685.994 315.499 686.257C316.362 694.235 328.571 704.773 360.398 702.406Z" fill="#352C35"/>
<path d="M393.346 622.706C357.481 619.105 332.431 631.152 320.48 640.495C318.17 642.301 313.965 640.62 313.965 637.688C313.965 636.771 314.376 635.902 315.084 635.32L329.948 623.111C330.275 622.842 330.635 622.616 331.019 622.438L349.262 613.984C349.693 613.785 350.15 613.647 350.62 613.577L379.208 609.271C379.645 609.205 380.089 609.198 380.528 609.249L417.964 613.585C418.523 613.65 419.067 613.809 419.573 614.055L464.103 635.687C464.848 636.05 465.492 636.592 465.977 637.265L484.233 662.644C484.543 663.075 484.71 663.593 484.71 664.124C484.71 666.735 480.964 667.809 479.392 665.725C463.675 644.894 433.529 626.74 393.346 622.706Z" fill="black"/>
<path d="M409.821 544.511C330.868 537.618 313.016 603.316 313.743 641.551C313.764 642.654 315.5 642.936 316.014 641.96C323.571 627.617 346.636 607.659 394.844 615.188C446.614 623.273 475.927 647.717 485.252 660.3C494.738 621.704 492.498 551.729 409.821 544.511Z" fill="#EF1C21"/>
<path d="M387.138 542.581L386.553 543.461C386.096 544.151 385.816 544.942 385.74 545.766L380.326 604.201C380.071 606.948 382.09 609.382 384.836 609.641L423.155 613.248C425.768 613.494 428.127 611.677 428.556 609.088L438.075 551.747C438.208 550.945 438.144 550.123 437.888 549.352L437.774 549.008C437.167 547.179 435.563 545.862 433.651 545.622L391.926 540.386C390.043 540.149 388.188 541 387.138 542.581Z" fill="#EC4B50"/>
<path d="M313.964 644.658V631.771C313.964 631.743 313.968 631.716 313.976 631.689C317.506 619.649 338.89 597.149 396.341 603.157C453.775 609.164 481.138 641.163 486.185 655.728C486.2 655.77 486.204 655.812 486.199 655.856L484.856 667.993C484.821 668.311 484.363 668.372 484.244 668.075C478.254 653.106 452.256 624.043 396.341 618.195C341.848 612.496 319.804 632.446 314.666 644.789C314.532 645.11 313.964 645.005 313.964 644.658Z" fill="url(#paint2_linear_1331_384)"/>
<path d="M418.254 567.155C418.254 567.155 416.621 566.227 416.396 566.098C416.17 565.969 415.935 565.919 415.67 565.946C415.406 565.972 415.21 566.088 415.099 566.174C414.987 566.26 410.82 569.478 410.82 569.478C410.82 569.478 407.617 565.365 407.513 565.231C407.409 565.098 407.285 564.962 406.998 564.845C406.711 564.729 406.446 564.755 406.278 564.814C406.112 564.853 404.444 565.323 404.216 565.374C403.988 565.425 403.768 565.578 403.602 565.777C403.481 565.942 403.376 566.129 403.347 566.366C403.374 566.149 402.701 571.493 402.701 571.493L405.861 573.878L406.422 569.421L407.807 571.2C407.911 571.333 408.04 571.429 408.191 571.509C408.305 571.563 408.399 571.615 408.577 571.638C408.755 571.66 412.438 572.128 412.438 572.128C412.577 572.145 412.718 572.143 412.844 572.099C412.99 572.058 413.139 571.996 413.317 571.859C413.495 571.721 415.077 570.499 415.077 570.499L414.516 574.956L418.167 573.436C418.167 573.436 418.743 568.861 418.808 568.348C418.895 567.818 418.648 567.386 418.254 567.155Z" fill="white"/>
<path d="M396.405 575.606C396.405 575.606 396.411 577.47 396.419 577.732C396.426 577.993 396.498 578.223 396.651 578.442C396.805 578.662 397.012 578.769 397.146 578.826C397.28 578.883 402.16 580.865 402.16 580.865C402.16 580.865 400.185 585.683 400.128 585.816C400.069 585.969 400.007 586.142 400.049 586.447C400.091 586.753 400.264 586.976 400.39 587.092C400.516 587.208 401.751 588.427 401.912 588.587C402.073 588.748 402.318 588.879 402.575 588.912C402.773 588.937 402.996 588.925 403.209 588.832C402.996 588.925 407.986 586.834 407.986 586.834L408.481 582.909L404.319 584.645L405.166 582.549C405.226 582.396 405.246 582.238 405.248 582.058C405.246 581.917 405.236 581.836 405.159 581.646C405.08 581.476 403.639 578.067 403.639 578.067C403.574 577.938 403.507 577.83 403.418 577.738C403.312 577.625 403.183 577.528 402.973 577.441C402.782 577.357 400.907 576.598 400.907 576.598L405.068 574.862L401.908 572.477C401.908 572.477 397.64 574.26 397.153 574.459C396.66 574.697 396.402 575.145 396.405 575.606Z" fill="white"/>
<path d="M414.708 590.231C414.708 590.231 416.335 589.296 416.552 589.163C416.77 589.03 416.934 588.851 417.043 588.624C417.154 588.378 417.142 588.156 417.14 588.015C417.117 587.872 416.404 582.672 416.404 582.672C416.404 582.672 421.582 581.967 421.746 581.948C421.909 581.928 422.095 581.892 422.34 581.702C422.585 581.513 422.696 581.267 422.738 581.092C422.781 580.917 423.212 579.248 423.279 579.037C423.348 578.805 423.341 578.543 423.23 578.309C423.153 578.119 423.034 577.944 422.851 577.8C423.034 577.944 418.719 574.671 418.719 574.671L415.067 576.191L418.668 578.912L416.418 579.208C416.254 579.227 416.106 579.288 415.955 579.369C415.846 579.436 415.757 579.505 415.658 579.652C415.539 579.797 413.298 582.739 413.298 582.739C413.223 582.85 413.149 582.961 413.112 583.096C413.072 583.251 413.052 583.409 413.087 583.614C413.122 583.819 413.393 585.817 413.393 585.817L409.793 583.096L409.299 587.02C409.299 587.02 412.991 589.813 413.414 590.127C413.814 590.459 414.317 590.462 414.708 590.231Z" fill="white"/>
<ellipse cx="354.404" cy="673.836" rx="22.4664" ry="22.5564" fill="#FFAB34"/>
<ellipse cx="354.404" cy="673.836" rx="22.4664" ry="22.5564" fill="#FFAB34"/>
<ellipse cx="354.404" cy="673.836" rx="22.4664" ry="22.5564" fill="#FFAB34"/>
<ellipse cx="357.399" cy="679.851" rx="13.4786" ry="13.5326" fill="#3B323B"/>
<ellipse cx="358.895" cy="678.346" rx="5.99048" ry="6.01448" fill="white"/>
<ellipse cx="349.909" cy="672.332" rx="2.99524" ry="3.00724" fill="white"/>
<ellipse cx="426.294" cy="682.857" rx="22.4664" ry="22.5564" fill="#FFAB34"/>
<ellipse cx="426.294" cy="682.857" rx="22.4664" ry="22.5564" fill="#FFAB34"/>
<ellipse cx="426.294" cy="682.857" rx="22.4664" ry="22.5564" fill="#FFAB34"/>
<ellipse cx="420.302" cy="685.863" rx="13.4786" ry="13.5326" fill="#3B323B"/>
<ellipse cx="418.807" cy="684.361" rx="5.99048" ry="6.01448" fill="white"/>
<ellipse cx="430.789" cy="684.362" rx="2.99524" ry="3.00724" fill="white"/>
<path d="M361.894 637.182C355.716 636.508 343.361 633.14 334.937 645.265C343.361 638.02 361.894 637.182 361.894 637.182Z" fill="#D9D9D9"/>
<path d="M450.709 654.209C446.375 649.738 438.988 639.24 424.801 643.197C435.892 643.001 450.709 654.209 450.709 654.209Z" fill="#D9D9D9"/>
<path d="M287.009 726.467C316.964 726.467 328.946 720.452 357.404 715.94" stroke="#8B828B" stroke-width="0.5" stroke-linecap="round"/>
<path d="M301.984 711.431C331.94 711.431 330.442 709.927 358.899 712.934" stroke="#8B828B" stroke-width="0.5" stroke-linecap="round"/>
<path d="M294.498 697.896C322.955 705.415 330.444 706.919 358.901 709.927" stroke="#8B828B" stroke-width="0.5" stroke-linecap="round"/>
<path d="M400.837 711.43C429.294 712.432 439.779 709.926 468.236 717.445" stroke="#8B828B" stroke-width="0.5" stroke-linecap="round"/>
<path d="M397.841 715.94C426.298 716.943 442.774 724.963 469.733 736.993" stroke="#8B828B" stroke-width="0.5" stroke-linecap="round"/>
<path d="M397.841 718.947C420.307 727.97 405.33 721.955 445.769 740" stroke="#8B828B" stroke-width="0.5" stroke-linecap="round"/>
<path d="M394.843 724.962C382.862 747.817 371.879 733.482 367.886 723.458L373.876 720.451C374.705 719.951 376.188 719.634 376.871 718.947L379.442 714.863C379.714 714.59 380.98 712.933 381.364 712.933C381.914 712.933 381.52 714.748 381.765 715.241L383.459 718.643C384.049 719.828 384.937 720.837 386.034 721.572L387.079 722.271C388.252 723.056 389.552 723.634 390.92 723.977L394.843 724.962Z" fill="url(#paint3_linear_1331_384)"/>
<path d="M384.012 699.401H378.713C376.041 699.401 373.875 701.568 373.875 704.24C373.875 705.74 374.57 707.155 375.758 708.071L379.126 710.668C379.767 711.162 380.553 711.43 381.363 711.43C382.172 711.43 382.958 711.162 383.599 710.668L386.967 708.071C388.155 707.155 388.851 705.74 388.851 704.24C388.851 701.568 386.684 699.401 384.012 699.401Z" fill="#DB9089"/>
<path d="M357.404 720.451C363.895 724.461 372.382 726.466 381.368 712.933C382.866 718.948 386.461 727.068 400.839 723.459" stroke="#7B727B" stroke-width="0.4" stroke-linecap="round" stroke-linejoin="round"/>
<path d="M658.859 784.173C659.008 784.564 658.908 784.975 659.039 785.359C659.355 786.293 659.802 787.192 660.191 788.099C660.233 788.197 660.995 789.981 661.017 789.972C661.039 789.963 660.271 788.181 660.229 788.083C660.107 787.799 659.986 787.516 659.864 787.232C660.127 787.862 660.389 788.492 660.652 789.121C660.594 788.951 660.599 788.778 660.596 788.6C660.591 788.317 660.526 788.059 660.425 787.796C660.127 787.013 659.779 786.246 659.446 785.477C659.284 785.103 659.122 784.728 658.955 784.356C659.014 784.486 658.759 783.908 658.859 784.173Z" fill="#E96A98"/>
<path d="M664.83 783.21C664.811 783.966 665.134 784.681 665.115 785.438C665.111 785.568 665.298 785.9 665.338 785.994C665.524 786.44 665.712 786.884 665.902 787.327C666.092 787.77 666.284 788.213 666.479 788.655C666.505 788.716 666.731 789.1 666.728 789.2C666.747 788.444 666.425 787.728 666.444 786.972C666.447 786.841 666.26 786.509 666.221 786.415C666.035 785.97 665.846 785.526 665.656 785.082C665.466 784.639 665.275 784.196 665.08 783.755C665.053 783.694 664.828 783.31 664.83 783.21Z" fill="#E96A98"/>
<path d="M667.595 761.423C667.554 761.329 667.514 761.234 667.473 761.14C666.56 759.011 666.522 759.027 667.435 761.156C668.76 764.244 670.923 766.677 672.192 769.834C673.492 773.07 674.461 775.867 674.706 779.287C674.899 781.981 673.875 784.513 674.27 787.218C674.462 788.53 675.694 789.683 675.884 790.98C675.437 787.921 676.453 784.911 676.231 781.816C676.038 779.116 675.025 776.492 673.996 774.016C672.039 769.304 670.366 763.668 666.891 759.833C667.166 760.458 667.441 761.082 667.716 761.706C667.635 761.517 667.554 761.329 667.473 761.14C666.56 759.011 666.522 759.027 667.435 761.156C667.476 761.251 667.516 761.344 667.557 761.439C668.47 763.568 668.507 763.552 667.595 761.423Z" fill="#E96A98"/>
<path d="M675.757 767.2C676.216 768.01 676.676 768.82 677.136 769.631C676.631 768.464 676.127 767.297 675.623 766.129C676.782 768.999 677.621 772.388 678.279 775.428C678.737 777.542 678.164 779.803 678.726 781.951C679.069 783.26 679.999 784.413 680.34 785.713C679.661 783.122 680.158 780.416 679.594 777.808C679.079 775.428 678.38 772.987 677.565 770.684C676.669 768.148 675.466 765.77 674.144 763.438C674.811 764.614 675.087 766.018 675.757 767.2Z" fill="#E96A98"/>
<path d="M681.295 773.096C682.231 775.424 682.376 778.02 682.129 780.491C682.081 780.972 682.734 781.954 682.917 782.38C683.088 782.779 683.786 783.813 683.742 784.253C684.014 781.536 683.728 778.874 682.708 776.336C682.36 775.47 681.984 774.615 681.611 773.759C681.567 773.66 681.014 772.394 681.295 773.096Z" fill="#E96A98"/>
<path d="M574.282 780.293C577.104 784.927 583.266 785.634 588.215 785.993C595.481 786.52 602.639 788.296 609.806 789.565C616.387 790.73 623.152 789.953 629.594 791.065C635.03 792.002 640.61 793.433 645.951 794.96C654.483 797.399 665.695 801.224 674.108 798.579C680.314 796.628 685.559 792.421 689.972 787.821C692.177 785.523 694.044 784.708 692.771 781.845C690.73 777.253 684.303 775.39 679.814 775.647C671.243 776.138 662.885 780.315 654.245 781.248C646.132 782.124 638.12 782.393 629.973 782.595C623.096 782.765 616.305 782.842 609.558 782.704C600.138 782.511 590.567 782.043 581.243 781.083C579.133 780.866 575.409 781.094 574.12 780.698L574.282 780.293Z" fill="#F05681"/>
<path d="M676.753 797.844C675.898 798.211 675.04 798.529 674.178 798.8C666.508 801.212 656.481 798.277 648.422 795.919C647.556 795.665 646.709 795.418 645.888 795.183C639.43 793.337 634.241 792.101 629.556 791.293C626.394 790.748 623.081 790.658 619.877 790.571C616.554 790.48 613.117 790.387 609.766 789.794C607.714 789.43 605.628 789.018 603.61 788.62C598.577 787.627 593.372 786.6 588.2 786.224C583.09 785.854 577.438 785.107 574.487 781.02C574.324 780.992 574.179 780.959 574.053 780.92L574.167 780.547C574.139 780.503 574.112 780.459 574.085 780.414L574.481 780.173C574.568 780.317 574.659 780.457 574.752 780.593C575.583 780.707 576.843 780.722 578.07 780.736C579.206 780.749 580.38 780.762 581.268 780.854C589.755 781.727 599.01 782.256 609.564 782.473C615.54 782.596 622.024 782.561 629.969 782.364C637.715 782.172 645.969 781.91 654.221 781.019C658.263 780.582 662.314 779.412 666.232 778.28C670.658 777.001 675.235 775.678 679.803 775.417C684.702 775.136 690.987 777.261 692.984 781.752C694.083 784.225 692.926 785.316 691.325 786.825C690.945 787.183 690.553 787.554 690.141 787.982C685.637 792.675 681.233 795.923 676.753 797.844ZM575.13 781.101C578.039 784.719 583.382 785.411 588.232 785.762C593.433 786.139 598.652 787.169 603.699 788.166C605.715 788.564 607.798 788.975 609.846 789.338C613.164 789.925 616.582 790.018 619.89 790.108C623.109 790.196 626.439 790.286 629.634 790.838C634.336 791.649 639.541 792.888 646.015 794.738C646.837 794.973 647.684 795.221 648.552 795.475C656.55 797.815 666.503 800.728 674.039 798.36C679.342 796.692 684.499 793.193 689.806 787.662C690.226 787.225 690.641 786.833 691.007 786.489C692.632 784.957 693.527 784.113 692.561 781.94C690.648 777.639 684.573 775.608 679.828 775.879C675.313 776.138 670.761 777.453 666.36 778.724C662.423 779.862 658.352 781.038 654.27 781.479C646.001 782.372 637.736 782.635 629.98 782.827C622.028 783.024 615.537 783.059 609.554 782.936C598.988 782.72 589.72 782.19 581.22 781.315C580.353 781.225 579.189 781.212 578.064 781.199C576.983 781.186 575.942 781.174 575.13 781.101Z" fill="#F493B2"/>
<path d="M692.11 774.409C694.485 768.169 702.082 777.232 702.045 780.847C701.986 786.58 695.465 787.884 690.776 786.563L692.11 774.409Z" fill="#F493B2"/>
<path d="M681.01 788.737C680.198 784.11 681.718 779.455 681.124 774.856C680.783 772.223 678.541 769.073 681.051 766.779C684.79 763.36 691.713 769.687 693.417 772.854C696.126 777.887 697.327 785.691 693.426 790.461C689.274 795.538 682.243 795.765 681.01 788.737Z" fill="#F493B2"/>
<path d="M700.254 776.96C702.794 776.235 705.109 777.758 705.132 780.321C703.301 782.304 697.226 782.912 699.1 778.965L700.254 776.96Z" fill="#F493B2"/>
<path d="M695.614 773.579C695.954 772.101 697.335 771.256 698.809 770.933C698.333 772.176 697.302 773.287 697.073 774.631L695.614 773.579Z" fill="#F493B2"/>
<path d="M703.029 779.126C702.507 778.499 702.593 777.354 703.209 776.397C704.139 777.423 704.186 778.794 704.487 780.179L703.029 779.126Z" fill="#F493B2"/>
<path d="M684.006 766.471C688.083 767.588 687.631 777.297 688.036 780.521C688.533 784.473 690.012 791.035 685.473 793.3C685.626 788.487 684.938 783.459 684.591 778.641C684.365 775.497 682.487 769.205 683.809 766.598C684.157 766.563 684.157 766.833 684.533 766.916L684.006 766.471Z" fill="#E96A98"/>
<path d="M647.747 763.727C641.371 769.953 637.008 774.376 628.574 777.991C619.399 781.924 610.453 782.28 600.595 781.442C591.428 780.663 580.059 777.487 571 779.596C578.176 783.998 590.64 783.926 598.895 784.554C610.888 785.466 622.942 788.056 634.72 789.973C643.393 791.384 650.872 793.971 659.058 797.146C666.909 800.19 676.737 804.249 683.42 796.417C689.545 789.238 687.901 776.106 684.028 768.42C677.088 754.653 658.032 753.685 647.747 763.727Z" fill="#F493B2"/>
<path d="M593.119 780.136C591.406 780.808 589.981 777.699 588.902 775.965C592.375 775.75 594.622 780.586 596.341 781.776L593.119 780.136Z" fill="#F493B2"/>
<path d="M608.638 783.688C607.713 782.092 605.967 780.441 606.134 778.435C608.433 779.319 610.231 782.138 611.798 784.011L608.638 783.688Z" fill="#F493B2"/>
<path d="M626.706 781.982C625.958 780.249 624.936 777.984 623.78 776.608C625.418 774.117 631.313 779.326 632.579 780.805L626.706 781.982Z" fill="#F493B2"/>
<path d="M643.352 769.135C643.796 768.578 641.837 764.95 641.3 763.411C643.389 764.13 645.255 767.022 647.363 766.744L643.352 769.135Z" fill="#F493B2"/>
<path d="M654.654 760.261C654.589 757.979 654.556 755.33 655.187 753.091C656.732 754.352 658.227 760.083 659.11 759.692L654.654 760.261Z" fill="#F493B2"/>
<path d="M672.843 761.187C673.102 759.048 678.307 755.846 680.317 754.365C683.261 752.196 686.531 750.186 689.929 748.817C685.716 753.129 679.58 759.293 677.058 764.751L672.843 761.187Z" fill="#F493B2"/>
<path d="M627.517 787.004C627.742 788.81 626.708 792.27 626.814 794.64C628.051 793.187 629.955 789.025 631.285 788.745L627.517 787.004Z" fill="#F493B2"/>
<path d="M640.36 789.554C640.231 791.662 640.615 795.669 640.51 798.419C641.792 796.38 642.594 793.084 644.655 791.74L640.36 789.554Z" fill="#F493B2"/>
<path d="M653.648 791.577C653.478 793.837 653.371 799 655.27 800.834C655.503 798.827 656.488 795.082 658.47 794.209L653.648 791.577Z" fill="#F493B2"/>
<path d="M687.51 767.99C687.704 767.015 688.346 766.13 689.157 765.665C688.933 767.228 689.118 768.989 689.293 770.582L687.51 767.99Z" fill="#F493B2"/>
<path d="M690.231 792.336C691.153 793.126 691.88 794.027 692.766 794.915C693.209 793.533 692.582 791.815 693.107 790.432L690.231 792.336Z" fill="#F493B2"/>
<path d="M698.373 785.488C698.682 786.44 699.412 787.618 699.775 788.796C700.073 787.514 700.295 786.204 700.479 784.92L698.373 785.488Z" fill="#F493B2"/>
<path d="M676.621 798.174C676.512 799.444 677.473 801.079 678.661 801.972C679.182 800.487 678.743 798.524 679.862 797.12L676.621 798.174Z" fill="#F493B2"/>
<path d="M694.157 774.875C695.11 777.568 696.13 781.868 695.399 784.697C697.562 780.732 696.805 775.784 693.67 773.74L694.157 774.875Z" fill="#E96A98"/>
<path d="M653.774 767.603C654.36 768.022 654.705 768.675 655.157 769.221C655.431 769.552 655.763 769.802 656.149 769.987C656.42 770.118 656.493 770.187 656.637 769.901C656.757 769.666 656.906 769.584 656.854 769.304C656.717 768.561 656.078 767.913 655.942 767.177C655.979 767.376 655.945 767.44 655.837 767.609C655.687 767.844 655.723 768.018 655.421 767.931C655.005 767.811 654.66 767.527 654.363 767.226C653.82 766.674 653.505 765.936 652.863 765.477C653.055 765.614 653.217 766.333 653.308 766.545C653.405 766.771 653.563 767.451 653.774 767.603Z" fill="#E96A98"/>
<path d="M658.163 766.892C658.565 767.781 659.136 768.54 660.054 768.938C660.032 768.929 659.926 768.62 659.928 768.624C659.823 768.372 659.716 768.121 659.608 767.871C659.501 767.62 659.393 767.369 659.283 767.12C659.278 767.109 659.179 766.828 659.141 766.812C658.357 766.471 657.738 765.829 657.386 765.051C657.21 764.662 657.511 765.382 657.535 765.438C657.74 765.925 657.945 766.411 658.163 766.892Z" fill="#E96A98"/>
<path d="M661.693 764.963C661.733 765.058 661.774 765.152 661.814 765.247C661.838 765.302 662.268 766.311 662.281 766.305C662.293 766.3 661.859 765.293 661.835 765.237C661.795 765.143 661.754 765.049 661.714 764.954C661.69 764.899 661.259 763.89 661.247 763.895C661.235 763.9 661.669 764.907 661.693 764.963Z" fill="#E96A98"/>
<path d="M932.45 829.578C928.608 830.715 928.155 831.755 930.202 835.37C931.835 838.253 934.162 839.925 936.854 841.763C939.383 843.491 945.341 845.272 946.963 847.783C948.896 850.776 946.272 852.211 949.902 854.928C952.277 856.707 953.878 857.099 956.721 856.533C962.973 855.29 964.834 857.864 970.527 860.21C973.509 861.439 974.938 861.045 977.918 860.303C981.356 859.447 983.524 859.798 987.043 860.546C991.856 861.57 998.974 860.97 1003.1 857.441C1004.86 855.942 1006.4 853.229 1008.24 851.403C1010.61 849.053 1010.67 847.961 1007.91 845.374C1005.37 842.993 1001.87 842.383 998.896 840.737C993.805 837.917 989.023 835.374 983.64 833.011C976.056 829.682 967.96 827.489 959.753 826.379C950.789 825.165 941.027 827.038 932.45 829.578Z" fill="#FAB27B"/>
<path d="M939.263 832.583C940.369 836.033 939.669 838.79 942.904 841.15C945.825 843.281 944.887 846.622 946.111 849.725C947.219 852.533 949.974 854.341 952.745 855.3C954.333 855.85 955.961 856.287 957.319 855.122C958.8 853.852 959.376 851.365 960.897 849.934C963.398 847.581 967.389 848.086 968.828 851.426C969.983 854.108 968.936 859.133 971.549 861.13C975.777 864.363 980.624 856.592 984.46 856.562C987.717 856.538 990.802 859.896 994.104 859.363C999.07 858.561 1002.19 850.121 1005.46 846.72C1007.75 844.336 1008 842.095 1006.53 839.134C1003.81 833.656 998.976 828.733 995.015 824.122C989.514 817.717 981.464 807.482 971.989 808.367C961.567 809.34 952.011 817.343 945.19 824.716C943.914 826.096 939.262 830.253 939.691 832.154L939.263 832.583Z" fill="#CFCECE"/>
<path d="M970.322 803.45C967.405 799.181 961.671 802.243 958.119 804.297C951.935 807.87 946.336 812.78 941.174 817.641C938.169 820.471 938.241 823.345 938.62 827.227C938.948 830.591 939.411 835.115 940.8 838.114C944.647 837.947 946.463 839.975 947.67 843.502C948.826 846.88 947.699 850.843 949.592 853.95C952.244 858.302 958.331 858.244 960.099 853.157C961.311 849.668 961.443 843.661 966.895 845.916C971.336 847.753 971.412 852.378 969.894 856.145C968.127 860.526 969.571 862.456 974.402 862.951C979.416 863.465 979.561 859.645 981.396 856.145C983.472 852.183 987.951 851.498 990.617 855.294C991.528 856.59 991.242 858.692 993.023 859.149C994.568 859.545 996.024 858.031 997.039 857.157C998.464 855.928 999.415 854.413 1000.73 853.141C1001.79 852.126 1003.25 851.647 1004.01 850.415C1004.93 848.908 1003.89 847.595 1004.43 845.911C1005.09 843.849 1007.53 842.447 1009.09 841.103C1010.49 839.893 1012.63 838.546 1011.82 836.695C1011.03 834.869 1007.66 832.987 1006.36 831.303C1000.63 823.911 995.248 816.47 989.445 809.191C987.668 806.963 987.908 804.746 984.674 804.522C981.649 804.312 980.144 806.756 977.627 806.845C978.417 805.203 979.444 801.399 977.181 800.28C975.644 799.52 974.128 800.462 972.834 801.249C972.637 801.369 969.465 803.023 969.465 803.023L970.322 803.45Z" fill="#DEDDDD"/>
<path d="M981.252 815.012C981.083 813.204 979.108 804.59 976.96 808.948C975.916 811.066 977.066 814.515 977.178 816.732C977.36 820.339 976.88 823.869 976.702 827.441C976.346 834.569 975.029 841.291 973.275 848.005C972.409 851.32 970.966 854.527 970.799 857.905C970.677 860.362 971.196 860.676 973.322 860.846C975.09 860.987 977.238 861.244 978.419 859.785C979.564 858.372 979.679 855.431 980.009 853.746C980.714 850.146 981.873 846.564 982.318 842.91C982.951 837.727 981.968 832.637 981.724 827.51C981.523 823.313 981.638 819.151 981.252 815.012Z" fill="#CFCECE"/>
<path d="M968.764 808.806C966.723 813.061 964.402 818.443 963.248 822.991C962.326 826.624 962.083 830.395 961.373 833.915C960.974 835.893 958.4 841.877 960.047 843.318C962.991 841.401 965.13 839.637 968.61 841.846C970.276 842.903 970.732 844.138 972.192 842.44C973.249 841.211 973.309 839.197 973.531 837.718C973.786 836.012 973.481 834.373 973.536 832.582C973.615 829.982 974.353 827.485 974.618 824.923C975.1 820.27 974.96 815.653 975.244 810.947C975.392 808.511 977.73 805.455 976.949 802.963C975.502 798.346 969.628 807.007 968.764 808.806Z" fill="white"/>
<path d="M958.541 837.724C959.507 833.175 962.818 829.592 967.538 829.37C972.375 829.142 973.722 832.847 976.063 836.208C976.408 830.939 973.304 826.375 967.543 826.371C961.668 826.368 957.977 832.027 958.541 837.51V837.724Z" fill="#CFCECE"/>
<path d="M959.827 842.007C958.867 837.975 965.108 835.869 968.186 836.433C972.069 837.144 975.4 839.782 975.261 844.085C974.039 840.5 970.61 839.65 967.276 839.271C965.566 839.076 958.938 839.187 959.827 842.222V842.007Z" fill="#CFCECE"/>
<path d="M989.648 839.27C989.752 841.469 991.287 848.291 989.867 850.199C988.995 851.37 984.815 850.755 983.503 850.658C981.507 850.512 981.558 850.668 982.157 848.538C983.704 843.046 983.694 838.134 983.436 832.351C983.297 829.222 983.423 826.084 983.222 822.958C982.953 818.784 983.85 814.708 982.898 810.538C982.608 809.267 981.887 808.301 983.004 807.256C984 806.323 985.569 806.719 986.521 807.447C989.819 809.968 989.135 816.992 989.348 820.632C989.712 826.839 989.354 833.061 989.648 839.27Z" fill="white"/>
<path d="M962.396 824.228C962.66 822.211 968.143 820.801 970.155 820.749C973.487 820.661 975.009 822.719 975.687 825.652C975.615 821.376 975.22 818.916 970.321 818.659C967.324 818.502 961.605 820.774 962.396 824.443L962.396 824.228Z" fill="#CFCECE"/>
<path d="M964.967 816.089C967.203 812.532 974.956 815.361 975.462 818.691C975.443 815.425 974.419 813.429 970.964 813.091C968.767 812.876 964.882 814.061 964.324 816.518L964.967 816.089Z" fill="#CFCECE"/>
<path d="M963.097 807.301C964.073 805.779 965.488 804.479 966.38 802.963C964.123 802.358 960.97 804.796 959.445 806.278C956.873 808.779 954.612 812.02 952.389 814.839C948.408 819.888 945.418 825.692 943.387 831.783C942.458 834.571 944.1 835.848 945.957 838.093C946.977 839.325 948.759 842.123 950.365 842.184C951.586 839.514 951.243 835.154 951.848 832.159C952.957 826.676 954.757 820.393 957.732 815.603C959.498 812.759 961.337 810.046 963.097 807.301Z" fill="white"/>
<path d="M942.047 832.796C941.883 832.739 942.018 832.412 941.65 832.635C941.57 832.724 941.572 832.73 941.657 832.651C944.603 829.359 948.504 829.919 950.192 834.034C951.411 837.008 949.499 842.273 952.297 844.116C950.117 840.724 952.764 835.143 951.001 831.505C948.821 827.008 944.02 828.761 942.046 832.367L942.047 832.796Z" fill="#CFCECE"/>
<path d="M943.975 826.585C944.719 824.668 949.378 818.093 952.386 820.314C955.393 822.534 954.235 830.357 954.267 833.578C953.008 830.457 954.601 826.033 951.959 823.324C949.788 821.098 943.855 824.322 944.189 826.585L943.975 826.585Z" fill="#CFCECE"/>
<path d="M982.318 818.873C984.376 814.012 990.045 815.921 990.73 820.559C990.815 820.633 990.818 820.63 990.742 820.548C988.558 818.567 984.758 817.028 982.533 819.516L982.318 818.873Z" fill="#CFCECE"/>
<path d="M982.318 828.727C983.545 824.031 989.99 823.533 991.326 828.437C990.799 822.216 983.9 822.626 982.747 828.513L982.318 828.727Z" fill="#CFCECE"/>
<path d="M982.746 839.008C982.528 835.999 985.896 833.521 988.744 833.867C991.643 834.219 992.282 836.97 993.051 839.35C992.005 837.566 989.705 836.532 987.674 836.438C985.162 836.321 984.489 837.707 982.553 838.836C982.603 839.044 982.711 839.219 982.746 839.437V839.008Z" fill="#CFCECE"/>
<path d="M980.818 848.647C981.688 845.586 985.843 842.571 989.173 843.072C991.927 843.487 993.634 846.405 994.532 848.245C993.392 844.71 993.421 841.33 988.53 841.578C984.352 841.79 982.188 844.824 981.247 848.432L980.818 848.647Z" fill="#CFCECE"/>
<path d="M999.24 844.363C999.338 842.274 1000.65 840.019 1002.46 838.784C1003.26 838.232 1006.95 837.088 1004.17 836.214C1000.9 835.19 997.822 842.535 999.025 844.578L999.24 844.363Z" fill="#CFCECE"/>
<path d="M996.883 836.866C995.053 834.703 1001.14 831.46 1003.44 833.245C1003.49 832.079 1002.5 830.707 1001.39 830.881C998.173 829.572 996.933 834.041 997.097 836.438L996.883 836.866Z" fill="#CFCECE"/>
<path d="M993.671 852.931C993.482 856.488 997.153 855.916 998.973 853.839C1001.43 851.04 999.515 846.17 998.662 843.244C997.427 839.006 997.472 834.684 996.409 830.44C995.133 825.346 994.892 816.677 990.715 813.111C990.304 817.144 990.957 821.093 991.1 825.239C991.236 829.167 990.983 833.481 991.737 837.289C992.43 840.791 993.151 844.076 993.671 847.571C993.942 849.392 993.768 851.119 993.671 852.931Z" fill="#CFCECE"/>
<path d="M968.609 804.95C964.227 807.937 960.959 813.642 958.595 818.438C956.372 822.948 954.025 827.362 953.02 832.367C952.313 835.89 948.07 852.936 953.824 854.007C958.816 854.936 958.02 842.449 958.321 839.856C959.016 833.874 960.039 827.829 961.802 822.05C962.852 818.608 964.147 815.495 965.878 812.454C966.529 811.31 970.497 804.26 968.609 804.308V804.95Z" fill="#CFCECE"/>
<path d="M643.342 669.492C626.016 664.512 607.627 662.265 592.026 653.394C578.212 645.54 559.272 633.847 573.625 615.784C585.41 600.953 627.766 596.972 645.322 594.012C660.069 591.526 707.252 578.924 702.706 608.595C701.499 616.469 693.29 628.292 690.056 635.441C680.485 656.555 668.099 676.608 643.342 669.492Z" fill="#00846A"/>
<path d="M822.546 707.565C804.376 705.209 785.991 702.858 767.358 698.601C749.305 694.476 731.475 688.28 713.505 683.27C700.631 679.681 680.546 672.71 677.765 657.275C674.549 639.421 682.986 616.769 693.172 602.278C706.601 583.173 723.574 576.048 746.911 574.127C776.577 571.686 809.367 580.213 831.922 600.226C844.074 611.01 854.178 627.103 859.974 642.173C865.11 655.525 859.251 680.447 854.496 693.616C848.799 709.396 837.714 709.532 822.546 707.565Z" fill="#27397E"/>
<path d="M912.962 716.516C897.948 716.112 872.604 719.22 863.362 705.34C854.419 691.909 850.51 673.859 841.253 659.888C830.244 643.273 814.489 617.74 816.667 596.655C819.08 573.29 841.903 594.239 851.183 602.57C868.348 617.979 886.738 633.298 902.681 650.071C915.36 663.409 926.717 676.534 941.083 688.392C945.861 692.336 960.64 701.965 958.734 709.811C955.814 721.827 921.919 716.757 912.962 716.516Z" fill="#D93032"/>
<path d="M727.598 829.676C727.142 831.901 728.765 834.112 731.223 834.616C733.681 835.12 736.043 833.724 736.499 831.5L796.255 543.381C796.711 541.156 795.088 538.944 792.63 538.441C790.172 537.937 787.81 539.333 787.354 541.557L727.598 829.676Z" fill="#5D5E5E"/>
<path d="M783.328 538.203C786.802 534.917 789.966 518.044 797.607 522.858C803.087 526.311 795.533 538.958 802.953 544.594L783.328 538.203Z" fill="#5D5E5E"/>
<path d="M560.049 606.18L663.96 625.606C686.38 582.396 728.667 543.845 776.467 535.804C749.748 532.427 722.493 534.653 696.065 540.863C648.623 552.01 594.381 569.51 560.049 606.18Z" fill="#FFCC88"/>
<path d="M809.727 543.139C798.802 539.624 787.681 537.223 776.466 535.805C728.666 543.846 686.378 582.397 663.959 625.607L870.939 664.301C866.994 618.396 845.225 571.839 809.727 543.139Z" fill="#6A88B4"/>
<path d="M931.418 617.058C898.591 584.652 853.887 557.423 810.002 543.224C809.911 543.194 809.819 543.168 809.727 543.139C845.224 571.839 866.994 618.397 870.939 664.302L978.712 684.45C967.329 659.943 950.618 636.012 931.418 617.058Z" fill="#94C7D3"/>
<path d="M870.562 663.394C868.807 673.396 867.696 678.25 860.805 685.879C856.786 690.329 855.711 691.594 850.169 690.354C845.437 689.295 840.966 688.236 836.404 686.681C812.44 678.512 785.621 676.54 761.733 668.752C744.32 663.075 723.542 658.404 705.006 656.917C696.05 656.199 686.174 658.374 677.908 653.616C672.104 650.275 665.778 643.35 663.607 636.799C660.9 628.63 663.979 623.524 671.376 619.856C676.474 617.328 681.917 615.492 687.583 614.819C704.734 612.782 722.919 612.766 740.175 611.831L870.562 663.394Z" fill="#6A88B4"/>
<path d="M870.563 663.394C870.497 681.046 873.568 695.658 895.256 699.534C916.367 703.306 938.423 703.559 957.688 711.715C962.194 713.623 964.302 715.82 968.485 712.617C971.262 710.491 974.805 704.98 976.198 701.913C977.686 698.637 979.59 691.774 979.265 687.98C978.798 682.53 971.072 679.179 965.336 678.599L870.563 663.394Z" fill="#94C7D3"/>
<path d="M663.826 625.877C659.722 632.064 661.884 645.38 652.384 647.931C648.382 649.005 642.769 647.202 638.652 647.309C633.587 647.44 629.059 646.5 623.918 645.83C613.223 644.437 603.684 641.575 593.467 638.688C583.787 635.953 572.261 634.189 563.289 629.851C557.17 626.893 556.401 619.794 557.326 613.763C558.655 605.098 563.412 606.062 569.993 602.189L663.826 625.877Z" fill="#FFCC88"/>
<path d="M792.713 552.464C792.598 552.597 792.484 552.733 792.371 552.873C785.608 561.18 787.157 576.394 781.626 585.797C775.215 596.696 763.084 607.051 762.017 620.342C759.867 647.148 793.674 644.309 810.614 646.96C827.127 649.544 854.057 661.874 855.02 634.348C855.655 616.188 843.46 597.357 835.444 581.887C833.101 578.531 830.609 575.223 828.069 571.961C825.529 568.699 822.941 565.483 820.355 562.304C814.324 552.502 801.958 541.742 792.713 552.464Z" fill="#7E9BC5"/>
<path d="M912.191 604.1C920.861 612.922 928.288 622.039 932.603 627.17C940.542 636.608 954.47 654.534 955.782 666.765C957.483 682.625 943.808 683.164 932.574 676.487C912.807 664.738 915.357 653.862 906.571 634.607C901.896 624.362 894.717 614.551 886.335 607.052C882.84 603.926 857.519 585.043 869.693 581.215C882.161 577.328 898.684 590.355 912.191 604.1Z" fill="#B2E1EB"/>
<path d="M709.746 556.47C700.077 562.847 688.521 570.253 680.173 578.003C668.004 589.301 661.71 609.592 647.164 617.417C632.99 625.042 612.171 610.627 623.379 595.576C632.304 583.589 650.359 574.067 662.712 565.972C674.927 557.968 688.435 550.033 702.232 544.774C706.473 543.158 717.232 537.997 721.778 541.244C731.483 548.177 714.833 553.116 709.746 556.47Z" fill="#FFDFB4"/>
<path d="M844.687 814.984C846.882 816.118 848.469 813.315 846.408 812.081C845.35 811.448 843.148 811.844 841.942 811.651C839.047 811.189 834.812 810.704 832.331 808.906C826.006 804.322 834.747 792.17 839.355 797.742C840.071 798.608 840.592 799.62 841.335 800.438C839.258 800.765 835.134 803.791 838.212 805.383C840.864 806.754 844.701 805.833 847.628 806.798C850.389 807.708 852.912 809.906 853.27 812.871C853.572 815.371 851.275 819.365 848.952 820.424C847.789 820.955 846.449 820.715 845.31 821.036C845.313 819.339 844.828 817.695 844.884 815.964L844.687 814.984Z" fill="#333333"/>
<path d="M792.146 813.415C787.904 814.052 789.854 807.967 791.352 806.113C793.335 803.659 798.487 800.95 796.41 797.143C795.382 795.26 790.892 793.41 788.824 794.178C787.313 794.74 785.444 799.212 786.658 800.3C788.091 799.877 792.108 798.296 791.519 801.021C791.278 802.141 789.628 803.674 788.966 804.583C787.757 806.242 786.437 807.831 785.285 809.549C783.78 811.793 781.549 815.237 784.309 817.188C785.762 818.215 789.166 819.581 790.578 817.924L792.146 813.415Z" fill="#333333"/>
<path d="M815.285 829.289C818.166 828.597 821.272 830.9 824.107 830.083C828.709 828.758 819.556 818.696 814.937 821.109C812.789 822.232 806.23 826.486 808.326 829.702C809.718 831.84 813.441 829.732 815.285 829.289Z" fill="#65C2EE"/>
<path d="M843.315 827.727C845.339 822.941 844.971 812.239 841.909 808.024C838.184 802.895 832.495 803.318 826.626 803.318C819.591 803.318 812.304 802.774 805.38 803.009C800.596 803.172 795.537 806.291 793.831 810.966C792.439 814.78 790.375 821.632 792.148 825.358C794.046 829.348 799.374 832.073 803.688 831.033C807.699 830.066 810.218 826.062 813.241 823.536C817.75 819.768 820.1 824.352 823.899 827.212C828.635 830.776 840.075 834.739 843.61 827.433L843.315 827.727Z" fill="#596EB4"/>
<path d="M797.097 826.121C799.955 828.603 802.931 826.804 805.526 824.787C808.203 822.706 810.979 820.367 814.3 819.505C821.031 817.756 824.903 825.161 830.568 827.488C833.4 828.651 837.748 829.933 840.14 827.326C842.691 824.546 841.977 819.87 841.355 816.542C840.657 812.809 839.801 808.548 836.196 806.56C833.943 805.318 830.969 805.323 828.465 805.182C822.177 804.828 815.883 805.516 809.584 805.237C804.281 805.003 799.012 805.449 796.353 810.752C794.12 815.208 792.868 822.447 797.097 826.121Z" fill="#A7BAD1"/>
<path d="M795.87 816.748C795.97 818.419 795.991 820.055 797.635 820.124C799.516 820.204 800.299 818.395 801.011 816.988C801.949 815.134 802.783 813.28 804.301 811.836C805.119 811.057 807.258 809.905 807.687 808.917C809.306 805.188 803.515 806.371 801.696 806.936C797.837 808.134 795.637 812.838 795.87 816.748Z" fill="#A1DDF9"/>
<path d="M843.717 820.473C843.381 818.748 842.937 816.199 843.717 814.544C844.424 813.042 845.524 812.423 846.103 814.395C846.64 816.227 847.074 818.969 846.452 820.875C845.603 823.479 844.167 822.78 843.717 820.473Z" fill="#F78F23"/>
<path d="M789.498 819.116C789.643 817.364 789.909 814.791 791.108 813.409C792.196 812.156 793.424 811.859 793.445 813.914C793.464 815.822 793.137 818.58 792.021 820.245C790.496 822.521 789.304 821.459 789.498 819.116Z" fill="#F78F23"/>
</g>
<defs>
<filter id="filter0_d_1331_384" x="222.72" y="637.673" width="101.349" height="136.498" filterUnits="userSpaceOnUse" color-interpolation-filters="sRGB">
<feFlood flood-opacity="0" result="BackgroundImageFix"/>
<feColorMatrix in="SourceAlpha" type="matrix" values="0 0 0 0 0 0 0 0 0 0 0 0 0 0 0 0 0 0 127 0" result="hardAlpha"/>
<feOffset/>
<feGaussianBlur stdDeviation="2"/>
<feComposite in2="hardAlpha" operator="out"/>
<feColorMatrix type="matrix" values="0 0 0 0 0 0 0 0 0 0 0 0 0 0 0 0 0 0 0.25 0"/>
<feBlend mode="normal" in2="BackgroundImageFix" result="effect1_dropShadow_1331_384"/>
<feBlend mode="normal" in="SourceGraphic" in2="effect1_dropShadow_1331_384" result="shape"/>
</filter>
<filter id="filter1_d_1331_384" x="270.709" y="616.538" width="221.22" height="274.727" filterUnits="userSpaceOnUse" color-interpolation-filters="sRGB">
<feFlood flood-opacity="0" result="BackgroundImageFix"/>
<feColorMatrix in="SourceAlpha" type="matrix" values="0 0 0 0 0 0 0 0 0 0 0 0 0 0 0 0 0 0 127 0" result="hardAlpha"/>
<feOffset dy="4"/>
<feGaussianBlur stdDeviation="2"/>
<feComposite in2="hardAlpha" operator="out"/>
<feColorMatrix type="matrix" values="0 0 0 0 0 0 0 0 0 0 0 0 0 0 0 0 0 0 0.25 0"/>
<feBlend mode="normal" in2="BackgroundImageFix" result="effect1_dropShadow_1331_384"/>
<feBlend mode="normal" in="SourceGraphic" in2="effect1_dropShadow_1331_384" result="shape"/>
</filter>
<filter id="filter2_d_1331_384" x="411.522" y="746.07" width="71.4019" height="83.4297" filterUnits="userSpaceOnUse" color-interpolation-filters="sRGB">
<feFlood flood-opacity="0" result="BackgroundImageFix"/>
<feColorMatrix in="SourceAlpha" type="matrix" values="0 0 0 0 0 0 0 0 0 0 0 0 0 0 0 0 0 0 127 0" result="hardAlpha"/>
<feOffset dx="-1" dy="3"/>
<feGaussianBlur stdDeviation="1.75"/>
<feComposite in2="hardAlpha" operator="out"/>
<feColorMatrix type="matrix" values="0 0 0 0 0 0 0 0 0 0 0 0 0 0 0 0 0 0 0.25 0"/>
<feBlend mode="normal" in2="BackgroundImageFix" result="effect1_dropShadow_1331_384"/>
<feBlend mode="normal" in="SourceGraphic" in2="effect1_dropShadow_1331_384" result="shape"/>
</filter>
<linearGradient id="paint0_linear_1331_384" x1="298.692" y1="649.772" x2="298.692" y2="675.336" gradientUnits="userSpaceOnUse">
<stop stop-color="#6D211A"/>
<stop offset="1" stop-color="#DA8F88"/>
</linearGradient>
<linearGradient id="paint1_linear_1331_384" x1="480.417" y1="667.821" x2="480.417" y2="693.385" gradientUnits="userSpaceOnUse">
<stop stop-color="#6D211A"/>
<stop offset="1" stop-color="#D1867F"/>
</linearGradient>
<linearGradient id="paint2_linear_1331_384" x1="486.206" y1="635.74" x2="313.964" y2="635.74" gradientUnits="userSpaceOnUse">
<stop stop-color="#F7A4A5"/>
<stop offset="0.22" stop-color="#F7A4A5"/>
<stop offset="0.25" stop-color="#F37680"/>
<stop offset="0.47" stop-color="#F37680"/>
<stop offset="0.5" stop-color="#F7A4A5"/>
<stop offset="0.72" stop-color="#F7A4A5"/>
<stop offset="0.75" stop-color="#F37680"/>
<stop offset="1" stop-color="#F37680"/>
</linearGradient>
<linearGradient id="paint3_linear_1331_384" x1="381.364" y1="712.933" x2="381.364" y2="737.195" gradientUnits="userSpaceOnUse">
<stop stop-color="#856364"/>
<stop offset="0.2" stop-color="#856364"/>
<stop offset="0.28" stop-color="#DA8F88"/>
<stop offset="0.5" stop-color="#DA8F88"/>
<stop offset="0.75" stop-color="#E85F5C"/>
<stop offset="1" stop-color="#E85F5C"/>
</linearGradient>
<clipPath id="clip0_1331_384">
<rect width="1080" height="1080" fill="white"/>
</clipPath>
</defs>
</svg>
