<svg width="468" height="276" viewBox="0 0 468 276" fill="none" xmlns="http://www.w3.org/2000/svg">
<g filter="url(#filter0_d_2381_237)">
<rect x="4" y="3" width="222" height="267.112" rx="10" fill="#FAFCFE"/>
</g>
<path d="M172.953 161.18C169.553 164.336 166.335 166.37 163.793 167.978C133.913 186.875 98.5574 181.367 91.0433 180.022C79.9473 178.035 58.4989 174.195 42.9922 158.122C19.5317 133.804 23.1848 95.4909 41.3824 70.2002C44.711 65.5742 62.2937 39.8982 98.0304 35.7806C119.658 33.2887 147.37 26.7176 172.953 46.1489C224.026 84.9411 198.72 137.269 172.953 161.18Z" fill="#E7EDFD"/>
<path d="M168.513 185.127C168.513 188.16 144.683 190.618 115.287 190.618C85.8914 190.618 62.0615 188.16 62.0615 185.127C62.0615 182.093 85.8914 179.635 115.287 179.635C144.683 179.635 168.513 182.093 168.513 185.127Z" fill="#A0B1C6"/>
<path d="M119.463 64.3364H111.208V70.0254H119.463V64.3364Z" fill="#4D6995"/>
<path d="M124.412 66.1367H106.815C105.668 66.1367 104.737 65.2068 104.737 64.0593V60.2785C104.737 59.1313 105.668 58.201 106.815 58.201H124.412C125.56 58.201 126.49 59.1309 126.49 60.2785V64.0597C126.49 65.2064 125.56 66.1367 124.412 66.1367Z" fill="#ADD0E0"/>
<path d="M82.7465 85.8142L82.6467 85.8869C82.1519 86.248 81.4576 86.1397 81.0964 85.6449L64.1572 62.4318C63.7961 61.9366 63.9043 61.2426 64.3991 60.8811L64.4989 60.8084C64.9937 60.4473 65.6881 60.5555 66.0492 61.0508L82.9885 84.2639C83.35 84.7587 83.2417 85.4531 82.7465 85.8142Z" fill="#4D6995"/>
<path d="M92.1616 65.8929L60.6671 88.8754C57.9167 85.1063 56.953 80.5802 57.6235 76.3062C58.1353 73.0138 59.6209 69.8704 62.0025 67.3446C62.7074 66.5884 63.495 65.8929 64.3594 65.2623L68.5478 62.2062C76.0888 56.7034 86.6613 58.3551 92.1616 65.8929Z" fill="#FFB5B0"/>
<path d="M92.1616 65.8927L88.0363 68.9028C86.011 67.0217 82.8579 65.0788 78.0628 64.17C71.837 62.9905 65.9102 65.2275 62.0029 67.3441C62.7078 66.5879 63.4955 65.8923 64.3599 65.2618L68.5482 62.2056C76.0888 56.7033 86.6613 58.355 92.1616 65.8927Z" fill="#D3755F"/>
<path d="M149.434 86.6532L149.533 86.7259C150.028 87.087 150.723 86.9787 151.084 86.4835L168.023 63.2704C168.384 62.7756 168.276 62.0812 167.781 61.7201L167.681 61.6474C167.186 61.2863 166.492 61.3949 166.13 61.8898L149.191 85.1029C148.83 85.5981 148.939 86.2921 149.434 86.6532Z" fill="#4D6995"/>
<path d="M140.019 66.7317L171.513 89.7142C174.263 85.9455 175.227 81.4191 174.556 77.1451C174.045 73.8522 172.559 70.7093 170.177 68.1835C169.472 67.4273 168.685 66.7317 167.82 66.1012L163.632 63.0451C156.091 57.5423 145.519 59.194 140.019 66.7317Z" fill="#FFB5B0"/>
<path d="M140.019 66.7319L144.144 69.7424C146.169 67.8613 149.322 65.9184 154.118 65.0099C160.344 63.8305 166.27 66.0674 170.178 68.184C169.473 67.4279 168.685 66.7323 167.821 66.1018L163.632 63.0456C156.091 57.5425 145.519 59.1941 140.019 66.7319Z" fill="#D3755F"/>
<path d="M85.031 166.016L80.6863 179.15C79.7185 182.076 81.8973 185.091 84.9784 185.091C86.3138 185.091 87.581 184.501 88.4397 183.478L96.23 174.206L85.031 166.016Z" fill="#4D6995"/>
<path d="M144.991 166.016L149.336 179.15C150.303 182.076 148.125 185.091 145.043 185.091C143.708 185.091 142.441 184.501 141.582 183.478L133.792 174.206L144.991 166.016Z" fill="#4D6995"/>
<path d="M154.743 163.202C176.416 141.529 176.416 106.391 154.743 84.7183C133.07 63.0457 97.9321 63.0457 76.2594 84.7183C54.5868 106.391 54.5868 141.529 76.2594 163.202C97.9321 184.875 133.07 184.875 154.743 163.202Z" fill="#8DA9D9"/>
<path d="M151.983 160.442C172.131 140.294 172.131 107.627 151.983 87.4794C131.835 67.3315 99.1686 67.3314 79.0206 87.4794C58.8727 107.627 58.8727 140.294 79.0206 160.442C99.1686 180.589 131.835 180.589 151.983 160.442Z" fill="#6A88B4"/>
<path d="M148.196 156.655C166.253 138.598 166.253 109.322 148.196 91.2656C130.14 73.2087 100.864 73.2087 82.8067 91.2656C64.7498 109.322 64.7498 138.598 82.8067 156.655C100.864 174.712 130.14 174.712 148.196 156.655Z" fill="white"/>
<path d="M126.238 126.892C127.576 121.479 124.273 116.006 118.86 114.668C113.446 113.329 107.973 116.633 106.635 122.046C105.297 127.459 108.6 132.932 114.013 134.271C119.427 135.609 124.9 132.305 126.238 126.892Z" fill="#ADD0E0"/>
<path d="M116.973 93.413H116.485H116.388H115.9L114.729 119.971H116.302H117.034H118.144L116.973 93.413Z" fill="#4D6995"/>
<path d="M87.4761 142.479L87.7273 142.897L87.7774 142.98L88.0287 143.398L113.675 129.171L112.865 127.823L112.488 127.196L111.916 126.245L87.4761 142.479Z" fill="#4D6995"/>
<path d="M117.368 124.061L144.415 116.668" stroke="#4D6995" stroke-miterlimit="10"/>
<path d="M120.346 128.65C122.65 126.496 122.771 122.882 120.616 120.578C118.462 118.274 114.848 118.153 112.544 120.308C110.241 122.462 110.12 126.076 112.274 128.38C114.429 130.684 118.043 130.805 120.346 128.65Z" fill="#304B77"/>
<path d="M92.7122 221.144V223.353H85.9935V235.69H83.3585V221.144H92.7122ZM93.6941 239.781V224.781H96.2225V226.585H96.3717C96.5042 226.32 96.6913 226.038 96.9327 225.74C97.1742 225.437 97.5009 225.178 97.9129 224.965C98.3248 224.748 98.8504 224.639 99.4896 224.639C100.332 224.639 101.092 224.854 101.769 225.285C102.451 225.711 102.991 226.343 103.389 227.181C103.791 228.015 103.992 229.037 103.992 230.249C103.992 231.447 103.796 232.465 103.403 233.303C103.01 234.142 102.475 234.781 101.798 235.221C101.121 235.661 100.354 235.882 99.4967 235.882C98.8717 235.882 98.3532 235.777 97.9413 235.569C97.5293 235.361 97.1979 235.11 96.9469 234.816C96.7007 234.518 96.509 234.236 96.3717 233.971H96.2651V239.781H93.6941ZM96.2154 230.235C96.2154 230.941 96.3148 231.559 96.5137 232.089C96.7173 232.619 97.0085 233.034 97.3873 233.332C97.7708 233.625 98.2348 233.772 98.7793 233.772C99.3475 233.772 99.8234 233.621 100.207 233.318C100.59 233.01 100.879 232.591 101.073 232.061C101.272 231.526 101.372 230.917 101.372 230.235C101.372 229.558 101.275 228.957 101.08 228.431C100.886 227.906 100.598 227.494 100.214 227.196C99.8305 226.897 99.3522 226.748 98.7793 226.748C98.2301 226.748 97.7637 226.892 97.3802 227.181C96.9967 227.47 96.7055 227.875 96.5066 228.396C96.3125 228.917 96.2154 229.53 96.2154 230.235ZM109.333 235.91C108.642 235.91 108.019 235.787 107.465 235.541C106.916 235.29 106.481 234.92 106.159 234.433C105.841 233.945 105.683 233.344 105.683 232.629C105.683 232.013 105.796 231.504 106.024 231.102C106.251 230.699 106.561 230.377 106.954 230.136C107.347 229.894 107.79 229.712 108.282 229.589C108.779 229.461 109.293 229.369 109.823 229.312C110.463 229.246 110.981 229.187 111.379 229.134C111.776 229.078 112.065 228.992 112.245 228.879C112.43 228.76 112.522 228.578 112.522 228.332V228.289C112.522 227.754 112.364 227.34 112.046 227.046C111.729 226.753 111.272 226.606 110.676 226.606C110.046 226.606 109.546 226.743 109.177 227.018C108.812 227.293 108.566 227.617 108.438 227.991L106.038 227.65C106.227 226.987 106.54 226.433 106.975 225.988C107.411 225.538 107.944 225.202 108.573 224.98C109.203 224.752 109.899 224.639 110.661 224.639C111.187 224.639 111.71 224.7 112.231 224.823C112.752 224.946 113.228 225.15 113.659 225.434C114.089 225.713 114.435 226.095 114.696 226.578C114.961 227.061 115.093 227.664 115.093 228.389V235.69H112.622V234.191H112.536C112.38 234.494 112.16 234.778 111.876 235.044C111.597 235.304 111.244 235.515 110.818 235.676C110.396 235.832 109.901 235.91 109.333 235.91ZM110.001 234.021C110.517 234.021 110.964 233.919 111.343 233.715C111.722 233.507 112.013 233.232 112.217 232.892C112.425 232.551 112.529 232.179 112.529 231.776V230.491C112.449 230.557 112.312 230.619 112.117 230.676C111.928 230.732 111.715 230.782 111.478 230.825C111.241 230.867 111.007 230.905 110.775 230.938C110.543 230.972 110.342 231 110.171 231.024C109.788 231.076 109.445 231.161 109.142 231.279C108.839 231.398 108.599 231.563 108.424 231.776C108.249 231.985 108.161 232.255 108.161 232.586C108.161 233.06 108.334 233.417 108.68 233.659C109.026 233.9 109.466 234.021 110.001 234.021ZM122.629 239.397V221.144H125.207V239.397H122.629ZM122.629 235.903C121.829 235.903 121.097 235.768 120.434 235.498C119.771 235.228 119.198 234.845 118.715 234.347C118.237 233.85 117.866 233.258 117.6 232.572C117.34 231.881 117.21 231.116 117.21 230.278C117.21 229.44 117.34 228.675 117.6 227.984C117.866 227.293 118.237 226.698 118.715 226.201C119.198 225.699 119.771 225.313 120.434 225.044C121.097 224.774 121.829 224.639 122.629 224.639H123.176V235.903H122.629ZM122.629 233.829H122.948V226.713H122.629C122.174 226.713 121.772 226.807 121.421 226.997C121.076 227.181 120.785 227.439 120.548 227.771C120.316 228.097 120.138 228.476 120.015 228.907C119.897 229.333 119.838 229.79 119.838 230.278C119.838 230.927 119.944 231.521 120.157 232.061C120.37 232.596 120.683 233.024 121.095 233.346C121.511 233.668 122.023 233.829 122.629 233.829ZM125.207 235.903H124.66V224.639H125.207C126.007 224.639 126.739 224.774 127.401 225.044C128.064 225.313 128.635 225.699 129.113 226.201C129.596 226.698 129.968 227.293 130.228 227.984C130.493 228.675 130.626 229.44 130.626 230.278C130.626 231.116 130.493 231.881 130.228 232.572C129.968 233.258 129.596 233.85 129.113 234.347C128.635 234.845 128.064 235.228 127.401 235.498C126.739 235.768 126.007 235.903 125.207 235.903ZM125.207 233.829C125.666 233.829 126.069 233.737 126.414 233.552C126.76 233.367 127.049 233.112 127.281 232.785C127.517 232.458 127.695 232.082 127.813 231.656C127.932 231.225 127.991 230.766 127.991 230.278C127.991 229.629 127.887 229.035 127.678 228.495C127.47 227.955 127.158 227.525 126.741 227.203C126.329 226.876 125.818 226.713 125.207 226.713H124.887V233.829H125.207ZM132.796 235.69V224.781H135.367V235.69H132.796ZM134.088 223.232C133.681 223.232 133.331 223.097 133.037 222.828C132.744 222.553 132.597 222.224 132.597 221.84C132.597 221.452 132.744 221.123 133.037 220.853C133.331 220.579 133.681 220.441 134.088 220.441C134.5 220.441 134.851 220.579 135.139 220.853C135.433 221.123 135.58 221.452 135.58 221.84C135.58 222.224 135.433 222.553 135.139 222.828C134.851 223.097 134.5 223.232 134.088 223.232ZM138.011 235.69V224.781H140.582V229.184H141.519L144.8 224.781H147.897L143.856 230.136L147.939 235.69H144.829L141.839 231.578H140.582V235.69H138.011Z" fill="#263238"/>
<g filter="url(#filter1_d_2381_237)">
<rect x="242" y="3" width="222" height="267.112" rx="10" fill="#FAFCFE"/>
</g>
<path d="M318.517 235.69V221.144H324.085C325.136 221.144 326.01 221.31 326.706 221.642C327.406 221.968 327.93 222.416 328.275 222.984C328.626 223.552 328.801 224.196 328.801 224.916C328.801 225.508 328.687 226.014 328.46 226.436C328.233 226.852 327.927 227.191 327.544 227.451C327.16 227.712 326.732 227.899 326.258 228.012V228.154C326.774 228.183 327.269 228.341 327.743 228.63C328.221 228.914 328.611 229.317 328.914 229.838C329.217 230.358 329.369 230.988 329.369 231.727C329.369 232.48 329.187 233.157 328.822 233.758C328.458 234.355 327.908 234.826 327.174 235.171C326.44 235.517 325.517 235.69 324.405 235.69H318.517ZM321.152 233.488H323.985C324.942 233.488 325.631 233.306 326.052 232.941C326.478 232.572 326.691 232.098 326.691 231.521C326.691 231.09 326.585 230.702 326.372 230.356C326.159 230.006 325.856 229.731 325.463 229.532C325.07 229.329 324.601 229.227 324.056 229.227H321.152V233.488ZM321.152 227.33H323.758C324.213 227.33 324.622 227.248 324.987 227.082C325.351 226.911 325.638 226.672 325.846 226.365C326.059 226.052 326.166 225.683 326.166 225.257C326.166 224.693 325.967 224.229 325.569 223.865C325.176 223.5 324.592 223.318 323.815 223.318H321.152V227.33ZM334.026 232.21L338.394 224.781H341.036V235.69H338.55V228.254L334.197 235.69H331.548V224.781H334.026V232.21ZM345.779 224.781L347.981 228.808L350.218 224.781H352.938L349.65 230.235L352.995 235.69H350.289L347.981 231.762L345.694 235.69H342.966L346.29 230.235L343.052 224.781H345.779ZM354.927 235.69V224.781H357.498V235.69H354.927ZM356.219 223.232C355.812 223.232 355.462 223.097 355.168 222.828C354.874 222.553 354.728 222.224 354.728 221.84C354.728 221.452 354.874 221.123 355.168 220.853C355.462 220.579 355.812 220.441 356.219 220.441C356.631 220.441 356.981 220.579 357.27 220.853C357.564 221.123 357.711 221.452 357.711 221.84C357.711 222.224 357.564 222.553 357.27 222.828C356.981 223.097 356.631 223.232 356.219 223.232ZM359.175 238.857V233.573H360.042C360.274 233.393 360.468 233.15 360.624 232.842C360.781 232.529 360.908 232.162 361.008 231.741C361.112 231.315 361.197 230.839 361.264 230.313C361.33 229.783 361.389 229.213 361.441 228.602L361.754 224.781H369.637V233.573H371.327V238.857H368.842V235.69H361.704V238.857H359.175ZM362.684 233.573H367.18V226.855H363.984L363.813 228.602C363.719 229.757 363.593 230.747 363.437 231.571C363.281 232.394 363.03 233.062 362.684 233.573ZM380.74 229.17V231.279H374.93V229.17H380.74ZM375.726 224.781V235.69H373.247V224.781H375.726ZM382.423 224.781V235.69H379.951V224.781H382.423ZM385.024 235.69V224.781H387.595V235.69H385.024ZM386.317 223.232C385.91 223.232 385.559 223.097 385.266 222.828C384.972 222.553 384.825 222.224 384.825 221.84C384.825 221.452 384.972 221.123 385.266 220.853C385.559 220.579 385.91 220.441 386.317 220.441C386.729 220.441 387.079 220.579 387.368 220.853C387.661 221.123 387.808 221.452 387.808 221.84C387.808 222.224 387.661 222.553 387.368 222.828C387.079 223.097 386.729 223.232 386.317 223.232Z" fill="#263238"/>
<path d="M424.436 156.496C388.5 202.496 370.506 183.961 336.225 180.805C326.865 179.944 309.48 188.679 294.775 173.214C254.826 152.5 298.672 141.903 285.5 89.9958C288.981 85.2892 294.775 37 359.905 37C383.5 37 406.695 54.5799 409.042 56.7316C412.006 59.4497 418.544 65.9087 424.436 76.1555C438.28 100.232 437.5 129.996 424.436 156.496Z" fill="#E7EDFD"/>
<path d="M409.382 182.332C409.376 186.24 378.843 189.349 341.186 189.278C303.528 189.206 273.005 185.98 273.011 182.072C273.017 178.163 303.55 175.054 341.207 175.126C378.865 175.198 409.388 178.424 409.382 182.332Z" fill="#A0B1C6"/>
<path d="M272.039 169.54C274.114 149.962 279.305 101.336 280.439 94.229C281.863 85.2962 293.563 87.2676 293.563 87.2676L296.069 177.664H279.755C277.563 177.664 275.472 176.78 274.003 175.229C272.533 173.679 271.819 171.618 272.039 169.54Z" fill="#304B77"/>
<path d="M404.021 179.943C409.115 179.841 413.157 175.896 413.049 171.13L411.386 97.7434C411.294 93.6947 407.827 90.4236 403.5 90.3035L289.652 87.1435C286.266 87.0495 283.47 89.5969 283.48 92.7658L283.753 176.908C283.763 179.886 286.381 182.277 289.563 182.214L404.021 179.943Z" fill="#6A88B4"/>
<path d="M411.359 173.782C412.989 173.759 414.22 172.393 413.967 170.886C412.287 160.893 407.013 126.521 408.704 97.9819C408.782 96.6805 407.704 95.5737 406.311 95.5322L291.95 92.1192C290.382 92.0723 289.068 93.2179 289.009 94.6847C288.522 106.683 286.711 156.092 289.081 173.656C289.225 174.725 290.208 175.519 291.359 175.503L411.359 173.782Z" fill="#ADD0E0"/>
<path d="M408.47 172.658C410.038 172.636 411.223 171.321 410.979 169.871C409.363 160.255 404.287 127.177 405.915 99.7126C405.99 98.4601 404.952 97.395 403.612 97.355L293.557 94.0705C292.048 94.0256 290.784 95.1279 290.727 96.5395C290.259 108.086 288.515 155.635 290.796 172.537C290.935 173.566 291.881 174.33 292.989 174.314L408.47 172.658Z" fill="#E7EDFD"/>
<path opacity="0.72" d="M340.827 114.803L340.995 122.219C341.021 123.351 340.051 124.283 338.841 124.289L330.711 124.332C329.527 124.338 328.557 123.455 328.532 122.348L328.355 114.552C328.329 113.38 329.367 112.431 330.618 112.483L338.757 112.821C339.897 112.868 340.803 113.735 340.827 114.803Z" fill="white"/>
<path opacity="0.72" d="M369.251 124.227L361.121 124.27C359.937 124.276 358.967 123.393 358.942 122.286L358.792 115.655C358.765 114.49 359.791 113.544 361.036 113.586L369.173 113.859C370.321 113.898 371.237 114.768 371.262 115.842L371.405 122.157C371.431 123.288 370.461 124.221 369.251 124.227Z" fill="white"/>
<path opacity="0.72" d="M362.128 157.257L369.861 157.187C371.157 157.175 372.221 158.141 372.249 159.352L372.402 166.128C372.429 167.331 371.423 168.334 370.138 168.385L362.41 168.691C361.085 168.744 359.973 167.768 359.945 166.528L359.786 159.516C359.758 158.285 360.811 157.269 362.128 157.257Z" fill="white"/>
<path opacity="0.72" d="M375.138 165.964L374.987 159.34C374.96 158.129 375.995 157.131 377.289 157.119L385.103 157.048C386.377 157.037 387.423 157.986 387.45 159.177L387.594 165.563C387.621 166.746 386.632 167.732 385.369 167.782L377.56 168.091C376.258 168.143 375.165 167.183 375.138 165.964Z" fill="white"/>
<path opacity="0.72" d="M374.46 136.057L374.337 130.619C374.307 129.306 375.438 128.227 376.842 128.229L384.305 128.242C385.664 128.244 386.772 129.261 386.801 130.533L386.919 135.73C386.948 137.011 385.869 138.076 384.5 138.118L377.043 138.347C375.651 138.389 374.49 137.36 374.46 136.057Z" fill="white"/>
<path opacity="0.72" d="M374.819 151.861L374.631 143.543C374.604 142.352 375.606 141.362 376.879 141.323L384.51 141.09C385.903 141.047 387.064 142.076 387.093 143.379L387.283 151.767C387.311 152.986 386.263 153.988 384.96 153.988L377.144 153.989C375.879 153.989 374.846 153.043 374.819 151.861Z" fill="white"/>
<path d="M354.047 124.307L345.917 124.35C344.733 124.356 343.763 123.473 343.738 122.366L343.574 115.143C343.548 113.978 344.574 113.032 345.819 113.074L353.956 113.347C355.104 113.386 356.02 114.256 356.044 115.331L356.201 122.237C356.227 123.368 355.257 124.301 354.047 124.307Z" fill="#FFB5B0"/>
<path opacity="0.72" d="M359.612 151.825L359.436 144.046C359.408 142.834 360.428 141.827 361.723 141.787L369.452 141.551C370.768 141.51 371.866 142.483 371.894 143.715L372.076 151.73C372.104 152.97 371.037 153.99 369.712 153.99L361.977 153.991C360.69 153.991 359.639 153.028 359.612 151.825Z" fill="white"/>
<path opacity="0.72" d="M345.705 128.177L354.583 128.192C355.558 128.194 356.353 128.923 356.373 129.835L356.543 137.315C356.564 138.234 355.79 138.998 354.808 139.028L345.937 139.299C344.939 139.33 344.106 138.592 344.085 137.658L343.909 129.891C343.887 128.949 344.698 128.175 345.705 128.177Z" fill="white"/>
<path opacity="0.72" d="M341.176 130.23L341.337 137.354C341.364 138.509 340.392 139.469 339.157 139.507L331.207 139.75C329.952 139.788 328.906 138.861 328.879 137.687L328.711 130.306C328.685 129.122 329.704 128.15 330.969 128.152L338.926 128.165C340.151 128.167 341.15 129.084 341.176 130.23Z" fill="white"/>
<path opacity="0.72" d="M370.004 138.562L361.132 138.834C360.134 138.865 359.301 138.127 359.28 137.192L359.115 129.916C359.094 128.975 359.905 128.201 360.912 128.203L369.79 128.218C370.764 128.219 371.559 128.949 371.58 129.86L371.738 136.85C371.759 137.769 370.986 138.532 370.004 138.562Z" fill="white"/>
<path opacity="0.72" d="M346.527 142.253L354.257 142.016C355.573 141.976 356.671 142.949 356.699 144.18L356.87 151.732C356.898 152.972 355.831 153.991 354.506 153.991L346.771 153.992C345.484 153.992 344.433 153.03 344.406 151.827L344.24 144.511C344.213 143.299 345.233 142.292 346.527 142.253Z" fill="white"/>
<path opacity="0.72" d="M331.065 142.726L339.336 142.473C340.501 142.437 341.473 143.299 341.498 144.389L341.67 151.992C341.695 153.09 340.751 153.993 339.577 153.993L331.3 153.994C330.161 153.994 329.23 153.142 329.206 152.076L329.04 144.726C329.015 143.653 329.918 142.761 331.065 142.726Z" fill="white"/>
<path opacity="0.72" d="M383.318 124.054L377.147 124.087C375.506 124.096 374.161 122.871 374.126 121.335L374.018 116.573C373.986 115.134 375.253 113.965 376.791 114.017L383.658 114.247C385.216 114.3 386.46 115.481 386.493 116.939L386.583 120.916C386.622 122.632 385.152 124.045 383.318 124.054Z" fill="white"/>
<path opacity="0.72" d="M390.194 159.37C390.164 158.067 391.278 156.993 392.67 156.98L395.358 156.956C397.401 156.937 399.072 158.2 399.108 159.791L399.212 164.395C399.248 165.973 397.662 167.295 395.638 167.375L392.752 167.49C391.45 167.541 390.357 166.582 390.33 165.363L390.194 159.37Z" fill="white"/>
<path opacity="0.72" d="M303.762 157.787L309.048 157.739C310.345 157.727 311.41 158.693 311.438 159.906L311.633 168.533C311.661 169.737 310.654 170.741 309.367 170.792L304.105 171C302.007 171.084 300.246 169.804 300.209 168.168L300.042 160.77C300.005 159.148 301.679 157.806 303.762 157.787Z" fill="white"/>
<path opacity="0.72" d="M395.145 153.987L392.521 153.987C391.161 153.987 390.049 152.97 390.02 151.697L389.829 143.241C389.8 141.959 390.878 140.894 392.248 140.853L394.889 140.772C396.971 140.708 398.704 141.983 398.741 143.605L398.909 151.003C398.946 152.638 397.245 153.987 395.145 153.987Z" fill="white"/>
<path opacity="0.72" d="M394.925 137.799L391.621 137.9C390.569 137.933 389.691 137.154 389.668 136.169L389.53 130.062C389.507 129.068 390.363 128.252 391.424 128.254L394.76 128.26C396.783 128.263 398.422 129.52 398.457 131.096L398.542 134.817C398.578 136.408 396.966 137.737 394.925 137.799Z" fill="white"/>
<path d="M302.918 111.535L308.219 111.713C309.413 111.753 310.366 112.658 310.392 113.776L310.585 122.297C310.612 123.474 309.603 124.444 308.344 124.45L302.885 124.479C300.85 124.49 299.19 123.229 299.154 121.644L298.993 114.516C298.955 112.831 300.757 111.462 302.918 111.535Z" fill="#ADD0E0"/>
<path opacity="0.72" d="M346.925 157.395L354.658 157.325C355.954 157.313 357.018 158.279 357.046 159.491L357.21 166.73C357.237 167.933 356.231 168.936 354.946 168.987L347.218 169.293C345.893 169.346 344.781 168.369 344.753 167.13L344.584 159.654C344.556 158.423 345.608 157.407 346.925 157.395Z" fill="white"/>
<path opacity="0.72" d="M303.141 128.105L308.514 128.114C309.739 128.116 310.738 129.033 310.764 130.178L310.948 138.284C310.974 139.44 310.002 140.399 308.767 140.437L303.373 140.602C301.291 140.666 299.557 139.391 299.52 137.769L299.369 131.089C299.332 129.451 301.038 128.101 303.141 128.105Z" fill="white"/>
<path opacity="0.72" d="M303.337 143.575L308.945 143.403C310.11 143.368 311.082 144.229 311.107 145.32L311.258 151.995C311.283 153.093 310.339 153.996 309.165 153.996L303.53 153.997C301.504 153.997 299.86 152.739 299.824 151.161L299.719 146.557C299.683 144.966 301.295 143.638 303.337 143.575Z" fill="white"/>
<path opacity="0.72" d="M326.302 144.855L326.464 151.993C326.489 153.091 325.544 153.994 324.37 153.994L316.094 153.995C314.954 153.995 314.024 153.143 314 152.077L313.844 145.191C313.819 144.118 314.722 143.226 315.869 143.191L324.14 142.938C325.305 142.902 326.277 143.764 326.302 144.855Z" fill="white"/>
<path opacity="0.72" d="M316.522 157.671L324.251 157.601C325.548 157.589 326.613 158.555 326.641 159.768L326.826 167.931C326.853 169.135 325.846 170.139 324.559 170.19L316.835 170.496C315.51 170.549 314.397 169.572 314.369 168.331L314.178 159.932C314.15 158.699 315.204 157.683 316.522 157.671Z" fill="white"/>
<path opacity="0.72" d="M394.49 123.995L391.256 124.012C390.222 124.018 389.376 123.246 389.354 122.28L389.218 116.306C389.195 115.289 390.091 114.464 391.177 114.5L394.604 114.615C396.565 114.681 398.114 115.919 398.148 117.448L398.229 121.011C398.266 122.639 396.581 123.984 394.49 123.995Z" fill="white"/>
<path opacity="0.72" d="M331.724 157.533L339.323 157.464C340.692 157.452 341.817 158.472 341.846 159.752L342.017 167.329C342.045 168.534 341.038 169.538 339.751 169.589L332.027 169.895C330.701 169.947 329.588 168.97 329.56 167.729L329.38 159.794C329.353 158.561 330.406 157.545 331.724 157.533Z" fill="white"/>
<path opacity="0.72" d="M325.609 114.287L325.789 122.216C325.816 123.394 324.807 124.363 323.548 124.37L315.593 124.412C314.361 124.419 313.352 123.5 313.326 122.348L313.139 114.109C313.112 112.897 314.179 111.913 315.474 111.956L323.436 112.224C324.631 112.264 325.584 113.169 325.609 114.287Z" fill="white"/>
<path opacity="0.72" d="M325.97 130.204L326.142 137.819C326.169 138.974 325.196 139.934 323.962 139.972L316.011 140.215C314.757 140.254 313.711 139.326 313.684 138.152L313.505 130.28C313.479 129.096 314.498 128.124 315.763 128.126L323.72 128.14C324.945 128.142 325.944 129.058 325.97 130.204Z" fill="white"/>
<path d="M392.303 104.119C394.008 104.119 395.389 102.827 395.389 101.233C395.389 99.6383 394.008 98.3458 392.303 98.3458C390.599 98.3458 389.218 99.6383 389.218 101.233C389.218 102.827 390.599 104.119 392.303 104.119Z" fill="#304B77"/>
<path d="M367.021 103.897C368.725 103.897 370.107 102.605 370.107 101.011C370.107 99.4162 368.725 98.1238 367.021 98.1238C365.317 98.1238 363.936 99.4162 363.936 101.011C363.936 102.605 365.317 103.897 367.021 103.897Z" fill="#304B77"/>
<path d="M341.502 103.12C343.206 103.12 344.587 101.828 344.587 100.233C344.587 98.639 343.206 97.3466 341.502 97.3466C339.798 97.3466 338.416 98.639 338.416 100.233C338.416 101.828 339.798 103.12 341.502 103.12Z" fill="#304B77"/>
<path d="M316.22 102.01C317.925 102.01 319.306 100.717 319.306 99.1229C319.306 97.5285 317.925 96.2361 316.22 96.2361C314.516 96.2361 313.135 97.5285 313.135 99.1229C313.135 100.717 314.516 102.01 316.22 102.01Z" fill="#304B77"/>
<path d="M313.873 79.1193C319.066 80.1793 318.576 92.9599 318.158 98.1486C318.06 99.3696 316.973 100.311 315.664 100.311C315.301 100.311 314.955 100.165 314.712 99.9121C314.469 99.6592 314.353 99.3207 314.392 98.9827C314.84 95.061 315.795 83.7671 311.972 83.1632C311.972 83.1632 309.23 82.7093 308.769 87.6785H305.802C305.802 87.6785 307.345 77.7868 313.873 79.1193Z" fill="#FFB5B0"/>
<path d="M339.155 79.7767C344.348 80.8366 343.858 93.6217 343.44 98.8104C343.342 100.031 342.255 100.976 340.946 100.976C340.583 100.976 340.236 100.83 339.994 100.577C339.751 100.324 339.635 99.9865 339.674 99.6485C340.122 95.7268 341.077 84.4242 337.254 83.8203C337.254 83.8203 334.512 83.4656 334.051 88.3267H331.084C331.084 88.3267 332.627 78.4441 339.155 79.7767Z" fill="#FFB5B0"/>
<path d="M364.437 80.4369C369.629 81.4968 369.14 94.2849 368.722 99.4737C368.623 100.695 367.536 101.64 366.228 101.64C365.864 101.64 365.518 101.496 365.275 101.243C365.033 100.99 364.917 100.652 364.955 100.314C365.404 96.3926 366.358 85.0843 362.536 84.4803C362.536 84.4803 359.795 84.1916 359.334 89.0776L356.366 88.9811C356.366 88.9811 357.909 79.1043 364.437 80.4369Z" fill="#FFB5B0"/>
<path d="M389.719 81.2004C394.912 82.2603 394.422 95.0552 394.004 100.244C393.906 101.465 392.819 102.414 391.51 102.414C391.146 102.414 390.8 102.271 390.558 102.018C390.315 101.765 390.199 101.429 390.238 101.091C390.686 97.1689 391.641 85.8473 387.818 85.2434C387.818 85.2434 385.076 84.8697 384.614 89.7309H381.648C381.648 89.7309 383.191 79.8678 389.719 81.2004Z" fill="#FFB5B0"/>
<defs>
<filter id="filter0_d_2381_237" x="0" y="0" width="230" height="275.112" filterUnits="userSpaceOnUse" color-interpolation-filters="sRGB">
<feFlood flood-opacity="0" result="BackgroundImageFix"/>
<feColorMatrix in="SourceAlpha" type="matrix" values="0 0 0 0 0 0 0 0 0 0 0 0 0 0 0 0 0 0 127 0" result="hardAlpha"/>
<feOffset dy="1"/>
<feGaussianBlur stdDeviation="2"/>
<feComposite in2="hardAlpha" operator="out"/>
<feColorMatrix type="matrix" values="0 0 0 0 0 0 0 0 0 0 0 0 0 0 0 0 0 0 0.2 0"/>
<feBlend mode="normal" in2="BackgroundImageFix" result="effect1_dropShadow_2381_237"/>
<feBlend mode="normal" in="SourceGraphic" in2="effect1_dropShadow_2381_237" result="shape"/>
</filter>
<filter id="filter1_d_2381_237" x="238" y="0" width="230" height="275.112" filterUnits="userSpaceOnUse" color-interpolation-filters="sRGB">
<feFlood flood-opacity="0" result="BackgroundImageFix"/>
<feColorMatrix in="SourceAlpha" type="matrix" values="0 0 0 0 0 0 0 0 0 0 0 0 0 0 0 0 0 0 127 0" result="hardAlpha"/>
<feOffset dy="1"/>
<feGaussianBlur stdDeviation="2"/>
<feComposite in2="hardAlpha" operator="out"/>
<feColorMatrix type="matrix" values="0 0 0 0 0 0 0 0 0 0 0 0 0 0 0 0 0 0 0.2 0"/>
<feBlend mode="normal" in2="BackgroundImageFix" result="effect1_dropShadow_2381_237"/>
<feBlend mode="normal" in="SourceGraphic" in2="effect1_dropShadow_2381_237" result="shape"/>
</filter>
</defs>
</svg>
