<svg width="375" height="362" viewBox="0 0 375 362" fill="none" xmlns="http://www.w3.org/2000/svg" xmlns:xlink="http://www.w3.org/1999/xlink">
<style>
#topLeaf{
    transform-origin: 50% 50%;
}
#leftLeaf{
    transform-origin: 30% 70%;
}
#rightLeaf{
    transform-origin: 70% 70%;
}
#topCloud{
    transform-origin: 50% 35%;
}
#rightCloud{
    transform-origin: 70% 40%;
}
#leftPlane{
    transform-origin: 20% 40%;
}
#rightPlane{
    transform-origin: 80% 20%;
}
#catBehindCard{
    transform-origin: 50% 55%;
}
#catsTail{
    transform-origin: 50% 50%;
}
#leftEye{
    transform-origin: 45% 52%;
}
#rightEye{
    transform-origin: 56% 53%;
}
#mouse{
    transform-origin: 48.7% 59.6%;
}

</style>

<mask id="mask0_563_233" style="mask-type:luminance" maskUnits="userSpaceOnUse" x="0" y="0" width="375" height="362">
<rect width="375" height="362" rx="23" fill="white"/>
</mask>
<g mask="url(#mask0_563_233)">
<path d="M386 -6H-16V380H386V-6Z" fill="#E7EDFD"/>

<path id="topCloud" d="M204.036 53.5859C204.036 53.5859 199.55 45.0196 188.198 46.0931C176.846 47.1664 178.197 55.7532 172.792 54.9482C167.386 54.1432 159.818 54.9482 158.196 60.3149C156.574 65.6817 149.276 62.73 149.006 67.2917C148.736 71.8534 157.385 75.0735 167.386 71.0484C177.386 67.0232 182.251 74.1754 196.306 72.8803C210.361 71.5851 212.102 69.9751 220.422 70.7801C228.741 71.5851 228.543 65.9301 224.759 62.1733C220.975 58.4161 205.658 58.7741 204.036 53.5859Z" fill="white"/>
<animateTransform
  xlink:href="#topCloud"
  attributeName="transform"
  type="translate"
  values="0,0;240,0;-240,0;0,0"
  keyTimes="0; 0.5; 0.5; 1"
  dur="14s"
  repeatCount="indefinite"
  additive="sum"
/>

<path id="rightCloud" d="M380.098 205.127C380.098 205.127 365.825 177.882 329.708 181.296C293.592 184.71 297.891 212.02 280.693 209.46C263.494 206.9 239.417 209.46 234.257 226.529C229.098 243.598 205.879 234.21 205.02 248.719C204.16 263.228 231.677 273.469 263.494 260.667C295.31 247.865 310.789 270.613 355.505 266.494C400.22 262.374 405.76 257.254 432.228 259.814C458.695 262.374 458.066 244.389 446.027 232.44C433.989 220.49 385.258 221.628 380.098 205.127Z" fill="white"/>
<animateTransform
  xlink:href="#rightCloud"
  attributeName="transform"
  type="translate"
  values="0,0;240,0;-440,0;0,0"
  keyTimes="0; 0.5; 0.5; 1"
  dur="12s"
  repeatCount="indefinite"
  additive="sum"
/>

<path d="M317.844 119.371H306.98V93.6037C306.811 93.5012 306.644 93.3988 306.477 93.2963H303.238V93.2838H284.395V93.2963H284.379V97.1589H284.395V99.8154H284.379V103.677H284.395V106.343H284.379V110.205H284.395V110.219L282.398 110.205V90H261.254V92.5593H261.243V96.4207H261.254V99.8152H261.243V103.677H261.254V106.343H261.243V110.205H261.254V112.672H261.243V116.535H261.254V119.001H261.243V122.864H261.254V125.187H261.243V127.639H261.254V127.907H237.421V150.012H228.517V155.579H218.917V145.99H201.646V119.937H198.945H198.559H196.319V119.933H185.118H184.731H181.813V133.035L167.306 132.963V141.05H155.007V91.061H118.567V144.613H107.439V115.655H71V303L320 301.991L317.844 119.371Z" fill="#A0B1C6"/>

<path id="topLeaf" d="M225.436 102.805C221.497 91.9024 204.733 97.6453 204.733 97.6453C204.733 97.6453 195.178 118.859 191.842 119.768C188.507 120.676 196.817 99.8617 196.817 99.8617C190.185 100.009 174.413 111.092 174.413 111.092C174.413 111.092 177.898 133.943 174.464 133.913C171.029 133.883 172.309 113.506 172.309 113.506C166.185 116.441 161.129 125.419 161.129 125.419C155.136 139.751 172.043 147.543 172.043 147.543C172.043 147.543 173.097 155.491 169.62 165.216C169.62 165.216 168.796 167.035 168.08 170.038L169.81 169.814C169.897 169.281 170 168.764 170.122 168.264C170.122 168.26 170.122 168.257 170.124 168.255C170.126 168.247 170.128 168.24 170.13 168.233C170.217 167.921 170.343 167.477 170.501 166.936L170.502 166.934L170.502 166.931C170.91 165.715 171.177 164.821 171.339 164.18C171.339 164.178 171.34 164.176 171.34 164.174C172.544 160.367 174.33 155.378 175.748 154.196C175.748 154.196 175.525 153.922 175.285 153.364C175.432 153.629 175.586 153.906 175.748 154.196C179.452 160.848 194.385 160.099 202.438 157.151C210.49 154.203 206.621 152.09 201.737 148.479C196.852 144.868 187.66 147.181 184.736 145.896C181.813 144.611 185.659 142.447 191.209 142.202C196.759 141.957 200.153 147.699 209.137 147.483C218.122 147.268 222.935 127.859 222.935 127.859C217.023 130.766 205.625 128.441 204.955 126.151C204.284 123.86 220.598 121.98 223.063 120.947C225.527 119.913 229.375 113.707 225.436 102.805Z" fill="url(#paint0_linear_563_233)"/>
<animateTransform
xlink:href="#topLeaf"
attributeName="transform"
type="rotate"
values="0 0 0;-5 1 1; 5 -1 -1; 0 0 0"
keyTimes="0; 0.3; 0.6; 1"
dur="5s"
repeatCount="indefinite"
additive="sum"
/>

<path id="rightLeaf" d="M339.616 249.598C336.766 235.051 314.721 238.313 314.721 238.313C314.721 238.313 298.747 262.596 294.405 262.952C290.064 263.309 304.407 239.234 304.407 239.234C296.09 237.869 274.27 248.037 274.27 248.037C274.27 248.037 274.283 277.409 269.996 276.57C265.71 275.731 271.181 250.561 271.181 250.561C262.969 252.799 254.943 262.838 254.943 262.838C244.729 279.352 264.38 293.04 264.38 293.04C264.38 293.04 264.314 296.53 263.017 301.697C262.904 302.151 262.779 302.619 262.643 303.099H266.711C267.081 302.704 267.429 302.403 267.746 302.221C267.855 302.522 267.982 302.813 268.126 303.099H303.206C302.771 302.648 302.314 302.182 301.846 301.697C301.671 301.515 301.494 301.334 301.314 301.147C295.895 295.492 283.967 296.236 280.557 293.947C277.148 291.658 282.366 289.852 289.349 290.841C296.332 291.833 299.484 299.801 310.754 301.632C310.927 301.661 311.099 301.683 311.272 301.697C311.795 301.748 312.315 301.746 312.829 301.697C323.189 300.684 331.729 280.329 331.729 280.329C323.786 282.582 309.984 277.012 309.581 273.993C309.177 270.971 329.925 272.433 333.203 271.718C336.479 271.003 342.468 264.145 339.616 249.598ZM267.744 302.216C267.726 302.187 267.632 302.01 267.518 301.697C267.457 301.53 267.389 301.319 267.326 301.072C267.4 301.275 267.477 301.484 267.553 301.697C267.617 301.867 267.68 302.039 267.744 302.216Z" fill="url(#paint1_linear_563_233)"/>
<animateTransform
xlink:href="#rightLeaf"
attributeName="transform"
type="rotate"
values="0 0 0;5 1 1; -5 -1 -1; 0 0 0"
keyTimes="0; 0.3; 0.6; 1"
dur="4s"
repeatCount="indefinite"
additive="sum"
/>

<path id="leftLeaf" opacity="0.5" d="M9.7596 239.905C12.2478 229.303 28.3694 232.431 28.3694 232.431C28.3694 232.431 39.4612 250.814 42.6438 251.22C45.8263 251.625 35.9285 233.449 35.9285 233.449C42.0812 232.721 57.8506 240.919 57.8506 240.919C57.8506 240.919 57.05 262.517 60.2247 262.041C63.3995 261.566 60.0535 242.877 60.0535 242.877C66.0312 244.794 71.6627 252.443 71.6627 252.443C78.7282 264.922 63.9107 274.338 63.9107 274.338C63.9107 274.338 63.7789 281.829 68.0276 290.374C68.0276 290.374 68.9836 291.95 69.9647 294.636L68.3398 294.653C68.2027 294.172 68.0523 293.706 67.8864 293.26C67.8862 293.256 67.8852 293.254 67.8831 293.252C67.8806 293.245 67.8781 293.239 67.8758 293.233C67.7621 292.955 67.5985 292.561 67.3949 292.08L67.3941 292.079L67.3931 292.076C66.8871 291.004 66.5446 290.212 66.3273 289.639L66.3257 289.634C64.8079 286.268 62.6259 281.885 61.1884 280.976C61.1884 280.976 61.3657 280.694 61.5288 280.146C61.4202 280.411 61.3071 280.687 61.1884 280.976C58.4662 287.615 44.5693 288.869 36.8056 287.192C29.0419 285.515 32.3975 283.055 36.5345 279.076C40.6713 275.098 49.4219 276.039 51.9908 274.468C54.5596 272.898 50.7713 271.398 45.6099 271.895C40.4484 272.392 37.917 278.148 29.5808 279.12C21.2446 280.093 14.7321 262.761 14.7321 262.761C20.511 264.68 30.8103 261.042 31.1879 258.835C31.5655 256.628 16.2702 257.016 13.8803 256.382C11.4905 255.747 7.27139 250.506 9.7596 239.905Z" fill="#7BB6C7"/>
<animateTransform
xlink:href="#leftLeaf"
attributeName="transform"
type="rotate"
values="0 0 0;-5 1 1; 5 -1 -1; 0 0 0"
keyTimes="0; 0.3; 0.6; 1"
dur="6s"
repeatCount="indefinite"
additive="sum"
/>

<path d="M260.869 301.885L70.0382 305.028C68.5639 305.053 67.2676 303.952 66.9043 302.367L30.5104 143.577C30.0001 141.351 31.5119 139.186 33.5832 139.176L224.927 138.271C226.389 138.264 227.667 139.361 228.027 140.932L263.908 297.484C264.415 299.695 262.927 301.851 260.869 301.885Z" fill="#6A88B4"/>
<path d="M262.433 301.846L73.815 302.738C71.7461 302.748 68.8303 304.208 68.3209 301.985L34.2285 145.396C33.5064 142.246 35.6462 139.182 38.5777 139.168L227.195 138.275C229.264 138.266 231.073 139.819 231.583 142.042L266.782 295.617C267.504 298.768 265.364 301.832 262.433 301.846Z" fill="#6A88B4"/>
<path d="M259.257 295.935L187.376 296.272L157.114 296.415L74.8667 296.801C73.8913 296.803 73.036 296.073 72.7934 295.023L40.8102 156.728L38.1267 145.12C37.7811 143.629 38.7937 142.176 40.1826 142.169L220.966 141.32L224.573 141.303C225.548 141.298 226.403 142.031 226.646 143.081L229.802 156.728L237.957 191.991L245.199 223.302L261.313 292.984C261.658 294.475 260.646 295.928 259.257 295.935Z" fill="#D0DCEC"/>
<path d="M229.802 156.728H40.8102L38.1267 145.12C37.7811 143.629 38.7937 142.176 40.1826 142.169L220.966 141.32L224.573 141.303C225.548 141.298 226.403 142.031 226.646 143.081L229.802 156.728Z" fill="#C7D4E7"/>

<g id="rightPlane">
    <path d="M311.782 53.0378L345.409 58.3564L323.094 41.4922L321.959 46.8985L313.781 48.5406L311.782 53.0378Z" fill="#9EC3F6"/>
    <path d="M345.408 58.3564L317.426 42.3597L290 40.8304L345.408 58.3564Z" fill="white"/>
    <path d="M323.095 41.4922L345.409 58.3563L328.135 32L323.095 41.4922Z" fill="white"/>
</g>
<animateTransform
  xlink:href="#rightPlane"
  attributeName="transform"
  type="scale"
  values="1,1;1.3,1.3;1,1"
  keyTimes="0; 0.5; 1"
  dur="4s"
  repeatCount="indefinite"
  additive="sum"
/>

<g id="leftPlane">
    <path d="M56.627 146.038L23.0006 151.356L45.3153 134.492L46.4501 139.899L54.6277 141.541L56.627 146.038Z" fill="#9EC3F6"/>
    <path d="M23.001 151.356L50.9835 135.36L78.4092 133.83L23.001 151.356Z" fill="white"/>
    <path d="M45.3145 134.492L22.9998 151.356L40.2744 125L45.3145 134.492Z" fill="white"/>
</g>
<animateTransform
  xlink:href="#leftPlane"
  attributeName="transform"
  type="translate"
  values="0,0;-120,50;20,-50;0,0;0,0"
  keyTimes="0; 0.2; 0.2; 0.6; 1"
  dur="7s"
  repeatCount="indefinite"
  additive="sum"
/>
<animateTransform
  xlink:href="#leftPlane"
  attributeName="transform"
  type="scale"
  values="1,1;2,2;0,0;1,1;1,1"
  keyTimes="0; 0.2; 0.2; 0.6; 1"
  dur="7s"
  repeatCount="indefinite"
  additive="sum"
/>

<path d="M71.872 296.699H352.312C354.271 296.699 355.859 298.46 355.859 300.632V301.491C355.859 303.665 354.269 305.426 352.308 305.424L71.783 305.075C69.5669 305.072 67.8955 302.842 68.2991 300.426L68.3844 299.916C68.6956 298.052 70.1622 296.699 71.872 296.699Z" fill="#6A88B4"/>

<g id="catBehindCard">
  <path id="catsTail" d="M150.597 230.259C154.61 233.355 157.785 234.134 159.998 234.479C161.505 234.713 162.748 235.659 163.378 237.049L164.208 238.883C164.754 240.088 164.662 241.487 163.962 242.61C163.027 244.113 161.208 244.813 159.507 244.325L158.982 244.174C158.729 244.101 158.474 244.003 158.237 243.89C146.225 238.123 148.284 239.143 142.404 234.849C137.837 231.514 136.396 222.07 136.45 217.971C136.455 217.657 136.438 217.348 136.416 217.034C136.114 212.837 138.295 202.072 129.985 201.238C121.346 200.371 120.266 194.552 121.346 192.022C125.742 181.722 135.924 185.989 140.784 192.224C144.024 196.38 148.883 205.575 147.803 215.333C147.209 220.702 147.727 223.541 148.111 225.426C148.475 227.212 149.154 229.145 150.597 230.259Z" fill="#352C35"/>
  <animateTransform
  xlink:href="#catsTail"
  attributeName="transform"
  type="rotate"
  values="0 0 0;5 1 1; -5 -1 -1; 0 0 0"
  keyTimes="0; 0.3; 0.6; 1"
  dur="7s"
  repeatCount="indefinite"
  additive="sum"
  />
  
  <g filter="url(#filter0_d_563_233)">
  <path d="M171.383 272.23C150.031 270.57 144.95 249.927 145.331 238.938C171.425 231.845 223.856 228.423 222.082 245.493C220.437 261.317 215.654 265.682 211.874 268.411C203.776 274.257 183.26 273.686 171.383 272.23Z" fill="white"/>
  <path d="M216.657 226.435C215.038 223.183 213.778 212.702 213.418 205.293L211.798 187.403C211.618 185.958 209.638 181.791 203.159 178.755C196.998 175.869 179.823 177.325 172.382 178.187C171.708 178.266 169.05 180.074 166.519 182.04C166.108 182.359 165.658 182.623 165.176 182.816L163.586 183.455C163.331 183.557 163.075 183.669 162.865 183.849C161.801 184.764 161.983 186.354 161.794 187.876L160.503 198.246C159.423 204.209 158.343 209.63 156.183 215.051L149.36 227.171C149.229 227.403 149.08 227.623 148.926 227.841C146.925 230.668 145.89 235.328 145.331 238.938C144.982 241.192 146.175 243.398 148.239 244.32C173.588 255.638 203.572 252.068 218.629 248.039C220.727 247.478 222.277 245.498 222.127 243.31C221.893 239.893 220.973 236.996 220.437 235.651L216.657 226.435Z" fill="white"/>
  </g>
  <path d="M165.741 271.418C153.399 268.815 147.55 256.382 145.975 247.868C145.781 246.819 147.143 246.421 147.749 247.299C154.179 256.613 165.478 261.265 171.03 262.494C174.947 263.882 185.604 266.302 196.887 264.874C206.368 263.674 215.088 254.83 219.84 248.505C220.464 247.674 221.851 248.171 221.718 249.202C219.825 263.912 213.332 268.676 206.289 271.418C198.65 273.798 179.845 274.393 165.741 271.418Z" fill="#D7D4D4"/>
  <path d="M145.384 196.378L160.503 198.246L162.123 185.236C159.423 186.501 151.864 192.825 147.004 193.667C142.812 194.393 144.304 196.197 145.384 196.378Z" fill="#352C35"/>
  
  <path d="M145.925 196.62L160.503 198.246L163.203 189.03C160.323 190.295 157.804 194.994 147.545 194.994C143.203 194.994 144.665 196.259 145.925 196.62Z" fill="url(#paint2_linear_563_233)"/>
  <path d="M223.677 198.245L220.438 195.535C215.038 190.656 214.714 188.271 211.258 185.235C207.803 182.199 210.719 197.703 212.878 204.751H213.418C216.838 204.751 224.973 203.992 227.997 203.124C231.021 202.257 224.217 198.788 223.677 198.245Z" fill="#352C35"/>
  <path d="M226.229 201.141C229.685 202.443 227.669 203.491 226.229 203.852C224.933 204.442 216.298 204.636 212.338 204.752L210.718 195.536C214.678 196.801 222.773 199.84 226.229 201.141Z" fill="url(#paint3_linear_563_233)"/>
  <path d="M191.82 208.004C186.971 203.135 185.971 189.836 189.619 181.556C189.972 180.755 190.586 180.095 191.36 179.685C200.441 174.877 208.358 180.987 211.596 185.248C212.115 185.931 212.359 186.769 212.397 187.625L213.224 205.888C213.336 208.353 211.636 210.552 209.196 210.921C196.622 212.825 193.778 209.969 191.82 208.004L191.82 208.004Z" fill="#352C35"/>
  <path d="M176.161 208.005C186.54 207.233 186.856 191.951 185.785 181.719C185.563 179.598 183.934 177.885 181.81 177.697C171.204 176.757 164.643 181.18 162.189 184.343C161.751 184.907 161.547 185.604 161.479 186.315L160.001 201.647C159.976 201.909 159.963 202.174 160.012 202.433C160.545 205.274 165.018 208.833 176.161 208.005Z" fill="#352C35"/>
  <path d="M188.04 179.272C175.11 177.973 166.079 182.317 161.771 185.685C160.938 186.336 159.422 185.73 159.422 184.673C159.422 184.342 159.57 184.029 159.826 183.819L164.869 179.676C165.196 179.408 165.556 179.182 165.941 179.003L171.732 176.32C172.162 176.12 172.62 175.983 173.089 175.912L182.522 174.492C182.959 174.426 183.403 174.418 183.842 174.469L196.374 175.921C196.933 175.986 197.477 176.145 197.984 176.391L212.821 183.599C213.567 183.961 214.211 184.503 214.695 185.176L220.805 193.67C220.916 193.825 220.977 194.012 220.977 194.203C220.977 195.144 219.626 195.531 219.059 194.78C213.394 187.27 202.525 180.726 188.04 179.272Z" fill="black"/>
  <path d="M193.979 151.082C167.715 148.789 160.206 168.779 159.409 182.711C159.346 183.812 161.338 184.292 162.056 183.454C165.98 178.879 174.16 174.309 188.58 176.561C207.243 179.476 217.811 188.288 221.172 192.824C224.592 178.91 223.785 153.684 193.979 151.082Z" fill="#EF1C21"/>
  <path d="M202.477 151.471L187.797 149.629C186.953 149.523 186.122 149.904 185.652 150.612C185.447 150.921 185.322 151.275 185.288 151.644L183.641 169.422C183.386 172.168 185.404 174.602 188.151 174.861L195.82 175.583C198.433 175.829 200.792 174.013 201.221 171.424L204.159 153.727C204.211 153.414 204.186 153.093 204.086 152.792C203.849 152.079 203.223 151.565 202.477 151.471Z" fill="white"/>
  <path d="M159.422 185.837V182.567C159.422 182.539 159.426 182.512 159.434 182.485C160.729 178.138 168.448 170.062 189.12 172.224C209.774 174.384 219.64 185.868 221.495 191.137C221.51 191.179 221.514 191.221 221.509 191.265L221.124 194.747C221.089 195.065 220.603 195.135 220.463 194.847C217.76 189.28 208.345 179.656 189.12 177.645C171.16 175.767 162.978 181.616 160.29 186.034C160.11 186.331 159.422 186.184 159.422 185.837Z" fill="url(#paint4_linear_563_233)"/>
  <path d="M197.019 159.246C197.019 159.246 196.43 158.911 196.349 158.865C196.268 158.818 196.183 158.8 196.088 158.81C195.992 158.819 195.922 158.861 195.882 158.892C195.841 158.923 194.339 160.083 194.339 160.083C194.339 160.083 193.184 158.6 193.147 158.552C193.109 158.504 193.065 158.455 192.961 158.413C192.858 158.371 192.762 158.381 192.701 158.402C192.642 158.416 192.04 158.585 191.958 158.604C191.876 158.622 191.796 158.677 191.737 158.749C191.693 158.808 191.655 158.876 191.645 158.961C191.654 158.883 191.412 160.81 191.412 160.81L192.551 161.67L192.753 160.063L193.253 160.704C193.29 160.752 193.337 160.787 193.391 160.815C193.432 160.835 193.466 160.854 193.53 160.862C193.595 160.87 194.922 161.039 194.922 161.039C194.972 161.045 195.023 161.044 195.069 161.028C195.121 161.013 195.175 160.991 195.239 160.942C195.303 160.892 195.874 160.451 195.874 160.451L195.672 162.058L196.988 161.51C196.988 161.51 197.196 159.861 197.219 159.676C197.25 159.485 197.161 159.329 197.019 159.246Z" fill="#ED1C24"/>
  <path d="M189.143 162.292C189.143 162.292 189.146 162.964 189.148 163.059C189.151 163.153 189.177 163.236 189.232 163.315C189.287 163.394 189.362 163.432 189.411 163.453C189.459 163.474 191.218 164.188 191.218 164.188C191.218 164.188 190.506 165.925 190.486 165.973C190.464 166.028 190.442 166.091 190.457 166.201C190.472 166.311 190.535 166.391 190.58 166.433C190.626 166.475 191.071 166.914 191.129 166.972C191.187 167.03 191.275 167.078 191.368 167.089C191.439 167.099 191.52 167.094 191.596 167.061C191.52 167.094 193.319 166.34 193.319 166.34L193.497 164.925L191.997 165.551L192.302 164.795C192.324 164.74 192.331 164.683 192.332 164.618C192.331 164.568 192.327 164.538 192.3 164.47C192.271 164.408 191.751 163.179 191.751 163.179C191.728 163.133 191.704 163.094 191.672 163.061C191.634 163.02 191.587 162.985 191.511 162.954C191.443 162.923 190.766 162.65 190.766 162.65L192.267 162.024L191.127 161.164C191.127 161.164 189.589 161.807 189.413 161.878C189.235 161.964 189.142 162.126 189.143 162.292Z" fill="#ED1C24"/>
  <path d="M195.741 167.565C195.741 167.565 196.327 167.227 196.406 167.179C196.484 167.132 196.543 167.067 196.582 166.985C196.623 166.896 196.618 166.816 196.617 166.766C196.609 166.714 196.352 164.839 196.352 164.839C196.352 164.839 198.219 164.585 198.278 164.578C198.337 164.571 198.404 164.558 198.492 164.49C198.581 164.421 198.621 164.332 198.636 164.269C198.651 164.206 198.807 163.605 198.831 163.528C198.856 163.445 198.853 163.351 198.813 163.266C198.785 163.198 198.743 163.134 198.677 163.083C198.743 163.134 197.187 161.954 197.187 161.954L195.87 162.503L197.168 163.484L196.357 163.59C196.298 163.597 196.245 163.619 196.19 163.648C196.151 163.672 196.119 163.697 196.083 163.75C196.04 163.803 195.232 164.863 195.232 164.863C195.205 164.903 195.179 164.943 195.165 164.992C195.151 165.048 195.144 165.105 195.156 165.179C195.169 165.253 195.267 165.973 195.267 165.973L193.969 164.992L193.79 166.407C193.79 166.407 195.121 167.414 195.274 167.527C195.419 167.646 195.6 167.648 195.741 167.565Z" fill="#ED1C24"/>
  <ellipse cx="174.003" cy="197.703" rx="8.09924" ry="8.13169" fill="#FFAB34"/>
  <ellipse cx="175.083" cy="199.871" rx="4.85955" ry="4.87901" fill="#3B323B"/>
  <ellipse cx="175.815" cy="201.772" rx="2.1598" ry="2.16845" fill="white"/>
  <ellipse cx="170.974" cy="196.926" rx="1.0799" ry="1.08423" fill="white"/>
  <ellipse id="leftEye" cx="173.003" cy="196.703" rx="9.59924" ry="9.63169" fill="#352C35"/>
  <animateTransform
    xlink:href="#leftEye"
    attributeName="transform"
    type="scale"
    values="1,0;1,1;1,0;1,0"
    keyTimes="0; 0.083; 0.13; 1"
    dur="10s"
    repeatCount="indefinite"
    additive="sum"
  />

  <ellipse cx="199.921" cy="200.955" rx="8.09924" ry="8.13169" fill="#FFAB34"/>
  <ellipse cx="197.761" cy="202.04" rx="4.85955" ry="4.87901" fill="#3B323B"/>
  <ellipse cx="197.128" cy="204.279" rx="2.1598" ry="2.16845" fill="white"/>
  <ellipse cx="202.317" cy="199.434" rx="1.0799" ry="1.08423" fill="white"/>
  <ellipse id="rightEye" cx="200.921" cy="201.955" rx="9.59924" ry="9.63169" fill="#352C35"/>
  <animateTransform
  xlink:href="#rightEye"
  attributeName="transform"
  type="scale"
  values="1,0;1,1;1,0;1,0"
  keyTimes="0; 0.083; 0.13; 1"
  dur="10s"
  repeatCount="indefinite"
  additive="sum"
/>
  
  <path d="M175.852 187.404C173.625 187.162 169.17 185.947 166.133 190.319C169.17 187.707 175.852 187.404 175.852 187.404Z" fill="#D9D9D9"/>
  <path d="M206.878 192.708C205.315 191.096 202.652 187.311 197.537 188.738C201.536 188.667 206.878 192.708 206.878 192.708Z" fill="#D9D9D9"/>
  <path id="mouse" d="M188.581 216.134C184.261 224.374 180.302 219.206 178.862 215.592L181.022 214.508C181.321 214.328 181.855 214.213 182.102 213.966L183.028 212.493C183.126 212.395 183.583 211.797 183.721 211.797C183.919 211.797 183.777 212.452 183.866 212.63L184.477 213.856C184.689 214.283 185.009 214.647 185.405 214.912L185.782 215.164C186.205 215.447 186.673 215.656 187.167 215.779L188.581 216.134Z" fill="url(#paint5_linear_563_233)"/>
  <animateTransform
  xlink:href="#mouse"
  attributeName="transform"
  type="scale"
  values="1,1;0.7,0.4;1,1;1,1"
  keyTimes="0; 0.083; 0.13; 1"
  dur="10s"
  repeatCount="indefinite"
  additive="sum"
  />
  
  <path d="M184.676 206.92H182.765C181.802 206.92 181.021 207.701 181.021 208.664C181.021 209.205 181.271 209.715 181.7 210.046L182.914 210.982C183.145 211.16 183.429 211.257 183.72 211.257C184.012 211.257 184.296 211.16 184.527 210.982L185.741 210.046C186.169 209.715 186.42 209.205 186.42 208.664C186.42 207.701 185.639 206.92 184.676 206.92Z" fill="#DB9089"/>
  <path d="M175.083 214.508C177.422 215.954 180.482 216.676 183.722 211.797C184.262 213.966 185.558 216.893 190.741 215.592" stroke="#7B727B" stroke-width="0.4" stroke-linecap="round" stroke-linejoin="round"/>
  <path d="M149.705 216.677C160.504 216.677 164.823 214.509 175.082 212.882" stroke="#8B828B" stroke-width="0.5" stroke-linecap="round"/>
  <path d="M155.105 211.256C165.904 211.256 165.364 210.714 175.623 211.798" stroke="#8B828B" stroke-width="0.5" stroke-linecap="round"/>
  <path d="M152.404 206.377C162.663 209.088 165.363 209.63 175.622 210.714" stroke="#8B828B" stroke-width="0.5" stroke-linecap="round"/>
  <path d="M190.741 211.256C201 211.618 204.779 210.714 215.038 213.425" stroke="#8B828B" stroke-width="0.5" stroke-linecap="round"/>
  <path d="M189.662 212.882C199.921 213.243 205.86 216.135 215.579 220.471" stroke="#8B828B" stroke-width="0.5" stroke-linecap="round"/>
  <path d="M189.662 213.967C197.761 217.22 192.361 215.052 206.94 221.557" stroke="#8B828B" stroke-width="0.5" stroke-linecap="round"/>
</g>
<animateTransform
xlink:href="#catBehindCard"
attributeName="transform"
type="rotate"
values="0 0 0;-5 1 1; 5 -1 -1; 0 0 0"
keyTimes="0; 0.3; 0.6; 1"
dur="6s"
repeatCount="indefinite"
additive="sum"
/>


<g clip-path="url(#paint6_angular_563_233_clip_path)" data-figma-skip-parse="true"><g transform="matrix(0.127832 -0.0210232 0.0210234 0.127832 151.715 244.11)"><foreignObject x="-757.728" y="-757.728" width="1515.46" height="1515.46"><div xmlns="http://www.w3.org/1999/xhtml" style="background:conic-gradient(from 90deg,rgba(203, 21, 43, 1) 0deg,rgba(209, 19, 39, 1) 7.29565deg,rgba(100, 48, 112, 1) 44.0488deg,rgba(101, 59, 129, 1) 59.0124deg,rgba(101, 59, 129, 1) 68.1593deg,rgba(100, 47, 111, 1) 82.0148deg,rgba(100, 37, 95, 1) 99.4037deg,rgba(128, 34, 86, 1) 109.768deg,rgba(209, 19, 39, 1) 155.074deg,rgba(101, 48, 112, 1) 226.127deg,rgba(101, 59, 129, 1) 230.565deg,rgba(203, 21, 43, 1) 360deg);height:100%;width:100%;opacity:1"></div></foreignObject></g></g><path d="M240.111 297.392H132.741C129.026 297.392 126.015 294.381 126.015 290.666V231.404C126.015 227.689 129.026 224.678 132.741 224.678H240.111C243.825 224.678 246.837 227.688 246.837 231.404V290.666C246.837 294.38 243.826 297.392 240.111 297.392Z" data-figma-gradient-fill="{&#34;type&#34;:&#34;GRADIENT_ANGULAR&#34;,&#34;stops&#34;:[{&#34;color&#34;:{&#34;r&#34;:0.81960785388946533,&#34;g&#34;:0.074509806931018829,&#34;b&#34;:0.15294118225574493,&#34;a&#34;:1.0},&#34;position&#34;:0.020265698432922363},{&#34;color&#34;:{&#34;r&#34;:0.39411765336990356,&#34;g&#34;:0.18823529779911041,&#34;b&#34;:0.43921571969985962,&#34;a&#34;:1.0},&#34;position&#34;:0.12235786020755768},{&#34;color&#34;:{&#34;r&#34;:0.39607843756675720,&#34;g&#34;:0.23137255012989044,&#34;b&#34;:0.50588238239288330,&#34;a&#34;:1.0},&#34;position&#34;:0.16392321884632111},{&#34;color&#34;:{&#34;r&#34;:0.39607843756675720,&#34;g&#34;:0.23137255012989044,&#34;b&#34;:0.50588238239288330,&#34;a&#34;:1.0},&#34;position&#34;:0.18933136761188507},{&#34;color&#34;:{&#34;r&#34;:0.39405044913291931,&#34;g&#34;:0.18675710260868073,&#34;b&#34;:0.43693122267723083,&#34;a&#34;:1.0},&#34;position&#34;:0.22781898081302643},{&#34;color&#34;:{&#34;r&#34;:0.39215686917304993,&#34;g&#34;:0.14509804546833038,&#34;b&#34;:0.37254902720451355,&#34;a&#34;:1.0},&#34;position&#34;:0.27612125873565674},{&#34;color&#34;:{&#34;r&#34;:0.50196081399917603,&#34;g&#34;:0.13333334028720856,&#34;b&#34;:0.33725491166114807,&#34;a&#34;:1.0},&#34;position&#34;:0.30491247773170471},{&#34;color&#34;:{&#34;r&#34;:0.81960785388946533,&#34;g&#34;:0.074509806931018829,&#34;b&#34;:0.15294118225574493,&#34;a&#34;:1.0},&#34;position&#34;:0.43076002597808838},{&#34;color&#34;:{&#34;r&#34;:0.39607843756675720,&#34;g&#34;:0.18823529779911041,&#34;b&#34;:0.43921568989753723,&#34;a&#34;:1.0},&#34;position&#34;:0.62813115119934082},{&#34;color&#34;:{&#34;r&#34;:0.39607843756675720,&#34;g&#34;:0.23137255012989044,&#34;b&#34;:0.50588238239288330,&#34;a&#34;:1.0},&#34;position&#34;:0.64045804738998413}],&#34;stopsVar&#34;:[{&#34;color&#34;:{&#34;r&#34;:0.81960785388946533,&#34;g&#34;:0.074509806931018829,&#34;b&#34;:0.15294118225574493,&#34;a&#34;:1.0},&#34;position&#34;:0.020265698432922363},{&#34;color&#34;:{&#34;r&#34;:0.39411765336990356,&#34;g&#34;:0.18823529779911041,&#34;b&#34;:0.43921571969985962,&#34;a&#34;:1.0},&#34;position&#34;:0.12235786020755768},{&#34;color&#34;:{&#34;r&#34;:0.39607843756675720,&#34;g&#34;:0.23137255012989044,&#34;b&#34;:0.50588238239288330,&#34;a&#34;:1.0},&#34;position&#34;:0.16392321884632111},{&#34;color&#34;:{&#34;r&#34;:0.39607843756675720,&#34;g&#34;:0.23137255012989044,&#34;b&#34;:0.50588238239288330,&#34;a&#34;:1.0},&#34;position&#34;:0.18933136761188507},{&#34;color&#34;:{&#34;r&#34;:0.39405044913291931,&#34;g&#34;:0.18675710260868073,&#34;b&#34;:0.43693122267723083,&#34;a&#34;:1.0},&#34;position&#34;:0.22781898081302643},{&#34;color&#34;:{&#34;r&#34;:0.39215686917304993,&#34;g&#34;:0.14509804546833038,&#34;b&#34;:0.37254902720451355,&#34;a&#34;:1.0},&#34;position&#34;:0.27612125873565674},{&#34;color&#34;:{&#34;r&#34;:0.50196081399917603,&#34;g&#34;:0.13333334028720856,&#34;b&#34;:0.33725491166114807,&#34;a&#34;:1.0},&#34;position&#34;:0.30491247773170471},{&#34;color&#34;:{&#34;r&#34;:0.81960785388946533,&#34;g&#34;:0.074509806931018829,&#34;b&#34;:0.15294118225574493,&#34;a&#34;:1.0},&#34;position&#34;:0.43076002597808838},{&#34;color&#34;:{&#34;r&#34;:0.39607843756675720,&#34;g&#34;:0.18823529779911041,&#34;b&#34;:0.43921568989753723,&#34;a&#34;:1.0},&#34;position&#34;:0.62813115119934082},{&#34;color&#34;:{&#34;r&#34;:0.39607843756675720,&#34;g&#34;:0.23137255012989044,&#34;b&#34;:0.50588238239288330,&#34;a&#34;:1.0},&#34;position&#34;:0.64045804738998413}],&#34;transform&#34;:{&#34;m00&#34;:255.664550781250,&#34;m01&#34;:42.046794891357422,&#34;m02&#34;:2.8597853183746338,&#34;m10&#34;:-42.046382904052734,&#34;m11&#34;:255.66374206542969,&#34;m12&#34;:137.30122375488281},&#34;opacity&#34;:1.0,&#34;blendMode&#34;:&#34;NORMAL&#34;,&#34;visible&#34;:true}"/>
<path d="M139.344 273.572V276.095H138.984V273.933H138.552V273.573H139.344V273.572Z" fill="white"/>
<path d="M140.461 273.933V274.258H140.101V273.933C140.101 273.884 140.11 273.837 140.129 273.793C140.147 273.748 140.174 273.711 140.207 273.679C140.239 273.646 140.278 273.621 140.322 273.601C140.367 273.58 140.412 273.572 140.462 273.572H141.604C141.653 273.572 141.699 273.581 141.743 273.601C141.788 273.62 141.825 273.646 141.858 273.679C141.89 273.711 141.916 273.748 141.936 273.793C141.954 273.837 141.965 273.884 141.965 273.933V274.393C141.965 274.442 141.96 274.486 141.95 274.525C141.94 274.564 141.926 274.599 141.905 274.63C141.885 274.661 141.858 274.689 141.826 274.714C141.795 274.738 141.756 274.761 141.71 274.785L140.461 275.37V275.734H141.649V275.411H142.01V276.095H140.101V275.432C140.101 275.383 140.106 275.339 140.117 275.301C140.126 275.262 140.141 275.227 140.161 275.197C140.181 275.166 140.207 275.139 140.24 275.113C140.273 275.088 140.31 275.065 140.354 275.044L141.604 274.457V273.935H140.461V273.933Z" fill="white"/>
<path d="M142.585 275.331H142.94V275.465C142.94 275.56 142.96 275.63 143.003 275.674C143.045 275.719 143.114 275.741 143.21 275.741H143.937C144.032 275.741 144.101 275.719 144.144 275.674C144.187 275.63 144.207 275.56 144.207 275.465V275.27C144.207 275.174 144.187 275.104 144.144 275.06C144.101 275.017 144.032 274.995 143.937 274.995H143.191V274.643H143.925C144.013 274.64 144.076 274.617 144.114 274.572C144.153 274.528 144.171 274.46 144.171 274.369V274.203C144.171 274.108 144.15 274.037 144.107 273.992C144.064 273.948 143.995 273.925 143.9 273.925H143.245C143.15 273.925 143.081 273.948 143.039 273.992C142.997 274.037 142.975 274.108 142.975 274.203V274.338H142.622V274.186C142.622 273.777 142.827 273.572 143.235 273.572H143.912C144.119 273.572 144.273 273.622 144.373 273.723C144.474 273.823 144.524 273.978 144.524 274.185V274.231C144.524 274.373 144.499 274.49 144.449 274.582C144.4 274.674 144.327 274.742 144.232 274.787C144.338 274.818 144.42 274.882 144.477 274.977C144.532 275.071 144.561 275.198 144.561 275.355V275.481C144.561 275.89 144.357 276.094 143.949 276.094H143.2C142.79 276.094 142.585 275.89 142.585 275.481V275.331Z" fill="white"/>
<path d="M144.957 275.226L146.2 273.572H146.624V275.226H146.963V275.572H146.624V276.095H146.263V275.572H144.957V275.226ZM146.263 275.226V274.009L145.349 275.226H146.263Z" fill="white"/>
<path d="M223.631 282.712C223.631 282.761 223.621 282.809 223.604 282.853C223.585 282.897 223.558 282.935 223.526 282.968C223.493 283.001 223.454 283.026 223.41 283.046C223.366 283.064 223.319 283.074 223.27 283.074H222.01C221.96 283.074 221.914 283.064 221.87 283.046C221.826 283.027 221.787 283.001 221.753 282.968C221.721 282.936 221.695 282.897 221.676 282.853C221.658 282.809 221.648 282.762 221.648 282.712V280.912C221.648 280.863 221.658 280.816 221.676 280.772C221.695 280.728 221.721 280.69 221.753 280.658C221.786 280.625 221.826 280.6 221.87 280.58C221.914 280.56 221.96 280.551 222.01 280.551H223.27C223.319 280.551 223.366 280.56 223.41 280.58C223.454 280.599 223.493 280.625 223.526 280.658C223.558 280.69 223.584 280.728 223.604 280.772C223.621 280.816 223.631 280.863 223.631 280.912V282.712ZM222.01 280.912V282.712H223.27V280.912H222.01Z" fill="white"/>
<path d="M224.385 280.912C224.385 280.863 224.395 280.816 224.413 280.772C224.432 280.728 224.458 280.69 224.491 280.658C224.524 280.625 224.562 280.6 224.606 280.58C224.65 280.56 224.697 280.551 224.746 280.551H225.899C225.948 280.551 225.994 280.56 226.039 280.58C226.083 280.599 226.121 280.625 226.154 280.658C226.186 280.69 226.212 280.728 226.232 280.772C226.25 280.816 226.26 280.863 226.26 280.912V281.237H225.899V280.912H224.746V281.633H225.899C225.948 281.633 225.994 281.642 226.039 281.661C226.083 281.679 226.121 281.705 226.154 281.738C226.186 281.771 226.212 281.81 226.232 281.854C226.251 281.898 226.26 281.944 226.26 281.994V282.713C226.26 282.762 226.25 282.809 226.232 282.854C226.213 282.898 226.186 282.936 226.154 282.969C226.121 283.002 226.082 283.027 226.039 283.047C225.994 283.065 225.948 283.075 225.899 283.075H224.746C224.697 283.075 224.65 283.065 224.606 283.047C224.562 283.028 224.524 283.002 224.491 282.969C224.458 282.936 224.433 282.898 224.413 282.854C224.395 282.809 224.385 282.763 224.385 282.713V280.912ZM224.746 281.994V282.713H225.899V281.994H224.746Z" fill="white"/>
<path d="M226.836 283.252L227.792 280.371H228.141L227.168 283.252H226.836Z" fill="white"/>
<path d="M228.572 282.309H228.925V282.444C228.925 282.539 228.945 282.608 228.987 282.653C229.03 282.698 229.099 282.719 229.196 282.719H229.921C230.017 282.719 230.087 282.698 230.129 282.653C230.171 282.608 230.192 282.539 230.192 282.444V282.248C230.192 282.153 230.171 282.083 230.129 282.039C230.087 281.995 230.017 281.974 229.921 281.974H229.176V281.621H229.91C229.999 281.618 230.062 281.595 230.1 281.551C230.138 281.507 230.156 281.438 230.156 281.347V281.182C230.156 281.086 230.135 281.015 230.092 280.97C230.049 280.926 229.98 280.904 229.886 280.904H229.23C229.135 280.904 229.067 280.926 229.024 280.97C228.982 281.015 228.961 281.086 228.961 281.182V281.316H228.607V281.165C228.607 280.756 228.811 280.551 229.22 280.551H229.897C230.105 280.551 230.258 280.601 230.359 280.703C230.458 280.803 230.508 280.958 230.508 281.165V281.211C230.508 281.353 230.483 281.47 230.434 281.561C230.384 281.653 230.312 281.721 230.216 281.766C230.323 281.797 230.405 281.861 230.462 281.956C230.518 282.051 230.546 282.177 230.546 282.334V282.461C230.546 282.869 230.342 283.073 229.934 283.073H229.184C228.774 283.073 228.57 282.869 228.57 282.461V282.309H228.572Z" fill="white"/>
<path d="M233.176 282.712C233.176 282.761 233.167 282.809 233.148 282.853C233.13 282.897 233.103 282.935 233.071 282.968C233.038 283.001 232.999 283.026 232.954 283.046C232.91 283.064 232.864 283.074 232.815 283.074H231.554C231.505 283.074 231.459 283.064 231.414 283.046C231.37 283.027 231.332 283.001 231.299 282.968C231.267 282.936 231.241 282.897 231.221 282.853C231.203 282.809 231.193 282.762 231.193 282.712V280.912C231.193 280.863 231.203 280.816 231.221 280.772C231.24 280.728 231.267 280.69 231.299 280.658C231.332 280.625 231.371 280.6 231.414 280.58C231.459 280.56 231.505 280.551 231.554 280.551H232.815C232.864 280.551 232.91 280.56 232.954 280.58C232.999 280.599 233.038 280.625 233.071 280.658C233.103 280.69 233.129 280.728 233.148 280.772C233.167 280.816 233.176 280.863 233.176 280.912V282.712ZM231.554 280.912V282.712H232.815V280.912H231.554Z" fill="white"/>
<path d="M211.405 281.239L210.769 279.59H211.021L211.535 280.947L212.049 279.59H212.3L211.665 281.239H211.405Z" fill="white"/>
<path d="M213.218 279.591L213.854 281.239H213.619L213.472 280.859H212.728L212.582 281.239H212.346L212.982 279.591H213.218ZM212.818 280.624H213.381L213.1 279.898L212.818 280.624Z" fill="white"/>
<path d="M214.443 279.591V281.004H215.291V281.239H214.207V279.591H214.443Z" fill="white"/>
<path d="M215.878 279.591V281.239H215.643V279.591H215.878Z" fill="white"/>
<path d="M216.374 281.239V279.59H217.211C217.299 279.59 217.378 279.604 217.45 279.631C217.521 279.658 217.581 279.697 217.631 279.747C217.682 279.798 217.721 279.859 217.748 279.929C217.775 280 217.789 280.08 217.789 280.167V280.662C217.789 280.748 217.775 280.828 217.748 280.9C217.721 280.971 217.682 281.031 217.631 281.082C217.581 281.133 217.521 281.17 217.45 281.199C217.378 281.225 217.3 281.24 217.211 281.24H216.374V281.239ZM217.211 281.003C217.321 281.003 217.405 280.973 217.465 280.915C217.523 280.856 217.553 280.771 217.553 280.662V280.168C217.553 280.114 217.545 280.066 217.53 280.024C217.516 279.982 217.492 279.945 217.463 279.917C217.434 279.887 217.398 279.865 217.355 279.849C217.312 279.834 217.266 279.827 217.211 279.827H216.609V281.004H217.211V281.003Z" fill="white"/>
<path d="M210.982 282.415H212.301V282.651H211.76V284.064H211.523V282.651H210.982V282.415Z" fill="white"/>
<path d="M214.068 282.415V284.064H213.832V283.358H212.889V284.064H212.653V282.415H212.889V283.123H213.832V282.415H214.068Z" fill="white"/>
<path d="M215.866 283.005C215.866 283.234 215.768 283.365 215.572 283.398L215.883 284.064H215.621L215.316 283.406H214.8V284.064H214.564V282.415H215.466C215.733 282.415 215.867 282.549 215.867 282.816V283.005H215.866ZM214.799 283.17H215.453C215.515 283.17 215.56 283.156 215.588 283.128C215.616 283.101 215.629 283.055 215.629 282.992V282.828C215.629 282.766 215.616 282.72 215.588 282.693C215.56 282.665 215.515 282.651 215.453 282.651H214.799V283.17Z" fill="white"/>
<path d="M216.33 282.415H216.565V283.828H217.506V282.415H217.743V283.828C217.743 283.861 217.736 283.891 217.724 283.919C217.711 283.948 217.695 283.973 217.673 283.995C217.652 284.016 217.626 284.033 217.598 284.045C217.569 284.057 217.538 284.063 217.506 284.063H216.565C216.532 284.063 216.502 284.057 216.474 284.045C216.445 284.033 216.42 284.016 216.399 283.995C216.377 283.974 216.359 283.948 216.347 283.919C216.335 283.891 216.33 283.861 216.33 283.828V282.415Z" fill="white"/>
<path d="M218.901 280.724V282.8L220.19 281.762L218.901 280.724Z" fill="white"/>
<path d="M138.83 281.234C138.83 281.176 138.842 281.119 138.863 281.067C138.885 281.016 138.916 280.97 138.956 280.931C138.994 280.893 139.04 280.862 139.092 280.839C139.145 280.816 139.201 280.804 139.259 280.804H140.89C140.948 280.804 141.004 280.816 141.056 280.839C141.107 280.862 141.154 280.893 141.193 280.931C141.232 280.97 141.263 281.016 141.285 281.067C141.307 281.119 141.319 281.176 141.319 281.234V281.622H140.89V281.234H139.259V283.38H140.89V282.995H141.319V283.38C141.319 283.438 141.307 283.494 141.285 283.547C141.263 283.598 141.232 283.645 141.193 283.684C141.154 283.723 141.108 283.754 141.056 283.776C141.004 283.798 140.948 283.81 140.89 283.81H139.259C139.201 283.81 139.145 283.798 139.092 283.776C139.041 283.754 138.994 283.723 138.956 283.684C138.916 283.645 138.885 283.599 138.863 283.547C138.842 283.494 138.83 283.438 138.83 283.38V281.234Z" fill="white"/>
<path d="M143.466 280.804L144.624 283.809H144.195L143.929 283.118H142.572L142.307 283.809H141.877L143.035 280.804H143.466ZM142.737 282.688H143.763L143.252 281.363L142.737 282.688Z" fill="white"/>
<path d="M147.644 281.877C147.644 282.296 147.464 282.536 147.107 282.594L147.673 283.81H147.197L146.639 282.61H145.699V283.81H145.269V280.805H146.914C147.4 280.805 147.644 281.049 147.644 281.536V281.877ZM145.699 282.18H146.891C147.005 282.18 147.087 282.155 147.138 282.104C147.189 282.053 147.214 281.971 147.214 281.856V281.557C147.214 281.442 147.189 281.36 147.138 281.309C147.087 281.258 147.005 281.233 146.891 281.233H145.699V282.18Z" fill="white"/>
<path d="M148.489 283.81V280.805H150.017C150.177 280.805 150.322 280.83 150.452 280.88C150.581 280.93 150.691 281 150.782 281.092C150.874 281.183 150.944 281.294 150.994 281.424C151.045 281.553 151.069 281.699 151.069 281.858V282.759C151.069 282.917 151.045 283.063 150.994 283.192C150.945 283.322 150.875 283.433 150.782 283.524C150.691 283.616 150.581 283.687 150.452 283.736C150.322 283.785 150.177 283.811 150.017 283.811H148.489V283.81ZM150.017 283.38C150.217 283.38 150.37 283.326 150.477 283.219C150.586 283.111 150.639 282.958 150.639 282.758V281.857C150.639 281.759 150.624 281.672 150.596 281.595C150.569 281.518 150.528 281.453 150.474 281.399C150.421 281.346 150.355 281.305 150.278 281.277C150.202 281.249 150.115 281.235 150.017 281.235H148.919V283.38H150.017V283.38Z" fill="white"/>
<path d="M154.463 280.804V283.809H154.034V282.522H152.313V283.809H151.883V280.804H152.313V282.093H154.034V280.804H154.463Z" fill="white"/>
<path d="M157.939 283.379C157.939 283.438 157.927 283.494 157.905 283.546C157.884 283.598 157.852 283.644 157.813 283.684C157.774 283.722 157.728 283.754 157.676 283.775C157.624 283.798 157.568 283.809 157.51 283.809H155.793C155.734 283.809 155.679 283.798 155.627 283.775C155.574 283.754 155.529 283.722 155.489 283.684C155.45 283.644 155.419 283.598 155.397 283.546C155.375 283.494 155.364 283.438 155.364 283.379V281.234C155.364 281.175 155.375 281.119 155.397 281.067C155.419 281.015 155.45 280.969 155.489 280.931C155.529 280.892 155.574 280.862 155.627 280.838C155.679 280.816 155.734 280.804 155.793 280.804H157.51C157.568 280.804 157.624 280.816 157.676 280.838C157.728 280.862 157.774 280.892 157.813 280.931C157.852 280.969 157.884 281.015 157.905 281.067C157.927 281.119 157.939 281.175 157.939 281.234V283.379ZM155.793 281.234V283.379H157.51V281.234H155.793Z" fill="white"/>
<path d="M159.269 280.804V283.379H160.813V283.809H158.839V280.804H159.269Z" fill="white"/>
<path d="M161.458 283.81V280.805H162.985C163.145 280.805 163.291 280.83 163.42 280.88C163.549 280.93 163.659 281 163.751 281.092C163.842 281.183 163.913 281.294 163.963 281.424C164.012 281.553 164.038 281.699 164.038 281.858V282.759C164.038 282.917 164.013 283.063 163.963 283.192C163.913 283.322 163.843 283.433 163.751 283.524C163.659 283.616 163.549 283.687 163.42 283.736C163.291 283.785 163.145 283.811 162.985 283.811H161.458V283.81ZM162.986 283.38C163.186 283.38 163.339 283.326 163.447 283.219C163.555 283.111 163.608 282.958 163.608 282.758V281.857C163.608 281.759 163.593 281.672 163.566 281.595C163.538 281.518 163.497 281.453 163.444 281.399C163.39 281.346 163.325 281.305 163.248 281.277C163.171 281.249 163.084 281.235 162.986 281.235H161.888V283.38H162.986V283.38Z" fill="white"/>
<path d="M164.854 280.804H167.044V281.234H165.284V282.092H166.786V282.522H165.284V283.378H167.044V283.808H164.854V280.804Z" fill="white"/>
<path d="M170.191 281.877C170.191 282.296 170.012 282.536 169.654 282.594L170.22 283.81H169.744L169.186 282.61H168.246V283.81H167.816V280.805H169.461C169.948 280.805 170.191 281.049 170.191 281.536V281.877ZM168.246 282.18H169.438C169.553 282.18 169.635 282.155 169.685 282.104C169.736 282.053 169.761 281.971 169.761 281.856V281.557C169.761 281.442 169.736 281.36 169.685 281.309C169.635 281.258 169.553 281.233 169.438 281.233H168.246V282.18Z" fill="white"/>
<path d="M172.879 283.81H172.45V280.805H172.879L174.685 283.135V280.805H175.115V283.81H174.685L172.879 281.48V283.81Z" fill="white"/>
<path d="M177.347 280.804L178.506 283.809H178.076L177.81 283.118H176.454L176.188 283.809H175.758L176.917 280.804H177.347ZM176.618 282.688H177.644L177.133 281.363L176.618 282.688Z" fill="white"/>
<path d="M180.701 283.81L179.579 281.608V283.81H179.149V280.805H179.619L180.763 283.068L181.91 280.805H182.377V283.81H181.951V281.608L180.828 283.81H180.701Z" fill="white"/>
<path d="M183.279 280.804H185.47V281.234H183.709V282.092H185.212V282.522H183.709V283.378H185.47V283.808H183.279V280.804Z" fill="white"/>
<circle cx="152.342" cy="247.244" r="13.5407" fill="#CB1329" stroke="url(#paint7_linear_563_233)" stroke-width="0.5"/>
<path fill-rule="evenodd" clip-rule="evenodd" d="M161.718 243.483H161.863C161.791 243.846 161.645 244.064 161.427 244.282C161.137 244.428 160.846 244.501 160.337 244.501H159.901C158.302 244.428 157.939 246.099 158.084 247.408C158.229 248.207 158.52 249.007 158.956 249.588C159.392 250.024 159.974 250.315 160.555 249.879C160.991 249.515 161.136 248.643 161.136 248.207C161.136 247.335 160.846 246.027 159.756 246.027C159.465 246.027 159.174 246.172 158.883 246.463C158.738 246.681 158.665 247.117 158.665 247.626H158.447C158.302 246.608 158.811 245.736 159.901 245.663C161.209 245.663 162.009 246.681 162.009 247.989C162.009 249.297 161.209 250.533 159.901 250.533C159.174 250.533 158.665 250.315 158.229 249.733C157.793 249.225 157.648 248.425 157.648 247.408C157.648 246.099 157.866 245.3 158.229 244.719C158.665 244.137 159.174 243.846 159.974 243.846H160.628C161.064 243.919 161.355 243.846 161.5 243.774C161.573 243.701 161.718 243.628 161.718 243.483Z" fill="white"/>
<path fill-rule="evenodd" clip-rule="evenodd" d="M152.562 245.664L154.161 249.225L155.614 245.955L155.76 245.664H156.995V245.81H156.85C156.704 245.81 156.486 245.955 156.486 246.173V248.862V249.952C156.486 250.17 156.632 250.316 156.85 250.316H156.995V250.388H156.196H155.323V250.243H155.469C155.614 250.243 155.832 250.098 155.832 249.88V248.789V246.391L154.015 250.388H153.943L152.198 246.318V249.88C152.198 250.098 152.344 250.243 152.489 250.243H152.562V250.388H151.762H151.326V250.243H151.472C151.617 250.243 151.835 250.098 151.835 249.88V246.173C151.835 245.955 151.762 245.81 151.472 245.81C151.253 245.81 151.035 246.028 150.89 246.318L149.219 250.025C149.073 250.316 148.855 250.461 148.564 250.461L148.201 250.388L148.128 249.88C148.274 250.025 148.419 250.098 148.492 250.098C148.71 250.17 148.855 250.098 148.928 249.952L149.146 249.516L147.62 246.391C147.474 246.1 147.329 245.882 147.111 245.882V245.737H147.983H148.637V245.882H148.492C148.346 245.882 148.346 246.1 148.419 246.246L149.582 248.717L150.672 246.391C150.817 246.173 150.672 245.955 150.527 245.955V245.81H152.562V245.664Z" fill="white"/>
<path fill-rule="evenodd" clip-rule="evenodd" d="M145.656 248.862V246.173V246.027H143.476V246.245V248.935V250.025C143.476 250.243 143.621 250.388 143.767 250.388H143.912H143.112H142.313V250.243H142.386C142.531 250.243 142.676 250.097 142.676 249.879V248.789V246.1C142.676 245.882 142.531 245.737 142.386 245.737H142.313V245.591H143.112H143.258H143.985H145.22H145.802H146.02H146.819V245.737H146.746C146.601 245.737 146.456 245.882 146.456 246.1V248.789V249.879C146.456 250.097 146.601 250.243 146.746 250.243H146.892V250.388H146.092H145.22V250.243H145.365C145.511 250.243 145.656 250.097 145.656 249.879V248.862Z" fill="white"/>

<path id="rightPaw" d="M227.952 224.407C224.191 217.511 217.713 220.228 213.534 220.019C213.116 222.736 211.905 224.282 212.908 226.288C213.911 228.294 216.669 227.542 217.922 226.915C219.928 229.422 222.937 227.96 223.564 226.915C228.579 228.168 228.579 225.034 227.952 224.407Z" fill="white"/>
<animateTransform
  xlink:href="#rightPaw"
  attributeName="transform"
  type="translate"
  values="-10,0;-7,-5;-10,0;-10,0"
  keyTimes="0; 0.32; 0.47; 1"
  dur="6s"
  repeatCount="indefinite"
  additive="sum"
/>

<path id="leftPaw" d="M141.343 224.407C145.104 217.511 151.582 220.228 155.761 220.019C156.178 222.736 157.39 224.282 156.387 226.288C155.384 228.294 152.626 227.542 151.372 226.915C149.367 229.422 146.358 227.96 145.731 226.915C140.716 228.168 140.716 225.034 141.343 224.407Z" fill="white"/>
<animateTransform
  xlink:href="#leftPaw"
  attributeName="transform"
  type="translate"
  values="0,0;5,0;5,-5;0,0;0,0"
  keyTimes="0;0.52; 0.62; 0.88; 1"
  dur="6s"
  repeatCount="indefinite"
  additive="sum"
/>

</g>
<defs>
<filter id="filter0_d_563_233" x="141.271" y="177.047" width="84.8667" height="104.156" filterUnits="userSpaceOnUse" color-interpolation-filters="sRGB">
<feFlood flood-opacity="0" result="BackgroundImageFix"/>
<feColorMatrix in="SourceAlpha" type="matrix" values="0 0 0 0 0 0 0 0 0 0 0 0 0 0 0 0 0 0 127 0" result="hardAlpha"/>
<feOffset dy="4"/>
<feGaussianBlur stdDeviation="2"/>
<feComposite in2="hardAlpha" operator="out"/>
<feColorMatrix type="matrix" values="0 0 0 0 0 0 0 0 0 0 0 0 0 0 0 0 0 0 0.25 0"/>
<feBlend mode="normal" in2="BackgroundImageFix" result="effect1_dropShadow_563_233"/>
<feBlend mode="normal" in="SourceGraphic" in2="effect1_dropShadow_563_233" result="shape"/>
</filter>
<clipPath id="paint6_angular_563_233_clip_path"><path d="M240.111 297.392H132.741C129.026 297.392 126.015 294.381 126.015 290.666V231.404C126.015 227.689 129.026 224.678 132.741 224.678H240.111C243.825 224.678 246.837 227.688 246.837 231.404V290.666C246.837 294.38 243.826 297.392 240.111 297.392Z"/></clipPath><linearGradient id="paint0_linear_563_233" x1="193.485" y1="96.1337" x2="193.485" y2="170.038" gradientUnits="userSpaceOnUse">
<stop stop-color="#CAE4E8"/>
<stop offset="1" stop-color="#74A1BE"/>
</linearGradient>
<linearGradient id="paint1_linear_563_233" x1="296.182" y1="238" x2="296.182" y2="303.099" gradientUnits="userSpaceOnUse">
<stop stop-color="#CFE8EA"/>
<stop offset="1" stop-color="#7198BA"/>
</linearGradient>
<linearGradient id="paint2_linear_563_233" x1="153.918" y1="189.03" x2="153.918" y2="198.246" gradientUnits="userSpaceOnUse">
<stop stop-color="#6D211A"/>
<stop offset="1" stop-color="#DA8F88"/>
</linearGradient>
<linearGradient id="paint3_linear_563_233" x1="219.428" y1="195.536" x2="219.428" y2="204.752" gradientUnits="userSpaceOnUse">
<stop stop-color="#6D211A"/>
<stop offset="1" stop-color="#D1867F"/>
</linearGradient>
<linearGradient id="paint4_linear_563_233" x1="221.517" y1="183.97" x2="159.422" y2="183.97" gradientUnits="userSpaceOnUse">
<stop stop-color="#F7A4A5"/>
<stop offset="0.22" stop-color="#F7A4A5"/>
<stop offset="0.25" stop-color="#F37680"/>
<stop offset="0.47" stop-color="#F37680"/>
<stop offset="0.5" stop-color="#F7A4A5"/>
<stop offset="0.72" stop-color="#F7A4A5"/>
<stop offset="0.75" stop-color="#F37680"/>
<stop offset="1" stop-color="#F37680"/>
</linearGradient>
<linearGradient id="paint5_linear_563_233" x1="183.721" y1="211.797" x2="183.721" y2="220.545" gradientUnits="userSpaceOnUse">
<stop stop-color="#856364"/>
<stop offset="0.2" stop-color="#856364"/>
<stop offset="0.28" stop-color="#DA8F88"/>
<stop offset="0.5" stop-color="#DA8F88"/>
<stop offset="0.75" stop-color="#E85F5C"/>
<stop offset="1" stop-color="#E85F5C"/>
</linearGradient>
<linearGradient id="paint7_linear_563_233" x1="152.342" y1="233.454" x2="152.342" y2="261.035" gradientUnits="userSpaceOnUse">
<stop/>
<stop offset="1" stop-color="#A19B9B"/>
</linearGradient>
</defs>
</svg>
