<svg width="375" height="362" viewBox="0 0 375 362" fill="none" xmlns="http://www.w3.org/2000/svg" xmlns:xlink="http://www.w3.org/1999/xlink">
<style>
   #smallRightMiddleCloud{
    transform-origin: 80% 40%;
   }
   #bigCloud{
    transform-origin: 10% 85%;
   }
   #catAndBallon{
    transform-origin: 60% 50%;
   }
   #backetAndCat{
    transform-origin: 65% 75%;
   }
   #cat{
    transform-origin: 40% 60%;
   }
   #tail{
    transform-origin: 40% 60%;
   }
   #rope{
    transform-origin: 50% 60%;
   }
   #rightKnot{
    transform-origin: 65% 65%;
   }
   #leftKnot{
    transform-origin: 29% 71%;
   }
   #centerKnot{
    transform-origin: 46% 69%;
   }
   #centerLoop{
    transform-origin: 40% 50%;
   }
   #rightLoop{
    transform-origin: 45% 55%;
   }
   #leftLoop{
    transform-origin: 35% 55%;
   }
</style>

<mask id="mask0_558_460" style="mask-type:luminance" maskUnits="userSpaceOnUse" x="0" y="0" width="375" height="362">
<rect width="375" height="362" rx="23" fill="white"/>
</mask>
<g mask="url(#mask0_558_460)">
<path d="M472 17.537V281.663C472 306.107 460.839 325.957 443.617 339.487C443.612 339.489 443.607 339.492 443.602 339.496C433.88 347.129 422.228 352.744 409.563 356.035C405.792 357.017 401.932 357.788 398.008 358.348C394.794 358.806 391.57 359.22 388.327 359.591C387.049 359.737 385.769 359.878 384.481 360.01C377.608 360.722 370.609 361.249 363.337 361.606C351.992 362.163 339.986 362.306 326.769 362.092C325.329 362.071 323.872 362.043 322.399 362.01C320.902 361.977 319.392 361.942 317.862 361.902C302.892 361.507 286.351 360.708 267.523 359.582C261.901 359.244 256.071 358.879 250.021 358.487C242.028 357.967 233.646 357.401 224.831 356.79C217.716 356.298 210.319 355.779 202.62 355.234C188.799 354.256 171.525 353.92 152.5 353.978C144.877 354 136.973 354.086 128.9 354.22C115.78 354.435 102.206 354.775 88.6509 355.172C71.6559 355.664 54.6917 356.247 38.6908 356.778C31.3553 357.02 24.2242 357.253 17.3844 357.462C14.1724 357.561 11.0262 357.652 7.95533 357.739C-2.95169 358.045 -12.9306 358.268 -21.5747 358.348C-28.5671 358.414 -35.3317 357.45 -41.7416 355.596C-72.8061 346.626 -95.5669 316.767 -95.5669 281.663V17.537C-95.5669 -18.5653 -71.4433 -50.6507 -39.0536 -57.7868C-33.4475 -59.0256 -27.5944 -59.5168 -21.5747 -59.1476C-16.7299 -58.8539 -11.5912 -58.4449 -6.19649 -57.97C9.94069 -56.5503 28.4017 -54.5358 48.3126 -53.1301C63.9282 -52.0276 80.4415 -51.3038 97.4268 -51.5387C108.169 -51.6867 119.105 -52.218 130.124 -53.2828C147.605 -54.9705 169.06 -56.5948 192.453 -57.972C205.392 -58.7359 218.928 -59.4223 232.714 -60.0076C248.052 -60.654 263.696 -61.1713 279.175 -61.5168C288.369 -61.7214 297.507 -61.8671 306.48 -61.9423C341.295 -62.2292 373.736 -61.4699 398.008 -59.1474C438.699 -55.2528 472 -24.8131 472 17.537Z" fill="#E7EDFD"/>
<g opacity="0.5">
<path d="M409.564 356.035C405.792 357.018 401.932 357.789 398.008 358.348C394.794 358.807 391.57 359.22 388.328 359.592C387.049 359.737 385.769 359.878 384.481 360.01C377.609 360.722 370.609 361.249 363.337 361.606C351.993 362.163 339.986 362.306 326.77 362.093C325.329 362.072 323.873 362.043 322.399 362.01C306.248 361.667 288.274 360.823 267.524 359.582C261.901 359.244 256.072 358.879 250.021 358.487C242.028 357.967 233.647 357.401 224.831 356.79C217.717 356.298 210.32 355.779 202.62 355.234C188.8 354.256 171.525 353.92 152.5 353.978C144.878 354 136.974 354.086 128.9 354.22C115.78 354.434 102.206 354.775 88.6514 355.172C71.6564 355.664 54.6922 356.247 38.6913 356.778C31.3558 357.02 24.2247 357.253 17.3849 357.462C14.1729 357.561 11.0267 357.652 7.95583 357.739C-2.95119 358.045 -12.9301 358.268 -21.5742 358.348C-28.5666 358.414 -35.3312 357.45 -41.7411 355.596C-72.8057 346.626 -95.5664 316.767 -95.5664 281.663V198.049C-82.3169 199.711 -63.6537 205.037 -47.3263 220.673C-34.8827 232.583 -23.7971 250.485 -17.5049 277.315C-17.5049 277.315 0.573029 264.373 18.2188 272.068C22.1897 273.798 26.137 276.574 29.8542 280.779C29.8542 280.779 33.3647 278.499 39.4455 275.281C49.429 270 66.3394 262.194 86.0387 257.807C97.2488 255.309 109.363 253.917 121.614 254.73C123.064 254.824 124.516 254.951 125.968 255.111C138.969 256.54 152.023 260.583 164.22 268.545C164.331 268.618 164.439 268.688 164.549 268.761H164.551C165.024 269.074 165.494 269.391 165.964 269.715C166.279 269.931 166.593 270.15 166.908 270.373C166.944 270.397 166.977 270.423 167.012 270.446C167.592 270.86 168.172 271.283 168.748 271.716C175.905 277.07 182.714 283.882 188.983 292.431C188.983 292.431 237.892 308.425 238.054 310.186C238.054 310.186 261.923 315.641 267.959 316.252C278.431 317.312 288.77 321.867 295.483 333.529C295.483 333.529 311 325.953 321.427 328.411C323.737 328.957 325.798 329.993 327.381 331.716C328.427 332.847 329.263 334.271 329.834 336.046C329.834 336.046 345.661 334.412 363.337 335.153C370.062 335.433 377.052 336.058 383.542 337.245C385.271 337.56 386.965 337.917 388.608 338.319C399.733 341.032 408.554 345.77 410.555 353.828C410.746 354.601 410.407 355.337 409.564 356.035Z" fill="white"/>
</g>

<g id="buildings">
    <path d="M388.328 359.592L388.607 338.319L390.118 222.833L390.127 222.448L378.868 224.385L329.364 232.898L328.175 292.161L327.543 323.691L327.381 331.716L326.77 362.092C339.986 362.306 351.993 362.163 363.337 361.606C370.609 361.249 377.608 360.722 384.481 360.01L388.328 359.592Z" fill="#6A88B4"/>
    <path d="M19.4831 185.853L18.2191 289.198L17.89 316.172L17.7749 325.618L17.385 357.639C14.173 357.718 11.0268 357.791 7.95592 357.861C-2.95109 358.106 -12.93 358.285 -21.5741 358.349C-28.5665 358.401 -35.3312 357.629 -41.741 356.143L-42.3943 343.49L-47.3262 248.006L-50.2773 190.868L-35.7284 189.82H-35.7261L1.48032 187.145L19.4831 185.853Z" fill="#A0B1C6"/>
    <path d="M1.4801 194.731H-35.1701L-37.0991 177.743H1.4801V194.731Z" fill="#A0B1C6"/>
    <path d="M322.399 362.01C306.248 361.667 288.273 360.823 267.523 359.582L267.679 344.191L267.958 316.252L268.029 309.104L268.259 286.132L268.867 225.09L269.114 200.35L277.498 205.439L282.695 208.593L318.588 230.383L320.353 291.376L321.427 328.411L321.883 344.19L322.399 362.01Z" fill="#6A88B4"/>
    <path d="M88.651 355.384C71.656 355.81 54.6918 356.316 38.6909 356.778L38.8106 345.572L39.0549 322.674L39.4448 285.999L40.1239 222.448L85.3377 248.155L86.0378 270.823L87.6401 322.674L88.3474 345.572L88.651 355.384Z" fill="#A0B1C6"/>
    <path d="M128.901 317.509V354.221C115.78 354.435 102.206 354.775 88.6516 355.172C71.6566 355.664 54.6924 356.247 38.6915 356.778C31.3561 357.02 24.2249 357.253 17.3851 357.462C14.1731 357.561 11.0269 357.652 7.95605 357.739L8.17688 317.51L128.901 317.509Z" fill="#A7C9F2"/>
    <path d="M363.337 295.701V361.606C351.992 362.163 339.986 362.306 326.769 362.093C325.329 362.072 323.872 362.043 322.399 362.01C306.248 361.667 288.273 360.823 267.523 359.582C261.901 359.244 256.071 358.879 250.021 358.487L250.385 317.211L250.413 313.988L250.674 284.362L268.259 286.132L289.591 288.278L320.353 291.376L328.174 292.161L363.337 295.701Z" fill="#A0B1C6"/>
    <path d="M224.831 303.117V356.79C217.716 356.298 210.32 355.779 202.62 355.234C188.8 354.256 171.525 353.92 152.5 353.978V303.117H224.831Z" fill="#A0B1C6"/>
</g>

<g id="smallRightMiddleCloud" opacity="0.7">
<path d="M472 29.2447V111.815C363.188 118.567 157.278 130.022 160.25 119.819C164.287 105.959 214.021 107.773 214.021 107.773C217.471 98.6574 236.939 105.357 236.939 105.357C249.111 87.4548 280.247 97.9216 280.247 97.9216C282.742 73.0504 307.751 80.0001 307.751 80.0001C345.336 36.4111 413.923 68.8193 413.923 68.8193C427.262 55.9087 445.522 65.4913 445.522 65.4913C450.633 46.8641 461.062 35.8015 472 29.2447Z" fill="white"/>
</g>
<animateTransform
xlink:href="#smallRightMiddleCloud"
attributeName="transform"
type="translate"
values="0,0;260,0;0,0; 0,0"
keyTimes="0; 0.5; 0.9; 1"
dur="20s"
repeatCount="indefinite"
additive="sum"
/>
<animateTransform
  xlink:href="#smallRightMiddleCloud"
  attributeName="transform"
  type="scale"
  values="1,1;1,1;0.6,0.6; 1,1"
  keyTimes="0; 0.5; 0.9; 1"
  dur="20s"
  repeatCount="indefinite"
  additive="sum"
/>

<g id="smallLeftTopCloud" opacity="0.7">
<path d="M-96 22.966V68.5894C-35.877 72.3201 77.8962 78.6495 76.2539 73.0118C74.0232 65.3532 46.5436 66.3561 46.5436 66.3561C44.6373 61.3193 33.8805 65.021 33.8805 65.021C27.1547 55.1294 9.95107 60.9126 9.95107 60.9126C8.57258 47.1703 -5.24606 51.0102 -5.24606 51.0102C-26.0134 26.9257 -63.9102 44.8325 -63.9102 44.8325C-71.2806 37.6989 -81.37 42.9937 -81.37 42.9937C-84.1938 32.7016 -89.9566 26.5891 -96 22.966Z" fill="white"/>
</g>

<g id="smallLeftBottomCloud" opacity="0.6">
<path d="M66.6644 153.886C66.6644 153.886 62.178 145.319 50.8259 146.393C39.4738 147.466 40.8252 156.053 35.4195 155.248C30.0138 154.443 22.4457 155.248 20.8239 160.615C19.2023 165.982 11.9043 163.03 11.6341 167.592C11.3639 172.153 20.013 175.373 30.0135 171.348C40.014 167.323 44.8793 174.475 58.9341 173.18C72.989 171.885 74.7303 170.275 83.0495 171.08C91.3686 171.885 91.171 166.23 87.3869 162.473C83.6033 158.716 68.2862 159.074 66.6644 153.886Z" fill="white"/>
</g>
<animateTransform
xlink:href="#smallLeftBottomCloud"
attributeName="transform"
type="translate"
values="0,0;370,0;-70,0;0,0"
keyTimes="0; 0.9; 0.9; 1"
dur="17s"
repeatCount="indefinite"
additive="sum"
/>

<g id="smallRightTopCloud" opacity="0.6">
<path d="M368.243 21.4739C368.243 21.4739 363.465 12.3508 351.375 13.494C339.285 14.6371 340.724 23.7821 334.967 22.9247C329.21 22.0675 321.15 22.9247 319.423 28.6404C317.696 34.356 309.924 31.2125 309.636 36.0707C309.348 40.9289 318.559 44.3583 329.21 40.0715C339.861 35.7847 345.042 43.4017 360.011 42.0225C374.979 40.6432 376.834 38.9285 385.694 39.7857C394.554 40.6432 394.344 34.6206 390.313 30.6194C386.283 26.6181 369.97 26.9993 368.243 21.4739Z" fill="white"/>
</g>
<animateTransform
xlink:href="#smallRightTopCloud"
attributeName="transform"
type="translate"
values="0,0;100,0;-300,0; 0,0"
keyTimes="0; 0.2; 0.2; 1"
dur="10s"
repeatCount="indefinite"
additive="sum"
/>

<g id="smallLeftMiddleCloud" opacity="0.6">
<path d="M27.9513 121.223C27.9513 121.223 25.5622 116.661 19.5172 117.233C13.4722 117.804 14.1919 122.377 11.3134 121.948C8.43486 121.52 4.40487 121.948 3.54134 124.806C2.6778 127.664 -1.20834 126.092 -1.35219 128.521C-1.49603 130.95 3.10956 132.665 8.43485 130.522C13.7601 128.378 16.351 132.187 23.8351 131.497C31.3195 130.807 32.2466 129.95 36.6765 130.379C41.1065 130.807 41.0013 127.796 38.9863 125.795C36.971 123.795 28.8148 123.986 27.9513 121.223Z" fill="white"/>
</g>
<animateTransform
xlink:href="#smallLeftMiddleCloud"
attributeName="transform"
type="translate"
values="0,0;370,0;-40,0;0,0"
keyTimes="0; 0.9; 0.9; 1"
dur="9s"
repeatCount="indefinite"
additive="sum"
/>

<g id="smallRightBottomCloud" opacity="0.6">
<path d="M340.718 192.405C340.718 192.405 337.079 185.457 327.871 186.327C318.662 187.198 319.759 194.163 315.374 193.51C310.989 192.857 304.85 193.51 303.534 197.863C302.219 202.217 296.299 199.822 296.08 203.523C295.861 207.223 302.877 209.835 310.989 206.57C319.101 203.305 323.047 209.106 334.448 208.056C345.848 207.005 347.261 205.699 354.009 206.352C360.757 207.005 360.597 202.418 357.527 199.371C354.458 196.323 342.033 196.614 340.718 192.405Z" fill="white"/>
</g>
<animateTransform
xlink:href="#smallRightBottomCloud"
attributeName="transform"
type="translate"
values="0,0;140,0;-370,0;0,0"
keyTimes="0; 0.3; 0.3; 1"
dur="15s"
repeatCount="indefinite"
additive="sum"
/>

<g id="catAndBallon">
  <path d="M231.143 74.3929C229.913 99.5629 230.814 124.812 230.426 150.001C230.304 157.949 230.088 165.896 229.718 173.836C229.631 175.699 232.525 175.695 232.612 203.836C233.866 186.976 233.24 120.093 233.533 93.2167C233.601 86.9401 233.731 80.6628 234.037 74.3929C234.128 72.5302 231.234 72.535 231.143 74.3929Z" fill="#2F1A31"/>
  <path d="M279.177 -61.5165C263.696 -61.171 248.052 -60.6538 232.716 -60.0074C218.928 -59.4221 205.392 -58.738 192.453 -57.9718C178.197 -57.1328 164.663 -56.2018 152.309 -55.2193L153.652 -45.006C145.733 -44.3785 137.23 -42.2769 130.402 -41.6188C119.382 -40.5563 108.172 -51.6863 97.4267 -51.5382C80.4412 -51.3033 63.9281 -52.0272 48.3148 -53.132C28.4018 -54.5351 9.94055 -56.5498 -6.19663 -57.9695C-11.5913 -58.4442 -16.73 -58.8534 -21.5748 -59.1472C-27.5945 -59.5161 -33.4476 -59.0274 -39.0537 -57.7863C-22.8249 3.51403 26.7804 71.5748 85.056 105.576C85.0794 105.59 85.1028 105.602 85.1265 105.618C86.0286 106.145 86.9358 106.662 87.8403 107.172C88.8575 107.444 90.1287 107.647 91.6396 107.785H91.6419C96.576 108.234 104.043 107.981 113.345 107.083H113.357C113.865 107.031 114.379 106.982 114.896 106.925C117.251 106.685 119.711 106.408 122.272 106.088C122.638 106.044 123.007 105.997 123.378 105.95C123.731 105.908 124.083 105.861 124.44 105.814C124.795 105.769 125.152 105.722 125.509 105.675C127.812 105.372 130.185 105.038 132.624 104.678C133.843 104.5 135.079 104.311 136.329 104.116C137.894 103.874 139.485 103.62 141.092 103.355C141.444 103.301 141.794 103.242 142.147 103.186L142.149 103.183C142.685 103.092 143.223 103.002 143.763 102.913C144.675 102.76 145.594 102.603 146.52 102.441C148.171 102.154 149.849 101.855 151.541 101.55C152.046 101.456 152.549 101.367 153.056 101.273C156.216 100.69 159.44 100.074 162.72 99.4202C163.138 99.3401 163.557 99.2556 163.975 99.1732C164.875 98.9923 165.784 98.8066 166.693 98.6209C167.497 98.4563 168.308 98.2894 169.118 98.1202C169.983 97.9416 170.852 97.7581 171.719 97.5749C172.154 97.4832 172.591 97.3915 173.028 97.2952C173.465 97.2034 173.902 97.1094 174.341 97.0154C175.074 96.8579 175.805 96.7005 176.531 96.5405C177.074 96.4207 177.619 96.303 178.162 96.1809C179.083 95.9789 179.997 95.7766 180.908 95.5674C181.611 95.4099 182.311 95.2525 183.004 95.095C184.015 94.8647 185.02 94.6343 186.019 94.4017C186.312 94.3311 186.609 94.2654 186.9 94.1948C187.013 94.1691 187.125 94.1431 187.238 94.1173C187.598 94.0327 187.957 93.9482 188.316 93.861C188.786 93.753 189.254 93.6424 189.719 93.5295C190.283 93.3955 190.845 93.2592 191.404 93.1275C193.051 92.7302 194.679 92.333 196.289 91.931C196.85 91.7923 197.41 91.6535 197.962 91.5103C198.859 91.2845 199.752 91.059 200.635 90.8333C201.521 90.6076 202.4 90.382 203.27 90.1517C203.563 90.0765 203.852 90.0014 204.141 89.9237C204.548 89.8202 204.947 89.7145 205.347 89.6087C205.864 89.4724 206.378 89.3361 206.89 89.1975C209.106 88.6074 211.27 88.0127 213.382 87.4205C213.589 87.3617 213.796 87.3031 214.003 87.2465C214.604 87.0773 215.203 86.9079 215.798 86.7364C216.181 86.6261 216.564 86.5155 216.947 86.4049C217.349 86.2898 217.75 86.1746 218.15 86.0594C218.709 85.8925 219.263 85.7302 219.811 85.5682C220.116 85.4836 220.419 85.3919 220.722 85.3001C221.006 85.2155 221.286 85.131 221.568 85.0487C222.531 84.762 223.481 84.4728 224.416 84.1859C224.839 84.0542 225.262 83.925 225.678 83.7933C226.587 83.5112 227.484 83.2292 228.363 82.9494C229.038 82.7356 229.703 82.517 230.358 82.303C231.62 81.8917 232.846 81.4826 234.04 81.0784C242.905 78.0604 249.827 75.2161 254.146 72.7693H254.148C255.753 71.8596 256.993 71.0087 257.844 70.2213C257.849 70.2213 257.849 70.2165 257.851 70.2165C258.276 69.6358 258.699 69.0531 259.118 68.4653C268.901 54.7922 277.325 39.403 284.296 23.0311C295.699 -3.73723 303.223 -33.1333 306.481 -61.9418C297.507 -61.8669 288.369 -61.7211 279.177 -61.5165Z" fill="#E28569"/>
  <path d="M284.297 23.0308C277.326 39.4025 268.903 54.7917 259.119 68.465C258.701 69.0526 258.278 69.6355 257.852 70.2162C257.85 70.2162 257.85 70.221 257.845 70.221C256.994 71.0084 255.754 71.8594 254.149 72.769H254.147C249.828 75.216 242.906 78.0601 234.041 81.0782C232.848 81.4825 231.621 81.8915 230.359 82.3027C229.704 82.5167 229.039 82.7351 228.365 82.9491C227.486 83.2289 226.588 83.511 225.679 83.793C225.263 83.9247 224.84 84.0539 224.417 84.1857C223.482 84.4723 222.533 84.7615 221.569 85.0484C221.287 85.1307 221.008 85.2153 220.723 85.2999C220.42 85.3916 220.117 85.4833 219.812 85.5679C219.264 85.7302 218.71 85.8923 218.151 86.0592C217.751 86.1743 217.349 86.2895 216.948 86.4047C216.565 86.5152 216.182 86.6256 215.799 86.7362C215.204 86.9079 214.605 87.0771 214.004 87.2462C213.797 87.3026 213.59 87.3614 213.383 87.4203C211.271 88.0127 209.107 88.6074 206.891 89.1972C206.379 89.3358 205.865 89.4722 205.348 89.6085C204.948 89.7142 204.549 89.82 204.142 89.9234C203.853 90.0009 203.564 90.0763 203.271 90.1514C202.401 90.3818 201.523 90.6075 200.637 90.833C199.753 91.0588 198.86 91.2843 197.963 91.51C197.411 91.6535 196.851 91.7921 196.29 91.9307C194.68 92.3327 193.052 92.73 191.405 93.1272C190.846 93.2589 190.284 93.3952 189.72 93.5293C189.255 93.6421 188.788 93.7525 188.318 93.8607C187.958 93.9476 187.599 94.0325 187.239 94.1171C187.126 94.1428 187.014 94.1688 186.901 94.1945C186.61 94.2651 186.314 94.3308 186.02 94.4014C185.021 94.634 184.016 94.8644 183.005 95.0947C182.312 95.2522 181.612 95.4097 180.91 95.5671C179.998 95.7763 179.084 95.9784 178.163 96.1807C177.62 96.303 177.075 96.4204 176.532 96.5402C175.806 96.7 175.076 96.8574 174.343 97.0151C173.903 97.1091 173.466 97.2032 173.029 97.2949C172.592 97.3912 172.155 97.4829 171.72 97.5747C170.853 97.7579 169.984 97.9413 169.119 98.1199C168.309 98.2891 167.498 98.456 166.695 98.6206C165.785 98.8063 164.876 98.9921 163.976 99.173C163.558 99.2553 163.14 99.3399 162.721 99.4199C159.441 100.073 156.217 100.689 153.057 101.272C152.55 101.366 152.047 101.456 151.542 101.549C149.85 101.855 148.172 102.154 146.521 102.44C145.595 102.602 144.676 102.76 143.765 102.913C143.224 103.002 142.686 103.091 142.15 103.183L142.148 103.185C141.796 103.242 141.446 103.3 141.093 103.354C139.486 103.62 137.895 103.874 136.33 104.116C135.08 104.311 133.845 104.499 132.625 104.678C130.186 105.038 127.813 105.371 125.51 105.675C125.153 105.722 124.796 105.769 124.442 105.813C124.084 105.86 123.732 105.907 123.379 105.95C123.008 105.997 122.639 106.044 122.273 106.088C119.712 106.408 117.252 106.685 114.897 106.925C114.38 106.981 113.866 107.031 113.358 107.082H113.347C104.044 107.98 96.5772 108.234 91.643 107.785H91.6407C90.1299 107.647 88.8587 107.444 87.8414 107.172C86.9368 106.661 86.0298 106.145 85.1277 105.618C85.1042 105.601 85.0808 105.59 85.0571 105.576C26.7804 71.5748 -22.8249 3.51421 -39.0537 -57.7864C-33.4476 -59.0275 -27.5945 -59.5164 -21.5748 -59.1472C-16.73 -58.8534 -11.5913 -58.4445 -6.19662 -57.9696C9.94056 -56.5498 28.4016 -54.5354 48.3148 -53.132C63.9281 -52.0272 80.4412 -51.3033 97.4267 -51.5383C108.172 -51.6863 119.105 -52.2199 130.124 -53.2824C136.952 -53.9405 144.389 -54.5915 152.307 -55.2193H152.309C152.309 -55.2193 153.122 -53.8702 154.722 -51.5217C165.418 -35.8321 211.273 24.3848 284.297 23.0308Z" fill="#D3755F"/>
  <g opacity="0.7">
  <path d="M131.889 88.4152L99.7683 98.9778C99.7683 98.9778 98.9406 98.17 97.424 96.6266C84.5994 83.5857 22.4968 17.9632 -6.19727 -57.9698C9.94129 -56.551 28.4011 -54.5359 48.3137 -53.1316C64.9559 -13.7448 91.0566 32.2262 129.953 85.7571C130.595 86.643 131.241 87.5262 131.889 88.4152Z" fill="white"/>
  </g>
  <path d="M279.177 -61.5168C272.699 0.47179 253.426 54.3675 249.458 64.9851C248.992 66.2301 248.738 66.8786 248.738 66.8786L215.121 70.4806C215.317 69.5425 215.514 68.6043 215.708 67.6719C225.925 18.4262 231.207 -23.801 232.715 -60.0083C248.051 -60.6538 263.695 -61.1722 279.177 -61.5168Z" fill="white"/>
  <g opacity="0.9">
  <path d="M196.733 75.4174L160.861 83.1482C160.624 82.8326 159.655 81.2517 158.089 78.556C149.059 63.016 120.182 10.374 97.4272 -51.5392C108.171 -51.6868 119.105 -52.2196 130.124 -53.2821C147.605 -54.9701 169.061 -56.5944 192.452 -57.9728C194.493 -14.0257 195.662 30.8276 196.62 70.6833C196.658 72.2702 196.696 73.8481 196.733 75.4174Z" fill="white"/>
  </g>
  <path d="M259.118 68.4648C259.2 68.2007 259.214 67.9485 259.163 67.7106C257.909 61.8892 217.903 65.5693 169.804 75.9331C121.706 86.2969 83.732 99.4197 84.9852 105.241L86.6218 112.842L113.378 107.076C129.422 105.524 150.922 102.063 174.343 97.0161C197.763 91.9696 218.78 86.27 234.04 81.0773L260.799 75.3113L259.118 68.4648Z" fill="#523456"/>
  <path d="M260.799 75.311C260.851 75.5492 260.837 75.8011 260.755 76.0652C260.595 76.6031 260.168 77.1882 259.489 77.8171C259.486 77.8176 259.484 77.8208 259.482 77.8213C252.382 84.3753 218.054 95.5506 175.98 104.616C134.803 113.489 99.5543 117.466 89.4777 114.772C88.0457 114.391 87.1245 113.874 86.7628 113.217C86.6971 113.095 86.6495 112.972 86.6215 112.841C85.368 107.02 123.342 93.8973 171.441 83.5333C219.539 73.1697 259.546 69.4896 260.799 75.311Z" fill="#2F1A31"/>
  <path d="M162.137 93.2935C162.429 96.4193 162.722 99.545 163.015 102.671C163.718 110.176 164.421 117.681 165.124 125.186C165.971 134.224 166.818 143.262 167.664 152.301C168.4 160.15 169.135 167.999 169.87 175.849C170.228 179.663 170.535 183.485 170.942 187.295C170.948 187.348 170.953 187.401 170.957 187.455C171.11 189.083 173.674 189.099 173.52 187.455C173.227 184.329 172.934 181.204 172.641 178.078C171.938 170.573 171.235 163.068 170.532 155.562C169.685 146.524 168.838 137.486 167.992 128.448C167.257 120.599 166.521 112.749 165.786 104.9C165.429 101.086 165.121 97.2634 164.714 93.4541C164.708 93.4008 164.704 93.3473 164.699 93.2937C164.547 91.665 161.983 91.6489 162.137 93.2935Z" fill="#2F1A31"/>
  <path d="M189.487 86.4564C201.299 109.193 213.85 131.545 227.125 153.459C230.873 159.647 234.68 165.798 238.541 171.916C239.419 173.308 271.637 222.023 240.753 170.622C227.079 148.956 214.108 126.846 201.88 104.33C198.427 97.9724 195.035 91.5825 191.699 85.1627C190.939 83.6984 188.727 84.993 189.487 86.4564Z" fill="#2F1A31"/>
  <path d="M122.231 99.704C131.184 109.792 139.368 120.58 147.472 131.352C154.811 141.105 162.015 150.96 169.124 160.882C170.54 162.859 171.955 164.838 173.358 166.825C174.302 168.162 176.524 166.882 175.57 165.531C171.528 159.805 167.422 154.124 163.295 148.459C154.957 137.013 146.503 125.643 137.75 114.508C133.314 108.864 128.809 103.262 124.043 97.8914C122.946 96.6554 121.139 98.4737 122.231 99.704Z" fill="#2F1A31"/>




  <g id="basketAndCat">
    <g id="cat">
      <path id="tail" d="M217.293 172.198C217.781 173.754 218.354 176.086 218.993 178.772C219.599 178.772 220.209 178.625 220.768 178.324L221.311 178.033C221.533 177.913 221.763 177.758 221.971 177.614C223.309 176.688 224.453 176.592 225.44 177.11C225.92 172.621 227.261 168.686 228.457 166.23C231.744 159.484 240.437 153.424 246.686 161.958C248.221 164.054 248.401 169.623 240.459 172.237C232.845 174.742 237.055 184.116 237.655 188.056C237.703 188.374 237.755 188.685 237.829 188.999C238.718 192.772 239.288 201.702 235.693 205.711C231.666 210.201 231.899 180.501 225.44 177.11C225.04 180.844 225.237 184.961 226.608 188.926C228.2 193.531 228.355 196.218 228.388 198.028C228.422 199.881 227.594 202.662 226.277 201.359C223.559 198.671 220.961 187.042 218.993 178.772C218.023 178.772 217.064 178.397 216.342 177.678C215.435 176.775 215.051 175.472 215.323 174.222L215.689 172.535C216.012 171.05 216.837 170.749 217.293 172.198Z" fill="#352C35"/>
      <animateTransform
      xlink:href="#tail"
      attributeName="transform"
      type="rotate"
      values="0 0 0;-5 1 1; 5 -1 -1; 0 0 0"
      keyTimes="0; 0.3; 0.6; 1"
      dur="8s"
      repeatCount="indefinite"
      additive="sum"
      />

      <g filter="url(#filter0_d_558_460)">
      <path d="M191.253 227.434C170.844 230.4 161.826 212.513 159.927 202.344C182.996 190.342 231.572 176.174 233.411 192.221C235.116 207.097 231.518 212.112 228.526 215.412C222.116 222.483 202.716 226.273 191.253 227.434Z" fill="white"/>
      <path d="M224.397 175.863C222.207 173.217 218.869 163.858 217.009 157.131L211.811 141.045C211.345 139.755 208.628 136.346 201.914 134.921C195.531 133.566 179.688 138.515 172.87 140.872C172.253 141.085 170.127 143.305 168.152 145.642C167.831 146.022 167.462 146.358 167.049 146.637L165.686 147.558C165.467 147.706 165.249 147.863 165.09 148.072C164.277 149.136 164.775 150.558 164.91 151.995L165.827 161.788C166.037 167.491 166.136 172.696 165.219 178.128L161.297 190.691C161.221 190.932 161.126 191.165 161.026 191.397C159.726 194.415 159.711 198.911 159.927 202.344C160.062 204.486 161.637 206.261 163.766 206.673C189.917 211.735 217.365 202.151 230.689 195.286C232.546 194.329 233.596 192.185 233.005 190.208C232.083 187.119 230.623 184.653 229.843 183.531L224.397 175.863Z" fill="white"/>
      </g>
      <path d="M189.46 233.936L187.318 226.958L197.26 224.733L198.297 231.959L189.46 233.936Z" fill="#ECECEC"/>
      <path d="M208.239 229.734L206.098 222.756L216.04 220.531L217.076 227.757L208.239 229.734Z" fill="#ECECEC"/>
      <path d="M185.782 227.875C173.73 228.079 165.705 218.033 162.433 210.561C162.007 209.588 163.233 208.9 164.024 209.609C171.978 216.729 183.474 218.607 188.92 218.569C192.887 219.019 203.4 219 213.711 215.316C222.326 212.238 228.681 202.38 231.866 195.577C232.305 194.64 233.755 194.832 233.844 195.863C235.034 209.652 229.926 215.364 223.893 219.348C217.202 223.14 199.649 227.641 185.782 227.875Z" fill="#D7D4D4"/>
      <path d="M151.235 163.251L165.828 161.788L164.678 149.5C162.4 151.23 156.595 158.627 152.2 160.422C148.409 161.97 150.182 163.313 151.235 163.251Z" fill="#352C35"/>
      <path d="M151.79 163.361L165.826 161.788L166.47 152.758C164.023 154.525 162.62 159.369 152.978 161.527C148.898 162.44 150.531 163.294 151.79 163.361Z" fill="url(#paint0_linear_558_460)"/>
      <path d="M225.204 148.503L221.602 146.695C215.524 143.35 214.73 141.228 210.858 139.167C206.987 137.107 212.912 150.73 216.39 156.747L216.898 156.633C220.112 155.914 227.602 153.506 230.266 152.074C232.93 150.642 225.822 148.887 225.204 148.503Z" fill="#352C35"/>
      <path d="M228.196 150.624C231.711 151.092 230.032 152.479 228.753 153.113C227.656 153.928 219.58 155.922 215.882 156.861L212.466 148.739C216.447 149.068 224.68 150.156 228.196 150.624Z" fill="url(#paint1_linear_558_460)"/>
      <path d="M197.267 164.162C191.726 160.722 188.059 148.78 189.75 140.414C189.924 139.555 190.388 138.779 191.062 138.219C198.552 131.985 207.163 135.836 211.107 139.049C211.784 139.601 212.218 140.379 212.448 141.222L216.877 157.451C217.529 159.841 216.336 162.372 214.021 163.255C202.737 167.558 199.499 165.548 197.267 164.162L197.267 164.162Z" fill="#352C35"/>
      <path d="M182.547 167.455C192.073 164.585 189.342 150.671 186.26 141.497C185.581 139.474 183.61 138.163 181.497 138.456C171.491 139.843 166.275 145.188 164.588 148.596C164.265 149.249 164.213 149.989 164.301 150.711L166.048 164.983C166.081 165.251 166.127 165.519 166.237 165.766C167.348 168.251 172.285 170.547 182.547 167.455Z" fill="#352C35"/>
      <path d="M187.81 138.575C175.35 140.107 167.745 146.028 164.405 150.027C163.762 150.797 162.245 150.545 162.026 149.566C161.956 149.254 162.032 148.928 162.231 148.678L166.101 143.837C166.363 143.509 166.665 143.216 167 142.964L171.864 139.303C172.236 139.023 172.645 138.796 173.08 138.63L181.633 135.35C182.036 135.195 182.458 135.093 182.887 135.047L194.94 133.747C195.489 133.688 196.044 133.72 196.582 133.842L211.945 137.326C212.751 137.509 213.498 137.888 214.121 138.43L221.558 144.9C221.698 145.022 221.796 145.186 221.837 145.368C222.033 146.243 220.866 146.887 220.178 146.313C213.313 140.597 201.742 136.862 187.81 138.575Z" fill="black"/>
      <path d="M187.602 111.441C162.569 114.842 159.524 134.597 161.576 147.562C161.748 148.646 163.79 148.698 164.326 147.739C167.122 142.744 173.876 136.928 187.761 135.972C205.902 134.724 217.644 140.593 221.736 144.051C222.092 130.556 216.15 107.562 187.602 111.441Z" fill="#FF0000"/>
      <path d="M195.701 110.008L181.458 111.41C180.662 111.488 179.977 112.005 179.683 112.748C179.551 113.083 179.505 113.445 179.55 113.801L181.613 130.142C181.959 132.887 184.469 134.829 187.214 134.474L194.222 133.569C196.813 133.235 198.71 130.961 198.575 128.352L197.713 111.738C197.697 111.434 197.606 111.138 197.447 110.878C197.08 110.277 196.402 109.939 195.701 110.008Z" fill="white"/>
      <path d="M162.245 150.546L161.59 147.622C161.584 147.594 161.582 147.566 161.584 147.537C161.911 143.273 167.509 134.238 187.377 131.876C207.227 129.517 218.859 137.981 221.689 142.43C221.714 142.468 221.727 142.509 221.732 142.554L222.079 145.779C222.114 146.095 221.658 146.271 221.456 146.024C217.746 141.48 206.928 134.663 188.491 136.854C171.306 138.897 164.797 145.932 163.141 150.555C163.024 150.88 162.32 150.883 162.245 150.546Z" fill="url(#paint2_linear_558_460)"/>
      <path d="M192.136 118.298C192.136 118.298 191.514 118.114 191.428 118.089C191.342 118.063 191.259 118.064 191.171 118.093C191.083 118.122 191.025 118.175 190.994 118.212C190.963 118.249 189.789 119.63 189.789 119.63C189.789 119.63 188.399 118.512 188.354 118.475C188.309 118.439 188.257 118.403 188.151 118.386C188.045 118.37 187.957 118.399 187.904 118.431C187.851 118.456 187.32 118.738 187.247 118.772C187.174 118.807 187.11 118.874 187.069 118.952C187.04 119.016 187.018 119.086 187.026 119.167C187.019 119.093 187.187 120.913 187.187 120.913L188.434 121.463L188.294 119.945L188.896 120.429C188.941 120.465 188.991 120.487 189.048 120.502C189.091 120.511 189.127 120.521 189.189 120.515C189.251 120.509 190.533 120.385 190.533 120.385C190.582 120.38 190.629 120.369 190.669 120.345C190.715 120.32 190.761 120.288 190.811 120.229C190.862 120.17 191.307 119.646 191.307 119.646L191.447 121.164L192.572 120.384C192.572 120.384 192.428 118.825 192.412 118.651C192.402 118.468 192.286 118.344 192.136 118.298Z" fill="#FF0000"/>
      <path d="M185.362 122.751C185.362 122.751 185.502 123.367 185.524 123.453C185.546 123.539 185.587 123.61 185.655 123.671C185.724 123.732 185.802 123.751 185.851 123.76C185.901 123.769 187.701 124.055 187.701 124.055C187.701 124.055 187.389 125.8 187.38 125.848C187.371 125.903 187.363 125.965 187.4 126.063C187.436 126.161 187.512 126.222 187.563 126.251C187.614 126.28 188.123 126.59 188.189 126.63C188.256 126.671 188.349 126.696 188.438 126.688C188.507 126.681 188.582 126.66 188.647 126.613C188.582 126.66 190.118 125.589 190.118 125.589L189.995 124.253L188.713 125.143L188.845 124.385C188.854 124.329 188.849 124.276 188.836 124.216C188.825 124.17 188.816 124.143 188.776 124.086C188.736 124.036 187.995 123.017 187.995 123.017C187.964 122.979 187.933 122.948 187.896 122.925C187.852 122.895 187.801 122.873 187.723 122.86C187.653 122.847 186.961 122.738 186.961 122.738L188.242 121.847L186.995 121.298C186.995 121.298 185.681 122.211 185.53 122.314C185.381 122.43 185.327 122.598 185.362 122.751Z" fill="#FF0000"/>
      <path d="M192.644 126.205C192.644 126.205 193.125 125.772 193.189 125.712C193.253 125.651 193.295 125.579 193.316 125.496C193.335 125.406 193.315 125.334 193.303 125.287C193.285 125.242 192.658 123.574 192.658 123.574C192.658 123.574 194.361 122.948 194.415 122.929C194.469 122.911 194.529 122.884 194.598 122.803C194.667 122.722 194.686 122.632 194.688 122.571C194.689 122.51 194.712 121.925 194.719 121.849C194.725 121.767 194.703 121.681 194.648 121.612C194.608 121.555 194.555 121.506 194.482 121.472C194.555 121.506 192.85 120.75 192.85 120.75L191.725 121.53L193.147 122.158L192.406 122.426C192.352 122.445 192.307 122.477 192.261 122.515C192.229 122.545 192.204 122.575 192.182 122.631C192.152 122.688 191.611 123.832 191.611 123.832C191.594 123.874 191.577 123.916 191.574 123.964C191.572 124.019 191.577 124.072 191.604 124.137C191.631 124.203 191.871 124.843 191.871 124.843L190.449 124.216L190.573 125.552C190.573 125.552 192.031 126.197 192.197 126.269C192.358 126.348 192.528 126.311 192.644 126.205Z" fill="#FF0000"/>
      <ellipse cx="178.539" cy="159.348" rx="7.80061" ry="7.65132" transform="rotate(-12.6122 178.539 159.348)" fill="#FFAB34"/>
      <ellipse cx="178.539" cy="159.348" rx="7.80061" ry="7.65132" transform="rotate(-12.6122 178.539 159.348)" fill="#FFAB34"/>
      <ellipse cx="178.539" cy="159.348" rx="7.80061" ry="7.65132" transform="rotate(-12.6122 178.539 159.348)" fill="#FFAB34"/>
      
      <ellipse id="leftEyeSight" cx="179.723" cy="159.32" rx="4.68036" ry="4.59079" transform="rotate(-12.6122 179.723 159.32)" fill="#3B323B"/>
      <animateTransform
      xlink:href="#leftEyeSight"
      attributeName="transform"
      type="translate"
      values="0, 0; -1, 0; 0, 0; 0, 0"
      keyTimes="0; 0.3; 0.6; 1"
      dur="2s"
      repeatCount="indefinite"
      additive="sum"
      />

      <ellipse id="leftEyeGlare" cx="175.061" cy="156.628" rx="2.08016" ry="2.04035" transform="rotate(-12.6122 175.061 156.628)" fill="white"/>
      <animateTransform
      xlink:href="#leftEyeGlare"
      attributeName="transform"
      type="translate"
      values="0, 0; 1.5, -1.5; 0, 0; 0, 0"
      keyTimes="0; 0.3; 0.6; 1"
      dur="2s"
      repeatCount="indefinite"
      additive="sum"
      />

      <ellipse cx="181.302" cy="159.551" rx="1.04081" ry="1.02089" transform="rotate(-12.6122 181.302 159.551)" fill="white"/>
      <ellipse cx="202.376" cy="155.236" rx="7.80061" ry="7.65132" transform="rotate(-12.6122 202.376 155.236)" fill="#FFAB34"/>
      <ellipse cx="202.376" cy="155.236" rx="7.80061" ry="7.65132" transform="rotate(-12.6122 202.376 155.236)" fill="#FFAB34"/>
      <ellipse cx="202.376" cy="155.236" rx="7.80061" ry="7.65132" transform="rotate(-12.6122 202.376 155.236)" fill="#FFAB34"/>
      
      <ellipse id="rightEyeSight" cx="201.346" cy="155.646" rx="4.68036" ry="4.59079" transform="rotate(-12.6122 201.346 155.646)" fill="#3B323B"/>
      <animateTransform
      xlink:href="#rightEyeSight"
      attributeName="transform"
      type="translate"
      values="0, 0; -1, 0; 0, 0; 0, 0"
      keyTimes="0; 0.3; 0.6; 1"
      dur="2s"
      repeatCount="indefinite"
      additive="sum"
      />
      
      <ellipse id="rightEyeGlare" cx="198.183" cy="155.353" rx="2.08016" ry="2.04035" transform="rotate(-12.6122 198.183 155.353)" fill="white"/>
      <animateTransform
      xlink:href="#rightEyeGlare"
      attributeName="transform"
      type="translate"
      values="0, 0; 1, -1; -1, 0; 0, 0"
      keyTimes="0; 0.3; 0.6; 1"
      dur="2s"
      repeatCount="indefinite"
      additive="sum"
      />

      <ellipse cx="203.29" cy="155.652" rx="1.04081" ry="1.02089" transform="rotate(-12.6122 203.29 155.652)" fill="white"/>
      <path d="M176.626 147.955C174.498 147.785 172.794 146.321 169.919 150.552C172.804 147.991 176.626 147.955 176.626 147.955Z" fill="#D9D9D9"/>
      <path d="M209.453 145.861C207.587 144.77 206.672 143.22 202.64 144.68C206.435 144.758 209.453 145.861 209.453 145.861Z" fill="#D9D9D9"/>
      <path d="M163.583 180.221C173.733 177.95 177.348 175.05 186.656 171.399" stroke="#8B828B" stroke-width="0.5" stroke-linecap="round"/>
      <path d="M167.544 174.108C177.694 171.837 177.075 171.452 186.94 170.29" stroke="#8B828B" stroke-width="0.5" stroke-linecap="round"/>
      <path d="M164.003 170.196C174.203 170.527 176.851 170.457 186.717 169.295" stroke="#8B828B" stroke-width="0.5" stroke-linecap="round"/>
      <path d="M196.831 167.183C206.547 165.357 209.914 163.733 220.113 164.064" stroke="#8B828B" stroke-width="0.5" stroke-linecap="round"/>
      <path d="M196.15 168.903C205.867 167.078 212.043 168.483 222.069 170.422" stroke="#8B828B" stroke-width="0.5" stroke-linecap="round"/>
      <path d="M196.371 169.899C204.652 171.182 199.131 170.327 214.17 173.234" stroke="#8B828B" stroke-width="0.5" stroke-linecap="round"/>
      <path d="M192.116 165.671L190.215 166.018C189.328 166.18 188.738 167.031 188.898 167.919C188.989 168.424 189.312 168.856 189.77 169.087L191.077 169.744C191.328 169.87 191.614 169.911 191.89 169.861C192.167 169.81 192.42 169.671 192.611 169.464L193.605 168.387C193.954 168.01 194.105 167.491 194.014 166.986C193.854 166.098 193.004 165.51 192.116 165.671Z" fill="#DB9089"/>
      <path d="M184.656 173.827C187.152 174.662 191.656 177.827 192.524 170.997C193.477 172.874 195.656 175.827 200.156 172.327" stroke="#7B727B" stroke-linecap="round" stroke-linejoin="round"/>
      <path d="M200.63 242.385L198.393 232.388C198.273 231.849 197.738 231.51 197.199 231.631L190.446 233.142C189.826 233.281 189.476 233.965 189.604 234.587C189.832 235.698 189.905 237.295 189.31 238.955C188.444 241.372 185.562 243.228 184.113 243.737C181.903 244.231 180.735 246.787 183.948 249.049C187.104 251.27 191.561 249.013 193.117 248.109L200.204 243.439C200.551 243.21 200.721 242.791 200.63 242.385Z" fill="#646665"/>
      <path d="M194.624 244.233C190.105 248.436 185.907 246.916 183.594 245.144C183.019 244.704 182.123 244.865 182.017 245.581C181.819 246.913 182.26 247.896 182.777 248.675C184.598 251.086 190.674 249.726 193.164 248.143L200.255 243.804C200.62 243.581 200.802 243.15 200.709 242.733L200.35 241.128C200.165 240.303 199.035 240.005 198.435 240.601C197.605 241.425 196.383 242.596 194.624 244.233Z" fill="#2F2E2F"/>
      <path d="M194.678 237.149C194.683 236.687 194.642 236.269 194.577 235.911C194.493 235.447 194.651 234.949 195.047 234.693L197.215 233.287C197.799 232.908 198.582 233.228 198.735 233.908L199.6 237.776C199.698 238.213 199.493 238.661 199.1 238.874L197.652 239.656C196.663 240.191 194.667 238.273 194.678 237.149Z" fill="#252322"/>
      <ellipse cx="189.742" cy="241.159" rx="0.283594" ry="0.280486" transform="rotate(-12.6122 189.742 241.159)" fill="#D9D9D9"/>
      <ellipse cx="192.159" cy="242.109" rx="0.283594" ry="0.280486" transform="rotate(-12.6122 192.159 242.109)" fill="#D9D9D9"/>
      <ellipse cx="190.615" cy="239.874" rx="0.283594" ry="0.280486" transform="rotate(-12.6122 190.615 239.874)" fill="#D9D9D9"/>
      <ellipse cx="193.24" cy="240.204" rx="0.283594" ry="0.280486" transform="rotate(-12.6122 193.24 240.204)" fill="#D9D9D9"/>
      <ellipse cx="191.476" cy="238.534" rx="0.283594" ry="0.280486" transform="rotate(-12.6122 191.476 238.534)" fill="#D9D9D9"/>
      <ellipse cx="194.176" cy="238.675" rx="0.283594" ry="0.280486" transform="rotate(-12.6122 194.176 238.675)" fill="#D9D9D9"/>
      <path d="M191.848 242.007L189.945 241.285" stroke="black" stroke-width="0.3" stroke-linecap="round"/>
      <path d="M193.051 240.194L190.803 239.945" stroke="black" stroke-width="0.3" stroke-linecap="round"/>
      <path d="M193.996 238.658L191.664 238.606" stroke="black" stroke-width="0.3" stroke-linecap="round"/>
      <path d="M210.572 240.161L208.335 230.164C208.214 229.625 208.554 229.09 209.092 228.97L215.846 227.459C216.466 227.32 217.074 227.79 217.224 228.407C217.49 229.509 218.105 230.986 219.35 232.233C221.164 234.051 224.562 234.501 226.09 234.345C228.3 233.85 230.446 235.665 228.503 239.079C226.594 242.434 221.601 242.291 219.807 242.137L211.406 240.932C210.994 240.873 210.662 240.566 210.572 240.161Z" fill="#646665"/>
      <path d="M216.795 239.272C222.674 241.148 225.824 237.984 227.161 235.396C227.494 234.752 228.373 234.516 228.775 235.119C229.521 236.239 229.541 237.316 229.405 238.242C228.785 241.199 222.709 242.558 219.782 242.187L211.518 241.284C211.093 241.237 210.744 240.925 210.651 240.508L210.292 238.903C210.107 238.078 211.003 237.327 211.799 237.61C212.901 238.002 214.506 238.541 216.795 239.272Z" fill="#2F2E2F"/>
      <path d="M213.727 232.887C213.526 232.471 213.384 232.075 213.29 231.723C213.169 231.268 212.814 230.885 212.347 230.822L209.786 230.474C209.096 230.38 208.524 231.003 208.676 231.683L209.541 235.551C209.639 235.988 210.015 236.306 210.462 236.331L212.105 236.422C213.228 236.484 214.216 233.899 213.727 232.887Z" fill="#252322"/>
      <ellipse cx="0.283594" cy="0.280486" rx="0.283594" ry="0.280486" transform="matrix(-0.97587 0.218351 0.218351 0.97587 220.113 234.075)" fill="#D9D9D9"/>
      <ellipse cx="0.283594" cy="0.280486" rx="0.283594" ry="0.280486" transform="matrix(-0.97587 0.218351 0.218351 0.97587 218.333 235.965)" fill="#D9D9D9"/>
      <ellipse cx="0.283594" cy="0.280486" rx="0.283594" ry="0.280486" transform="matrix(-0.97587 0.218351 0.218351 0.97587 218.777 233.284)" fill="#D9D9D9"/>
      <ellipse cx="0.283594" cy="0.280486" rx="0.283594" ry="0.280486" transform="matrix(-0.97587 0.218351 0.218351 0.97587 216.542 234.702)" fill="#D9D9D9"/>
      <ellipse cx="0.283594" cy="0.280486" rx="0.283594" ry="0.280486" transform="matrix(-0.97587 0.218351 0.218351 0.97587 217.428 232.439)" fill="#D9D9D9"/>
      <ellipse cx="0.283594" cy="0.280486" rx="0.283594" ry="0.280486" transform="matrix(-0.97587 0.218351 0.218351 0.97587 215.047 233.718)" fill="#D9D9D9"/>
      <path d="M218.356 236.075L219.77 234.611" stroke="black" stroke-width="0.3" stroke-linecap="round"/>
      <path d="M216.495 234.949L218.422 233.766" stroke="black" stroke-width="0.3" stroke-linecap="round"/>
      <path d="M214.985 233.961L217.072 232.92" stroke="black" stroke-width="0.3" stroke-linecap="round"/>
      <path d="M182.519 197.505L185.017 198.345L184.476 196.251L182.519 197.505Z" fill="#352C35"/>
      <path d="M179.063 199.074L181.424 197.875L179.498 196.83L179.063 199.074Z" fill="#352C35"/>
      <path d="M188.006 202.255L189.661 204.264L190.334 202.195L188.006 202.255Z" fill="#352C35"/>
      <path d="M186.181 199.307L188.15 201.023L188.471 198.878L186.181 199.307Z" fill="#352C35"/>
      <path d="M187.83 200.655C187.791 199.788 187.425 199.476 186.916 199.431C186.318 199.306 185.55 199.565 184.999 199.861C185.155 196.571 182.775 197.493 181.565 198.365C178.845 196.619 178.923 199.872 179.303 201.717C173.627 203.16 172.36 200.323 172.436 198.723L171.852 181.538C168.055 182.775 160.304 188.538 159.678 201.698C159.051 214.858 175.57 211.424 183.908 208.061L188.204 206.156C189.425 205.055 191.033 202.687 187.7 202.018C187.822 201.461 187.859 201.013 187.83 200.655Z" fill="white"/>
      <path id="rope" d="M137.295 141.747C141.468 143.474 147.196 152.544 136.725 175.013C126.659 196.614 144.576 195.311 156.206 191.955C157.121 191.691 157.993 191.294 158.884 190.955C159.894 190.572 161.116 190.135 161.921 189.403M161.921 189.403C162.702 188.692 163.338 187.979 163.57 187.392C164.315 185.513 166.054 177.285 156.797 182.533C150.885 185.885 156.349 188.21 161.921 189.403ZM161.921 189.403C163.328 189.704 164.742 189.933 165.982 190.088C171.893 191.271 184.118 195.579 185.735 203.353C187.351 211.127 201.516 203.591 208.397 198.851" stroke="black"/>
      <animate xlink:href="#rope"
      attributeName="d"
      attributeType="XML"
      values="
        M137.295 141.747C141.468 143.474 147.196 152.544 136.725 175.013C126.659 196.614 144.576 195.311 156.206 191.955C157.121 191.691 157.993 191.294 158.884 190.955C159.894 190.572 161.116 190.135 161.921 189.403M161.921 189.403C162.702 188.692 163.338 187.979 163.57 187.392C164.315 185.513 166.054 177.285 156.797 182.533C150.885 185.885 156.349 188.21 161.921 189.403ZM161.921 189.403C163.328 189.704 164.742 189.933 165.982 190.088C171.893 191.271 184.118 195.579 185.735 203.353C187.351 211.127 201.516 203.591 208.397 198.851;
        M146.295 131.747C141.468 143.474 147.196 152.544 136.725 175.013C126.659 196.614 144.576 195.311 156.206 191.955C157.121 191.691 157.993 191.294 158.884 190.955C159.894 190.572 161.116 190.135 161.921 189.403M161.921 189.403C162.702 188.692 163.338 187.979 163.57 187.392C164.315 185.513 166.054 177.285 156.797 182.533C150.885 185.885 156.349 198.21 161.921 189.403ZM161.921 189.403C163.328 189.704 164.742 189.933 165.982 190.088C171.893 191.271 184.118 195.579 185.735 203.353C187.351 211.127 201.516 203.591 208.397 198.851;
        M129.295 142.747C141.468 143.474 147.196 152.544 136.725 175.013C126.659 196.614 144.576 195.311 156.206 191.955C157.121 191.691 157.993 191.294 158.884 190.955C159.894 190.572 161.116 190.135 161.921 189.403M161.921 189.403C162.702 188.692 163.338 187.979 163.57 187.392C164.315 185.513 166.054 177.285 156.797 182.533C150.885 185.885 156.349 188.21 161.921 189.403ZM161.921 189.403C163.328 189.704 164.742 189.933 165.982 190.088C171.893 191.271 184.118 195.579 185.735 203.353C187.351 211.127 201.516 203.591 208.397 198.851;
        M137.295 141.747C141.468 143.474 147.196 152.544 136.725 175.013C126.659 196.614 144.576 195.311 156.206 191.955C157.121 191.691 157.993 191.294 158.884 190.955C159.894 190.572 161.116 190.135 161.921 189.403M161.921 189.403C162.702 188.692 163.338 187.979 163.57 187.392C164.315 185.513 166.054 177.285 156.797 182.533C150.885 185.885 156.349 188.21 161.921 189.403ZM161.921 189.403C163.328 189.704 164.742 189.933 165.982 190.088C171.893 191.271 184.118 195.579 185.735 203.353C187.351 211.127 201.516 203.591 208.397 198.851
      "
      keyTimes="0; 0.3; 0.6; 1"
      dur="6s"
      repeatCount="indefinite"
      />
      <animateTransform
      xlink:href="#rope"
      attributeName="transform"
      type="scale"
      values="1,1;1,1.2;1,1; 1,1"
      keyTimes="0; 0.3; 0.6; 1"
      dur="6s"
      repeatCount="indefinite"
      additive="sum"
      />

      <g filter="url(#filter1_d_558_460)">
      <path d="M187.831 200.655C187.793 199.788 187.426 199.476 186.917 199.431C186.319 199.306 185.551 199.565 185 199.861C185.157 196.571 182.776 197.493 181.567 198.365C178.846 196.619 178.924 199.872 179.304 201.716C173.628 203.16 173.104 199.434 171.77 198.013L165.446 191.339C159.718 193.879 161.567 191.466 159.744 200.327C157.082 213.261 175.571 211.424 183.909 208.061L188.205 206.155C189.426 205.055 191.034 202.687 187.701 202.018C187.823 201.461 187.86 201.013 187.831 200.655Z" fill="white"/>
      </g>
      <path d="M211.286 194.027L208.718 194.686L209.455 192.638L211.286 194.027Z" fill="#352C35"/>
      <path d="M214.582 195.839L212.343 194.475L214.362 193.572L214.582 195.839Z" fill="#352C35"/>
      <path d="M205.368 198.368L203.528 200.252L203.054 198.142L205.368 198.368Z" fill="#352C35"/>
      <path d="M207.468 195.561L205.342 197.129L205.226 194.969L207.468 195.561Z" fill="#352C35"/>
      <path d="M205.696 196.786C205.817 195.925 206.212 195.64 206.723 195.632C207.331 195.55 208.071 195.864 208.593 196.198C208.749 192.908 211.034 193.997 212.157 194.953C215.034 193.409 214.646 196.644 214.093 198.455C219.612 200.301 221.145 197.564 221.221 195.965L223.436 178.88C227.102 180.385 234.279 186.685 233.653 199.845C233.027 213.005 216.891 208.397 208.901 204.448L204.8 202.241C203.688 201.057 202.311 198.582 205.696 198.154C205.627 197.59 205.633 197.14 205.696 196.786Z" fill="white"/>
      <g filter="url(#filter2_d_558_460)">
      <path d="M205.695 196.786C205.816 195.925 206.211 195.64 206.723 195.632C207.331 195.55 208.071 195.864 208.592 196.198C208.749 192.908 211.033 193.997 212.156 194.953C215.033 193.409 214.646 196.644 214.092 198.455C219.612 200.302 220.488 196.626 221.953 195.305L228.138 183.168C233.605 186.111 232.743 189.513 233.718 198.474C235.141 211.554 216.89 208.397 208.9 204.448L204.8 202.241C203.688 201.057 202.31 198.582 205.695 198.154C205.626 197.59 205.632 197.14 205.695 196.786Z" fill="white"/>
      </g>

      <g id="heartBallon">
        <path d="M133.911 144.442L132.72 136.191L137.013 131.955L142.924 141.549L133.911 144.442Z" fill="url(#paint3_linear_558_460)"/>
        <path d="M124.384 78.4375C147.549 96.5602 161.47 107.802 149.967 122.505C138.465 137.208 139.321 145.197 95.8178 129.38C63.4139 116.32 59.4253 88.823 70.9275 74.1202C82.4298 59.4174 101.218 60.3148 124.384 78.4375Z" fill="url(#paint4_linear_558_460)"/>
        <path d="M159.76 104.59C150.015 131.506 139.386 142.562 120.992 136.839C104.401 128.281 96.7119 130.612 104.137 84.9219C110.923 50.6509 130.885 41.1274 147.475 49.6854C161.929 57.141 168.777 72.5351 163.111 94.4476C162.273 97.6875 161.161 101.07 159.76 104.59Z" fill="url(#paint5_linear_558_460)"/>
        <path d="M95.8178 129.38C107.955 133.793 116.639 136.353 123.103 137.431C140.211 141.678 150.394 130.459 159.76 104.59C161.161 101.07 162.273 97.6875 163.111 94.4476C168.777 72.5351 161.929 57.141 147.475 49.6854C162.791 70.7743 167.091 85.8321 162.088 96.9844C157.911 106.296 147.249 112.885 131.101 117.988C75.0866 129.998 67.646 93.7468 70.9275 74.1202C59.4253 88.823 63.4139 116.32 95.8178 129.38Z" fill="url(#paint6_linear_558_460)"/>

        <g id="roundGlare" filter="url(#filter3_f_558_460)">
        <ellipse cx="122.093" cy="74.7986" rx="6.39344" ry="5.7541" transform="rotate(-12.6122 122.093 74.7986)" fill="#F04951"/>
        </g>
        <animateTransform
        xlink:href="#roundGlare"
        attributeName="transform"
        type="scale"
        values="1,1;1,1.15;1,0.9; 1,1"
        keyTimes="0; 0.3; 0.6; 1"
        dur="7s"
        repeatCount="indefinite"
        additive="sum"
        />
        <animate
        xlink:href="#roundGlare"
        attributeName="opacity"
        values="1;1;0.4;1"
        keyTimes="0; 0.3; 0.6; 1"
        dur="7s"
        repeatCount="indefinite"
        />

        <g id="lineGlare" filter="url(#filter4_f_558_460)">
        <path d="M134.209 61.6052C129.883 63.5956 128.034 62.1322 127.39 60.0577C126.742 57.9711 128.297 55.9358 130.338 55.1562C139.938 51.4894 146.97 56.3088 149.462 59.5026C152.634 62.9422 158.355 71.1399 155.866 76.4139C154.104 80.1482 151.93 79.7921 150.334 78.5199C149.099 77.5355 148.852 75.8439 148.849 74.2645C148.841 67.7403 145.942 64.013 144.266 62.6307C142.391 61.0847 140.862 58.5443 134.209 61.6052Z" fill="#F04951"/>
        </g>
        <animateTransform
        xlink:href="#lineGlare"
        attributeName="transform"
        type="scale"
        values="1,1;1,1.15;1,0.9; 1,1"
        keyTimes="0; 0.3; 0.6; 1"
        dur="7s"
        repeatCount="indefinite"
        additive="sum"
        />
        <animate
        xlink:href="#lineGlare"
        attributeName="opacity"
        values="1;1;0.4;1"
        keyTimes="0; 0.3; 0.6; 1"
        dur="7s"
        repeatCount="indefinite"
        />

      </g>
       <animateTransform
        xlink:href="#heartBallon"
        attributeName="transform"
        type="rotate"
        values="0 0 0;-3 1 1; 3 -1 -1; 0 0 0"
        keyTimes="0; 0.3; 0.6; 1"
        dur="6s"
        repeatCount="indefinite"
        additive="sum"
        />


    </g>
    <animateTransform
    xlink:href="#cat"
    attributeName="transform"
    type="rotate"
    values="0 0 0;-3 1 1; 3 -1 -1; 0 0 0"
    keyTimes="0; 0.3; 0.6; 1"
    dur="7s"
    repeatCount="indefinite"
    additive="sum"
    />

    <path d="M286.924 292.882C280.623 302.43 270.726 309.611 258.663 312.211L187.885 327.462C163.425 332.732 139.328 317.169 134.06 292.699L117.213 214.449L144.241 208.624L276.562 180.112L293.409 258.364C296.078 270.766 293.4 283.074 286.924 292.882Z" fill="#D39776"/>
    <path d="M286.925 292.882C285.646 293.28 284.34 293.623 283.005 293.91L212.228 309.16C187.77 314.43 163.673 298.867 158.405 274.4L144.241 208.624L276.563 180.111L293.41 258.364C296.079 270.766 293.4 283.074 286.925 292.882Z" fill="#E2AC88"/>
    
    
    <g id="centerKnot">
      <path d="M160.754 270.693C163.003 270.468 164.957 269.227 166.041 267.228C166.435 266.503 165.329 265.856 164.935 266.582C164.079 268.158 162.551 269.232 160.754 269.412C159.942 269.493 159.933 270.776 160.754 270.693Z" fill="#FFE1C5"/>
      <path d="M162.266 273.291C164.803 272.682 166.792 270.577 167.207 267.992C167.337 267.185 166.102 266.838 165.971 267.651C165.623 269.821 164.07 271.54 161.925 272.056C161.124 272.248 161.463 273.484 162.266 273.291Z" fill="#FFE1C5"/>
      <path d="M164.496 275.146C166.643 274.388 168.215 271.296 167.472 269.115C167.208 268.339 165.97 268.672 166.237 269.456C166.733 270.912 165.647 273.383 164.156 273.91C163.383 274.183 163.715 275.422 164.496 275.146Z" fill="#FFE1C5"/>
      <path d="M167.471 276.058C169.744 274.744 169.586 272.046 169.028 269.821C168.827 269.022 167.591 269.36 167.792 270.162C168.201 271.793 168.552 273.953 166.824 274.951C166.111 275.364 166.755 276.472 167.471 276.058Z" fill="#FFE1C5"/>
      <path d="M167.374 270.407C169.167 270.407 170.62 268.953 170.62 267.16C170.62 265.366 169.167 263.913 167.374 263.913C165.582 263.913 164.128 265.366 164.128 267.16C164.128 268.953 165.582 270.407 167.374 270.407Z" fill="#FFE1C5"/>
    </g>
    <animateTransform
    xlink:href="#centerKnot"
    attributeName="transform"
    type="rotate"
    values="0 0 0;-16 0 0; 16 0 -15; 0 0 0"
    keyTimes="0; 0.3; 0.6; 1"
    dur="5.4s"
    repeatCount="indefinite"
    additive="sum"
    />

    <g id="leftKnot">
      <path d="M108.168 282.106C110.547 281.844 112.675 280.622 113.923 278.551C114.366 277.816 113.217 277.146 112.775 277.879C111.787 279.519 110.065 280.567 108.168 280.776C107.327 280.868 107.317 282.199 108.168 282.106Z" fill="#FFE1C5"/>
      <path d="M109.745 284.666C112.379 284.039 114.64 281.994 115.164 279.283C115.326 278.447 114.045 278.089 113.882 278.929C113.441 281.211 111.611 282.855 109.392 283.383C108.56 283.581 108.912 284.864 109.745 284.666Z" fill="#FFE1C5"/>
      <path d="M112.121 286.469C114.298 285.737 116.225 282.657 115.422 280.382C115.139 279.581 113.854 279.926 114.14 280.736C114.686 282.282 113.28 284.678 111.768 285.187C110.961 285.458 111.307 286.743 112.121 286.469Z" fill="#FFE1C5"/>
      <path d="M115.313 287.32C117.686 286.028 117.68 283.374 117.091 281.055C116.88 280.226 115.597 280.577 115.809 281.408C116.248 283.138 116.464 285.179 114.642 286.172C113.89 286.581 114.561 287.729 115.313 287.32Z" fill="#FFE1C5"/>
      <path d="M111.94 279.174C111.565 277.436 112.804 275.694 114.707 275.284C116.61 274.874 118.456 275.951 118.83 277.689C119.204 279.428 117.965 281.169 116.063 281.579C114.16 281.989 112.314 280.913 111.94 279.174Z" fill="#FFE1C5"/>
    </g>
    <animateTransform
    xlink:href="#leftKnot"
    attributeName="transform"
    type="rotate"
    values="0 0 0;-16 0 0; 16 0 -5; 0 0 0"
    keyTimes="0; 0.3; 0.6; 1"
    dur="5.6s"
    repeatCount="indefinite"
    additive="sum"
    />
    <path id="leftBasketRope" d="M117 219C119.833 231.333 123.8 259.9 117 275.5" stroke="#FFE1C5" stroke-width="2"/>
    <animate xlink:href="#leftBasketRope"
    attributeName="d"
    attributeType="XML"
    values="
      M117 219C119.833 231.333 123.8 259.9 117 275.5;
      M117 219C119.833 231.333 123.8 259.9 121 275.5;
      M117 219C119.833 231.333 123.8 259.9 107 275.5;
      M117 219C119.833 231.333 123.8 259.9 117 275.5
    "
    keyTimes="0; 0.3; 0.6; 1"
    dur="5.6s"
    repeatCount="indefinite"
    />
    
    <path id="centerBasketRope" d="M169 208C171.833 220.333 175.8 248.9 169 264.5" stroke="#FFE1C5" stroke-width="2"/>
    <animate xlink:href="#centerBasketRope"
      attributeName="d"
      attributeType="XML"
      values="
        M169 208C171.833 220.333 175.8 248.9 169 264.5;
        M169 208C171.833 220.333 175.8 248.9 173 264.5;
        M169 208C171.833 220.333 175.8 248.9 161 264.5;
        M169 208C171.833 220.333 175.8 248.9 169 264.5
      "
      keyTimes="0; 0.3; 0.6; 1"
      dur="5.4s"
      repeatCount="indefinite"
      />

    
    <path id="rightBasketRope" d="M227 196C229.833 208.333 233.8 236.9 227 252.5" stroke="#FFE1C5" stroke-width="2"/>
    <animate xlink:href="#rightBasketRope"
    attributeName="d"
    attributeType="XML"
    values="
      M227 196C229.833 208.333 233.8 236.9 227 252.5;
      M227 196C229.833 208.333 233.8 236.9 231 262.5;
      M227 196C229.833 208.333 233.8 236.9 217 252.5;
      M227 196C229.833 208.333 233.8 236.9 227 252.5
    "
    keyTimes="0; 0.3; 0.6; 1"
    dur="5.3s"
    repeatCount="indefinite"
    />

    <g id="rightKnot">
      <path d="M218.17 258.321C220.419 258.096 222.373 256.855 223.457 254.857C223.851 254.132 222.745 253.484 222.351 254.21C221.496 255.786 219.967 256.86 218.17 257.04C217.358 257.121 217.349 258.404 218.17 258.321Z" fill="#FFE1C5"/>
      <path d="M219.682 260.92C222.219 260.31 224.208 258.205 224.623 255.62C224.753 254.813 223.519 254.466 223.388 255.28C223.039 257.45 221.486 259.169 219.342 259.684C218.54 259.876 218.88 261.112 219.682 260.92Z" fill="#FFE1C5"/>
      <path d="M221.912 262.774C224.059 262.016 225.632 258.924 224.889 256.744C224.624 255.967 223.386 256.301 223.653 257.084C224.15 258.54 223.063 261.012 221.572 261.538C220.799 261.811 221.132 263.05 221.912 262.774Z" fill="#FFE1C5"/>
      <path d="M224.887 263.686C227.161 262.372 227.002 259.674 226.444 257.45C226.244 256.65 225.008 256.989 225.209 257.79C225.618 259.421 225.969 261.581 224.241 262.579C223.527 262.992 224.171 264.1 224.887 263.686Z" fill="#FFE1C5"/>
      <path d="M227.517 256.577C228.489 255.071 228.056 253.061 226.55 252.088C225.044 251.116 223.036 251.548 222.063 253.055C221.091 254.561 221.524 256.571 223.029 257.544C224.535 258.517 226.544 258.084 227.517 256.577Z" fill="#FFE1C5"/>
    </g>
    <animateTransform
    xlink:href="#rightKnot"
    attributeName="transform"
    type="rotate"
    values="0 0 0;-16 0 0; 16 0 0; 0 0 0"
    keyTimes="0; 0.3; 0.6; 1"
    dur="5.3s"
    repeatCount="indefinite"
    additive="sum"
    />

    <path d="M276.361 183.872L117.09 218.191C114.817 218.681 112.556 217.221 112.066 214.947C111.577 212.673 113.036 210.411 115.309 209.921L274.581 175.603C276.854 175.113 279.115 176.573 279.605 178.847C280.094 181.121 278.635 183.383 276.361 183.872Z" fill="#F2D0A7"/>
    <path d="M273.55 250.027C275.337 261.497 273.339 273.399 267.934 283.668C267.583 284.337 268.596 284.932 268.949 284.261C274.512 273.69 276.522 261.515 274.683 249.714C274.567 248.969 273.435 249.285 273.55 250.027Z" fill="#D39776"/>
    <path d="M280.306 249.181C280.941 260.51 281.481 272.973 274.252 282.514C273.795 283.117 274.815 283.703 275.266 283.108C282.614 273.409 282.127 260.7 281.481 249.18C281.439 248.428 280.264 248.424 280.306 249.181Z" fill="#D39776"/>
    <path d="M270.46 257.39C273.297 257.747 276.139 258.057 278.987 258.31C281.536 258.536 284.117 258.814 286.612 258.085C287.336 257.874 287.028 256.739 286.3 256.952C283.774 257.69 281.114 257.328 278.538 257.094C275.84 256.849 273.148 256.553 270.46 256.215C269.712 256.12 269.719 257.296 270.46 257.39Z" fill="#D39776"/>
    <path d="M257.848 261.542C266.57 264.97 276.032 265.288 285.284 265.545C286.04 265.566 286.039 264.391 285.284 264.37C276.127 264.116 266.792 263.802 258.16 260.409C257.456 260.132 257.151 261.268 257.848 261.542Z" fill="#D39776"/>
    <path d="M268.188 272.157C272.748 273.443 277.472 273.946 282.199 273.64C282.95 273.591 282.956 272.416 282.199 272.464C277.567 272.764 272.969 272.284 268.501 271.024C267.772 270.819 267.461 271.952 268.188 272.157Z" fill="#D39776"/>
    <path d="M247.451 271.12C248.499 279.556 246.264 288.127 241.224 294.971C240.775 295.581 241.794 296.168 242.239 295.565C247.382 288.58 249.696 279.73 248.626 271.121C248.534 270.38 247.357 270.371 247.451 271.12Z" fill="#D39776"/>
    <path d="M241.123 276.248C240.459 282.171 237.45 287.421 234.516 292.486C234.136 293.142 235.151 293.734 235.531 293.079C238.582 287.812 241.609 282.4 242.298 276.248C242.382 275.498 241.207 275.504 241.123 276.248Z" fill="#D39776"/>
    <path d="M232.03 288.062C237.903 290.01 244.106 290.713 250.266 290.122C251.012 290.05 251.019 288.874 250.266 288.947C244.2 289.528 238.127 288.847 232.343 286.928C231.623 286.69 231.315 287.824 232.03 288.062Z" fill="#D39776"/>
    <path d="M237.898 282.671C243.27 284.328 248.908 284.86 254.494 284.225C255.237 284.141 255.245 282.964 254.494 283.05C249.003 283.674 243.492 283.167 238.21 281.538C237.486 281.315 237.176 282.448 237.898 282.671Z" fill="#D39776"/>
    <path d="M190.179 251.352C190.317 258.125 190.412 265.255 187.147 271.401C186.792 272.069 187.806 272.663 188.161 271.995C191.53 265.652 191.497 258.347 191.354 251.352C191.339 250.597 190.164 250.594 190.179 251.352Z" fill="#D39776"/>
    <path d="M196.155 251.338C196.03 259.909 195.821 268.967 191.291 276.536C190.902 277.186 191.917 277.778 192.305 277.129C196.944 269.379 197.202 260.117 197.33 251.338C197.341 250.581 196.166 250.581 196.155 251.338Z" fill="#D39776"/>
    <path d="M202.763 262.878C202.853 269.77 200.646 276.479 196.51 281.988C196.056 282.593 197.075 283.18 197.524 282.581C201.776 276.918 204.03 269.957 203.938 262.878C203.928 262.123 202.753 262.12 202.763 262.878Z" fill="#D39776"/>
    <path d="M185.823 260.79C192.23 265.409 199.57 268.6 207.316 270.138C208.054 270.284 208.37 269.152 207.628 269.004C199.97 267.484 192.75 264.342 186.416 259.775C185.802 259.332 185.215 260.351 185.823 260.79Z" fill="#D39776"/>
    <path d="M185.13 265.045C191.608 270.976 200.12 274.363 208.903 274.49C209.66 274.5 209.66 273.325 208.903 273.314C200.436 273.192 192.209 269.934 185.961 264.214C185.404 263.704 184.571 264.533 185.13 265.045Z" fill="#D39776"/>
    <path d="M187.231 252.611C192.672 257.22 199.437 259.949 206.554 260.396C207.309 260.443 207.306 259.268 206.554 259.221C199.767 258.794 193.252 256.176 188.061 251.78C187.488 251.294 186.653 252.121 187.231 252.611Z" fill="#D39776"/>
    <path d="M204.483 211.175C205.055 216.762 204.422 222.354 202.609 227.669C202.364 228.387 203.499 228.695 203.742 227.982C205.585 222.578 206.24 216.855 205.658 211.175C205.581 210.43 204.406 210.422 204.483 211.175Z" fill="#D39776"/>
    <path d="M210.89 210.697C210.951 214.811 211.022 218.983 210.657 223.085C210.282 227.308 208.615 230.833 206.555 234.473C206.182 235.132 207.197 235.725 207.57 235.066C209.574 231.524 211.269 228.053 211.744 223.961C212.251 219.589 212.13 215.091 212.065 210.697C212.054 209.941 210.879 209.939 210.89 210.697Z" fill="#D39776"/>
    <path d="M199.299 216.551C204.635 218.775 210.419 219.672 216.178 219.176C216.925 219.111 216.932 217.935 216.178 218C210.509 218.489 204.863 217.607 199.612 215.418C198.914 215.127 198.61 216.264 199.299 216.551Z" fill="#D39776"/>
    <path d="M194.293 220.563C198.722 222.483 203.38 223.661 208.191 224.066C208.944 224.129 208.94 222.953 208.191 222.89C203.601 222.504 199.113 221.381 194.886 219.548C194.199 219.25 193.6 220.262 194.293 220.563Z" fill="#D39776"/>
    <path d="M258.115 196.359C258.097 201.752 256.563 206.979 253.675 211.532C253.269 212.172 254.285 212.763 254.69 212.125C257.683 207.405 259.271 201.948 259.29 196.359C259.293 195.603 258.118 195.601 258.115 196.359Z" fill="#D39776"/>
    <path d="M262.727 195.428C263.129 200.388 261.841 205.272 259.042 209.387C258.615 210.014 259.633 210.602 260.056 209.98C262.959 205.713 264.319 200.572 263.902 195.427C263.842 194.679 262.666 194.672 262.727 195.428Z" fill="#D39776"/>
    <path d="M251.656 198.4C256.381 200.56 261.517 201.526 266.703 201.177C267.454 201.127 267.459 199.951 266.703 200.002C261.732 200.336 256.784 199.459 252.249 197.385C251.567 197.074 250.969 198.086 251.656 198.4Z" fill="#D39776"/>
    <path d="M252.696 203.003C258.196 204.83 263.979 205.587 269.762 205.234C270.514 205.189 270.519 204.013 269.762 204.059C264.074 204.406 258.418 203.667 253.009 201.87C252.289 201.631 251.981 202.766 252.696 203.003Z" fill="#D39776"/>
    <path d="M243.314 195.185C243.411 196.243 243.357 197.283 243.129 198.322C242.967 199.06 244.1 199.375 244.262 198.635C244.512 197.495 244.595 196.348 244.489 195.185C244.422 194.438 243.246 194.43 243.314 195.185Z" fill="#D39776"/>
    <path d="M191.402 209.359C191.018 210.38 190.634 211.402 190.25 212.423C189.983 213.132 191.118 213.438 191.382 212.736C191.766 211.714 192.15 210.693 192.534 209.672C192.801 208.963 191.666 208.657 191.402 209.359Z" fill="#D39776"/>
    <path d="M220.657 274.124C220.415 274.59 220.173 275.056 219.931 275.523C219.583 276.193 220.596 276.788 220.945 276.116C221.187 275.65 221.43 275.183 221.672 274.717C222.02 274.047 221.007 273.452 220.657 274.124Z" fill="#D39776"/>
    <path d="M208.365 291.176C207.749 292.75 206.834 294.152 205.661 295.366C205.136 295.91 205.966 296.743 206.492 296.197C207.811 294.831 208.806 293.256 209.498 291.489C209.773 290.784 208.637 290.479 208.365 291.176Z" fill="#D39776"/>
    <path d="M185.617 284.216C185.013 285.248 184.409 286.279 183.804 287.311C183.421 287.965 184.436 288.557 184.819 287.904C185.423 286.873 186.027 285.841 186.632 284.809C187.015 284.155 186 283.563 185.617 284.216Z" fill="#D39776"/>
    <path d="M251.599 244.868C251.189 246.133 250.648 247.328 249.974 248.474C249.59 249.127 250.605 249.719 250.989 249.067C251.712 247.836 252.292 246.539 252.732 245.18C252.965 244.46 251.831 244.151 251.599 244.868Z" fill="#D39776"/>
    <path d="M241.04 238.295C240.793 238.917 240.546 239.539 240.299 240.161C240.182 240.456 240.427 240.806 240.709 240.884C241.043 240.976 241.314 240.77 241.432 240.473C241.679 239.851 241.926 239.229 242.173 238.607C242.29 238.312 242.045 237.962 241.763 237.884C241.428 237.793 241.158 237.999 241.04 238.295Z" fill="#D39776"/>
    <path d="M214.269 246.599C213.956 247.148 213.643 247.696 213.33 248.245C212.954 248.902 213.969 249.495 214.344 248.838C214.657 248.289 214.971 247.741 215.284 247.192C215.66 246.535 214.645 245.942 214.269 246.599Z" fill="#D39776"/>
    <path d="M274.34 236.553C274.34 236.867 274.34 237.18 274.34 237.494C274.34 237.801 274.61 238.095 274.927 238.081C275.245 238.067 275.515 237.823 275.515 237.494C275.515 237.18 275.515 236.867 275.515 236.553C275.515 236.246 275.244 235.952 274.927 235.966C274.609 235.98 274.34 236.224 274.34 236.553Z" fill="#D39776"/>
    <path d="M260.968 270.716C260.89 271.107 260.811 271.499 260.733 271.891C260.671 272.202 260.822 272.525 261.143 272.614C261.433 272.693 261.803 272.516 261.866 272.203C261.944 271.812 262.023 271.42 262.101 271.028C262.163 270.717 262.012 270.393 261.691 270.305C261.401 270.226 261.031 270.403 260.968 270.716Z" fill="#D39776"/>
    <path d="M262.529 289.496C262.451 289.574 262.372 289.653 262.294 289.731C262.077 289.949 262.061 290.347 262.294 290.562C262.529 290.777 262.893 290.794 263.125 290.562C263.203 290.483 263.282 290.405 263.36 290.327C263.578 290.109 263.594 289.711 263.36 289.496C263.125 289.281 262.761 289.264 262.529 289.496Z" fill="#D39776"/>
    <path d="M285.321 281.739C285.242 281.817 285.164 281.896 285.086 281.974C284.868 282.192 284.852 282.59 285.086 282.805C285.32 283.02 285.684 283.037 285.916 282.805C285.995 282.727 286.073 282.648 286.152 282.57C286.369 282.352 286.385 281.954 286.152 281.739C285.917 281.524 285.553 281.507 285.321 281.739Z" fill="#D39776"/>
    
    <path id="centerLoop" d="M199.907 243.232C195.369 243.232 191.068 241.86 187.074 239.133C182.993 236.346 179.237 232.146 175.91 226.648C170.292 217.367 167.858 207.712 167.757 207.305C167.626 206.774 167.949 206.237 168.479 206.106C169.01 205.974 169.547 206.297 169.679 206.828C169.703 206.925 172.153 216.633 177.624 225.657C180.804 230.901 184.364 234.889 188.207 237.508C192.935 240.732 198.129 241.881 203.645 240.922C210.089 239.802 215.244 236.719 218.966 231.76C221.975 227.75 224.078 222.503 225.217 216.163C227.173 205.27 225.574 194.867 225.558 194.763C225.472 194.223 225.841 193.716 226.381 193.63C226.922 193.544 227.428 193.914 227.513 194.454C227.582 194.892 229.18 205.294 227.165 216.513C225.972 223.16 223.746 228.69 220.549 232.949C216.514 238.325 210.941 241.664 203.984 242.873C202.606 243.113 201.246 243.232 199.907 243.232Z" fill="#FFE1C5"/>
    <animateTransform
    xlink:href="#centerLoop"
    attributeName="transform"
    type="scale"
    values="1,1;1,1.1;1,0.9; 1,1"
    keyTimes="0; 0.3; 0.6; 1"
    dur="5.5s"
    repeatCount="indefinite"
    additive="sum"
    />

    <path id="leftLoop" d="M146.885 254.705C142.673 254.705 138.652 253.226 134.895 250.286C131.229 247.417 127.814 243.155 124.745 237.617C119.563 228.267 117.101 218.32 117.077 218.22C116.956 217.722 117.26 217.22 117.758 217.099C118.256 216.977 118.757 217.282 118.879 217.78C118.903 217.877 121.315 227.613 126.383 236.747C129.33 242.058 132.583 246.125 136.05 248.834C140.292 252.149 144.882 253.42 149.693 252.611C155.309 251.667 159.752 248.751 162.899 243.944C165.458 240.033 167.187 234.864 168.038 228.582C169.501 217.771 167.821 207.321 167.803 207.217C167.72 206.711 168.062 206.234 168.568 206.151C169.073 206.068 169.55 206.41 169.633 206.916C169.705 207.351 171.373 217.71 169.88 228.793C168.996 235.36 167.172 240.794 164.46 244.944C161.018 250.212 156.153 253.407 150 254.441C148.951 254.617 147.912 254.705 146.885 254.705Z" fill="#FFE1C5"/>
    <animateTransform
    xlink:href="#leftLoop"
    attributeName="transform"
    type="scale"
    values="1,1;1,1.1;1,0.9; 1,1"
    keyTimes="0; 0.3; 0.6; 1"
    dur="5.7s"
    repeatCount="indefinite"
    additive="sum"
    />

    <path id="rightLoop" d="M255.443 231.314C251.23 231.314 247.21 229.834 243.453 226.895C239.787 224.026 236.372 219.764 233.303 214.226C228.121 204.876 225.659 194.928 225.635 194.829C225.514 194.331 225.818 193.829 226.316 193.708C226.814 193.585 227.315 193.891 227.437 194.389C227.46 194.486 229.873 204.222 234.941 213.356C237.889 218.667 241.141 222.734 244.608 225.443C248.85 228.758 253.44 230.029 258.251 229.22C263.867 228.276 268.31 225.36 271.457 220.553C274.016 216.641 275.746 211.473 276.596 205.191C278.059 194.38 276.379 183.93 276.361 183.826C276.278 183.32 276.621 182.843 277.126 182.76C277.632 182.677 278.108 183.019 278.191 183.525C278.263 183.96 279.932 194.319 278.439 205.402C277.554 211.969 275.73 217.403 273.019 221.553C269.577 226.82 264.711 230.016 258.558 231.05C257.509 231.226 256.47 231.314 255.443 231.314Z" fill="#FFE1C5"/>
    <animateTransform
    xlink:href="#rightLoop"
    attributeName="transform"
    type="scale"
    values="1,1;1,1.1;1,0.9; 1,1"
    keyTimes="0; 0.3; 0.6; 1"
    dur="5.6s"
    repeatCount="indefinite"
    additive="sum"
    />
  </g>
  <animateTransform
  xlink:href="#basketAndCat"
  attributeName="transform"
  type="rotate"
  values="0 0 0;-1 1 1; 1 -1 -1; 0 0 0"
  keyTimes="0; 0.3; 0.6; 1"
  dur="5.3s"
  repeatCount="indefinite"
  additive="sum"
  />
</g>
<animateTransform
  xlink:href="#catAndBallon"
  attributeName="transform"
  type="rotate"
  values="0 0 0;-3 3 3; 3 -3 -3; 0 0 0"
  keyTimes="0; 0.3; 0.5; 1"
  dur="5s"
  repeatCount="indefinite"
  additive="sum"
/>

<path id="bigCloud" d="M317.862 361.902C302.893 361.507 286.352 360.708 267.524 359.582C261.901 359.244 256.072 358.879 250.022 358.487C242.028 357.967 233.647 357.401 224.831 356.79C217.717 356.298 210.32 355.779 202.62 355.234C188.8 354.256 171.525 353.92 152.5 353.978C144.878 354 136.974 354.086 128.9 354.221C115.78 354.435 102.206 354.775 88.6514 355.172C71.6564 355.664 54.6922 356.247 38.6913 356.778C31.3558 357.02 24.2247 357.253 17.3849 357.462C14.1729 357.561 11.0267 357.652 7.95584 357.74C-2.95118 358.045 -12.9301 358.268 -21.5742 358.348C-28.5666 358.414 -35.3312 357.45 -41.7411 355.596C-72.8056 346.626 -95.5664 316.767 -95.5664 281.663V235.999C-84.7299 237.36 -69.4666 241.715 -56.1138 254.503C-45.9375 264.243 -36.8726 278.883 -31.727 300.825C-31.727 300.825 -16.9431 290.24 -2.51183 296.533C0.735268 297.948 3.96376 300.219 7.00406 303.658C7.00406 303.658 9.87524 301.794 14.8471 299.161C23.0121 294.843 36.842 288.459 52.9534 284.872C62.1194 282.827 72.0277 281.69 82.0464 282.355C83.233 282.432 84.4196 282.536 85.606 282.667C96.2382 283.836 106.915 287.141 116.889 293.652C116.981 293.713 117.068 293.769 117.159 293.83H117.162C117.547 294.084 117.932 294.345 118.315 294.611C118.574 294.787 118.83 294.966 119.088 295.149C119.117 295.168 119.145 295.189 119.173 295.208C119.648 295.546 120.122 295.892 120.592 296.247C126.445 300.626 132.014 306.197 137.141 313.188C137.141 313.188 165.353 301.762 170.595 334.432V334.434C170.806 335.732 170.975 337.095 171.109 338.536C171.109 338.536 178.137 335.172 187.357 333.452C191.819 332.617 196.793 332.168 201.729 332.669C210.294 333.536 218.748 337.26 224.239 346.798C224.239 346.798 236.927 340.602 245.456 342.612C247.345 343.059 249.03 343.907 250.324 345.315C251.18 346.239 251.863 347.405 252.331 348.857C252.331 348.857 265.275 347.52 279.73 348.126C285.231 348.355 290.947 348.867 296.253 349.838C297.667 350.094 299.053 350.385 300.397 350.714C308.786 352.758 315.569 356.214 317.862 361.902Z" fill="white"/>
<animateTransform
  xlink:href="#bigCloud"
  attributeName="transform"
  type="scale"
  values="1,1;1.2,1.2;1,1"
  keyTimes="0; 0.5; 1"
  dur="10s"
  repeatCount="indefinite"
  additive="sum"
/>

</g>
<defs>
<filter id="filter0_d_558_460" x="155.823" y="134.69" width="82.0278" height="101.072" filterUnits="userSpaceOnUse" color-interpolation-filters="sRGB">
<feFlood flood-opacity="0" result="BackgroundImageFix"/>
<feColorMatrix in="SourceAlpha" type="matrix" values="0 0 0 0 0 0 0 0 0 0 0 0 0 0 0 0 0 0 127 0" result="hardAlpha"/>
<feOffset dy="4"/>
<feGaussianBlur stdDeviation="2"/>
<feComposite in2="hardAlpha" operator="out"/>
<feColorMatrix type="matrix" values="0 0 0 0 0 0 0 0 0 0 0 0 0 0 0 0 0 0 0.25 0"/>
<feBlend mode="normal" in2="BackgroundImageFix" result="effect1_dropShadow_558_460"/>
<feBlend mode="normal" in="SourceGraphic" in2="effect1_dropShadow_558_460" result="shape"/>
</filter>
<filter id="filter1_d_558_460" x="152.184" y="189.039" width="38.8002" height="27.7775" filterUnits="userSpaceOnUse" color-interpolation-filters="sRGB">
<feFlood flood-opacity="0" result="BackgroundImageFix"/>
<feColorMatrix in="SourceAlpha" type="matrix" values="0 0 0 0 0 0 0 0 0 0 0 0 0 0 0 0 0 0 127 0" result="hardAlpha"/>
<feOffset dx="-3" dy="2"/>
<feGaussianBlur stdDeviation="2.15"/>
<feComposite in2="hardAlpha" operator="out"/>
<feColorMatrix type="matrix" values="0 0 0 0 0 0 0 0 0 0 0 0 0 0 0 0 0 0 0.25 0"/>
<feBlend mode="normal" in2="BackgroundImageFix" result="effect1_dropShadow_558_460"/>
<feBlend mode="normal" in="SourceGraphic" in2="effect1_dropShadow_558_460" result="shape"/>
</filter>
<filter id="filter2_d_558_460" x="196.257" y="180.868" width="38.8397" height="33.3238" filterUnits="userSpaceOnUse" color-interpolation-filters="sRGB">
<feFlood flood-opacity="0" result="BackgroundImageFix"/>
<feColorMatrix in="SourceAlpha" type="matrix" values="0 0 0 0 0 0 0 0 0 0 0 0 0 0 0 0 0 0 127 0" result="hardAlpha"/>
<feOffset dx="-3" dy="2"/>
<feGaussianBlur stdDeviation="2.15"/>
<feComposite in2="hardAlpha" operator="out"/>
<feColorMatrix type="matrix" values="0 0 0 0 0 0 0 0 0 0 0 0 0 0 0 0 0 0 0.25 0"/>
<feBlend mode="normal" in2="BackgroundImageFix" result="effect1_dropShadow_558_460"/>
<feBlend mode="normal" in="SourceGraphic" in2="effect1_dropShadow_558_460" result="shape"/>
</filter>
<filter id="filter3_f_558_460" x="113.427" y="66.711" width="17.3314" height="16.1751" filterUnits="userSpaceOnUse" color-interpolation-filters="sRGB">
<feFlood flood-opacity="0" result="BackgroundImageFix"/>
<feBlend mode="normal" in="SourceGraphic" in2="BackgroundImageFix" result="shape"/>
<feGaussianBlur stdDeviation="1.15" result="effect1_foregroundBlur_558_460"/>
</filter>
<filter id="filter4_f_558_460" x="124.941" y="51.5389" width="33.8354" height="30.1651" filterUnits="userSpaceOnUse" color-interpolation-filters="sRGB">
<feFlood flood-opacity="0" result="BackgroundImageFix"/>
<feBlend mode="normal" in="SourceGraphic" in2="BackgroundImageFix" result="shape"/>
<feGaussianBlur stdDeviation="1.15" result="effect1_foregroundBlur_558_460"/>
</filter>
<linearGradient id="paint0_linear_558_460" x1="157.744" y1="154.711" x2="159.637" y2="163.173" gradientUnits="userSpaceOnUse">
<stop stop-color="#6D211A"/>
<stop offset="1" stop-color="#DA8F88"/>
</linearGradient>
<linearGradient id="paint1_linear_558_460" x1="220.652" y1="146.907" x2="222.545" y2="155.37" gradientUnits="userSpaceOnUse">
<stop stop-color="#6D211A"/>
<stop offset="1" stop-color="#D1867F"/>
</linearGradient>
<linearGradient id="paint2_linear_558_460" x1="220.24" y1="135.849" x2="161.878" y2="148.907" gradientUnits="userSpaceOnUse">
<stop stop-color="#F7A4A5"/>
<stop offset="0.22" stop-color="#F7A4A5"/>
<stop offset="0.25" stop-color="#F37680"/>
<stop offset="0.47" stop-color="#F37680"/>
<stop offset="0.5" stop-color="#F7A4A5"/>
<stop offset="0.72" stop-color="#F7A4A5"/>
<stop offset="0.75" stop-color="#F37680"/>
<stop offset="1" stop-color="#F37680"/>
</linearGradient>
<linearGradient id="paint3_linear_558_460" x1="107.748" y1="52.4573" x2="128.595" y2="145.631" gradientUnits="userSpaceOnUse">
<stop stop-color="#ED1D24"/>
<stop offset="0.7" stop-color="#9C2025"/>
</linearGradient>
<linearGradient id="paint4_linear_558_460" x1="107.748" y1="52.4573" x2="128.595" y2="145.631" gradientUnits="userSpaceOnUse">
<stop stop-color="#ED1D24"/>
<stop offset="0.7" stop-color="#9C2025"/>
</linearGradient>
<linearGradient id="paint5_linear_558_460" x1="107.748" y1="52.4573" x2="128.595" y2="145.631" gradientUnits="userSpaceOnUse">
<stop stop-color="#ED1D24"/>
<stop offset="0.7" stop-color="#9C2025"/>
</linearGradient>
<linearGradient id="paint6_linear_558_460" x1="107.748" y1="52.4573" x2="128.595" y2="145.631" gradientUnits="userSpaceOnUse">
<stop stop-color="#ED1D24"/>
<stop offset="0.7" stop-color="#9C2025"/>
</linearGradient>
</defs>
</svg>
