<svg width="481" height="471" viewBox="0 0 481 471" fill="none" xmlns="http://www.w3.org/2000/svg">
<defs>
    <filter id="waveFilter" x="-50%" y="-20%" width="140%" height="140%">
        <!-- bigger, smoother turbulence for larger waves -->
        <feTurbulence id="turb" type="fractalNoise" baseFrequency="0.002 0.005" numOctaves="3" seed="2" result="turb"/>
        <!-- blur the noise to smooth the displacement -->
        <feGaussianBlur in="turb" stdDeviation="3" result="blur"/>
        <!-- stronger displacement for more pronounced waves -->
        <feDisplacementMap id="disp" in="SourceGraphic" in2="blur" scale="30" xChannelSelector="R" yChannelSelector="G" result="dist"/>
        <!-- animate turbulence frequency slowly with smooth easing
             ensure first and last values match so the loop is seamless -->
        <animate href="#turb" attributeName="baseFrequency"
                 values="0.002 0.005;0.008 0.005;0.004 0.01;0.001 0.003;0.002 0.005"
                 keyTimes="0;0.25;0.6;0.85;1"
                 calcMode="spline"
                 keySplines="0.42 0 0.58 1;0.42 0 0.58 1;0.42 0 0.58 1;0.42 0 0.58 1"
                 dur="12s" repeatCount="indefinite"/>
        <!-- animate displacement scale; start and end match (30) for seamless loop -->
        <animate href="#disp" attributeName="scale"
                 values="30;40;12;30"
                 keyTimes="0;0.45;0.8;1"
                 calcMode="spline"
                 keySplines="0.42 0 0.58 1;0.42 0 0.58 1;0.42 0 0.58 1"
                 dur="12s" repeatCount="indefinite"/>
    </filter>
</defs>
<g clip-path="url(#clip0_1831_4630)">
<path class="background" d="M-1.21845 587.653C8.14076 531.049 -41.5388 483.276 -11.8572 425.495C-2.43131 407.145 14.4496 389.281 28.0187 371.18C48.5038 343.853 61.5417 315.695 66.2908 288.524C69.3975 270.748 69.0039 253.357 74.7956 235.332C90.8632 185.329 158.257 133.371 238.933 108.788C303.952 88.9767 374.27 83.7637 432.328 92.0979C693.105 129.531 811.953 63.5974 902.921 76.3148C959.939 84.286 993.079 113.62 1015.79 145.019C1038.5 176.419 1056.93 235.84 1087.73 270.339C1189.98 384.897 1087.28 453.354 1040.1 476.868C1038.41 477.708 1031.02 479.881 1029.27 480.672L902.418 507.388C876.599 509.776 819.057 522.22 798.6 526.742C718.262 544.497 650.781 554.598 580.551 569.162C405.583 605.443 241.578 638.62 76.3482 670.737C52.1695 675.437 37.2424 673.566 17.6568 668.856C-3.22162 663.836 -11.1652 649.093 -10.9287 634.043C-10.6922 618.992 -3.76432 603.049 -1.21845 587.653Z" fill="#D9E2F4" filter="url(#waveFilter)"/>

<g class="chair" transform-box="fill-box" transform-origin="296px 314px">
    <!-- subtle, less obvious rocking/rotation animation around the chair center -->
    <animateTransform attributeName="transform"
                      type="rotate"
                      values="0 296 314; 3 296 314; 1 296 314; 0 296 314"
                      keyTimes="0;0.35;0.7;1"
                      calcMode="spline"
                      keySplines="0.3 0 0.7 1;0.3 0 0.7 1;0.3 0 0.7 1"
                      dur="8s"
                      repeatCount="indefinite"/>
    <path d="M317.856 357.681L324.518 452.855H321.187L310.639 358.711L317.856 357.681Z" fill="white"/>
    <path d="M247.435 367.899L240.772 463.073H244.103L254.652 368.93L247.435 367.899Z" fill="white"/>
    <path d="M346.928 260.051C346.928 260.051 293.676 258.474 290.23 258.72C286.784 258.966 283.597 270.043 283.597 270.043C283.597 270.043 268.042 327.73 268.352 329.317C268.662 330.903 253.84 368.077 253.84 368.077C253.84 368.077 266.625 367.737 267.191 368.077C267.757 368.417 316.635 363.884 317.314 363.43C317.993 362.977 320.482 354.477 320.595 354.024C320.708 353.57 324.442 320.476 324.442 320.476L326.365 302.23C326.365 302.23 333.719 286.575 333.833 286.525C333.946 286.476 340.734 272.763 341.187 272.083C341.639 271.403 348.654 263.809 348.881 263.129C349.107 262.449 346.928 260.051 346.928 260.051Z" fill="#FEE4CB"/>
    <path opacity="0.5" d="M346.927 260.049C346.927 260.049 328.568 259.506 312.711 259.106C318.874 262.731 322.329 272.87 319.765 290.905C317.585 306.232 315.164 322.865 305.509 342.812C300.536 353.086 279.125 347.332 261.575 348.348C257.794 358.157 253.84 368.075 253.84 368.075C253.84 368.075 266.625 367.735 267.191 368.075C267.757 368.415 316.635 363.882 317.313 363.428C317.993 362.975 320.481 354.475 320.595 354.021C320.708 353.568 324.441 320.474 324.441 320.474L326.365 302.227C326.365 302.227 333.719 286.572 333.832 286.523C333.945 286.474 340.734 272.761 341.187 272.081C341.639 271.401 348.654 263.807 348.881 263.127C349.106 262.447 346.927 260.049 346.927 260.049Z" fill="#FEE4CB"/>
    <path d="M244.112 370.109L244.112 370.106C243.999 368.287 245.371 366.718 247.187 366.594C252.877 366.208 265.184 365.328 277.84 364.128C302.102 361.827 310.874 359.943 314.014 358.959C315.097 358.619 315.93 357.739 316.207 356.637C317.059 353.247 317.558 346.211 317.975 340.326C319.56 317.99 322.173 281.16 345.13 260.939C346.563 259.677 348.768 259.902 349.931 261.417C350.99 262.796 350.809 264.767 349.502 265.913C328.587 284.271 326.186 318.123 324.578 340.795C323.66 353.719 323.095 360.063 320.27 363.015C318.908 364.438 316.374 367.087 279.485 370.63C266.399 371.887 253.517 372.81 247.634 373.209C245.804 373.334 244.226 371.942 244.112 370.109Z" fill="#E8B891"/>
</g>

<g class="city">
    <path d="M217.224 351.357V319.572H209.964V264.917H171.043V319.572H134.655V230.514H94.5003V288.326H85.3434V219.306H45.1891V348.713H-5.59421V424.176H-24.5692V390.58H-68.1533V410.451H-93.177V321.498H-124.088V387.34H-155V628.59H-124.088H-97.5931H-93.177H-68.1533H-54.0083H-31.3539H-24.5692H-5.59421H12.2303H45.1891H55.2829H75.3643H85.3434H94.5003H115.519H129.828H134.655H171.043H209.315H209.964H217.224H248.236V351.357H217.224Z" fill="#A0B1C6"/>
</g>

<g class="table">
<path d="M179.851 347.597H172.944V480.913H179.851V347.597Z" fill="#183658"/>
<path d="M245.024 347.597H238.117V480.913H245.024V347.597Z" fill="#183658"/>
<path d="M263.78 349.171H-107.152C-107.533 349.171 -107.842 348.863 -107.842 348.482V341.361C-107.842 340.98 -107.533 340.672 -107.152 340.672H263.78C264.161 340.672 264.47 340.98 264.47 341.361V348.482C264.47 348.863 264.161 349.171 263.78 349.171Z" fill="white"/>
<path opacity="0.2" d="M263.783 349.171H171.22C170.839 349.171 170.53 348.863 170.53 348.482V341.361C170.53 340.98 170.839 340.672 171.22 340.672H263.783C264.164 340.672 264.473 340.98 264.473 341.361V348.482C264.473 348.863 264.164 349.171 263.783 349.171Z" fill="#E0A689"/>
</g>

<g class="laptop" transform-box="fill-box" transform-origin="147px 320px">
    <animateTransform attributeName="transform"
                      type="translate"
                      values="0 0; 6 0; -6 0; 2 0; 0 0"
                      keyTimes="0;0.2;0.5;0.8;1"
                      calcMode="spline"
                      keySplines="0.25 0.1 0.25 1;0.25 0.1 0.25 1;0.25 0.1 0.25 1;0.25 0.1 0.25 1"
                      dur="7.4s"
                      repeatCount="indefinite"/>
    <path d="M105.526 303.978H152.976L166.43 336.778H189.288C189.927 336.778 190.445 337.296 190.445 337.934C190.445 338.572 189.927 339.09 189.288 339.09H121.294L105.526 303.978Z" fill="#304B77"/>
</g>

<g class="pot">
<path d="M450.215 399.701C451.165 393.101 452.293 386.35 456.173 380.462C460.889 373.303 469.168 368.142 476.403 362.455C489.92 351.83 500.326 338.733 506.578 324.478C511.412 313.456 513.828 301.71 520.485 291.303C524.55 284.949 530.092 279.269 534.708 273.156C543.484 261.534 549.049 248.209 558.586 237.149C561.192 234.126 567.216 235.714 567.011 239.372C566.365 250.901 560.844 262.27 551.338 271.025C547.695 274.38 543.471 277.403 540.694 281.244C535.654 288.215 536.105 296.727 535.508 304.75C534.387 319.828 529.001 334.695 519.862 347.946C510.153 362.021 496.146 374.551 490.948 390.056C487.052 401.675 488.196 414.713 479.904 424.779C479.005 425.869 477.977 426.966 477.756 428.256C477.632 428.982 477.775 429.717 477.917 430.44C478.101 431.376 478.286 432.312 478.47 433.248C480.347 442.763 482.283 454.868 471.942 461.978C464.777 466.906 455.558 467.008 450.42 460.45C445.247 453.846 445.715 444.188 446.106 436.761C446.759 424.395 448.444 411.994 450.215 399.701Z" fill="#CFE8EA"/>

<g class="palm-leaf" transform-box="fill-box" transform-origin="90% 90%" style="transform-origin:90% 90%;">
    <animateTransform attributeName="transform" type="rotate"
        values="0;4;-3;0"
        keyTimes="0;0.35;0.7;1"
        calcMode="spline"
        keySplines="0.3 0 0.7 1;0.3 0 0.7 1;0.3 0 0.7 1"
        dur="6s" repeatCount="indefinite"/>
    <path d="M431.607 392.035C435.638 381.028 441.887 370.545 445.023 359.356C448.067 348.503 448.1 337.279 448.12 326.16C448.141 313.976 448.162 301.792 448.185 289.607C448.199 282.022 448.216 274.396 449.808 266.916C453.233 250.824 463.821 235.95 465.627 219.692C466.408 212.662 465.514 205.555 466.498 198.541C467.06 194.534 468.363 190.445 470.712 186.891C473.237 183.07 480.205 183.245 482.486 187.163C487.615 195.971 490.865 205.491 488.781 214.92C487.531 220.577 484.429 225.851 482.111 231.292C471.788 255.522 477.233 282.358 469.241 307.136C466.828 314.614 463.184 321.948 462.754 329.661C461.725 348.12 479.14 364.998 477.524 383.431C476.2 398.543 462.451 411.04 456.673 425.478C453.438 433.561 452.739 442.191 449.274 450.214C446.582 456.447 440.327 464.014 430.624 462.112C421.413 460.307 424.201 454.361 424.618 448.679C426.027 429.459 424.733 410.808 431.607 392.035Z" fill="#B2C9DD"/>
</g>
<g class="palm-trunk" transform-box="fill-box" transform-origin="420px 470px">
    <animateTransform attributeName="transform" type="rotate"
        values="0;3;-2;0"
        keyTimes="0;0.4;0.75;1"
        calcMode="spline"
        keySplines="0.4 0 0.6 1;0.4 0 0.6 1;0.4 0 0.6 1"
        dur="7s" repeatCount="indefinite"/>
    <path d="M410.511 402.109C410.921 396.387 412.148 390.635 411.141 384.959C410.291 380.166 407.884 375.648 406.165 371.003C402.946 362.299 402.154 353.166 401.381 344.117C399.975 327.668 398.568 311.219 397.162 294.771C394.976 269.202 392.78 243.561 386.758 218.38C385.087 211.389 383.209 203.813 387.187 197.436C388.025 196.092 389.674 194.667 391.48 195.116C392.766 195.436 393.396 196.557 393.861 197.561C407.046 225.97 412.013 256.549 426.732 284.48C430.259 291.172 434.361 297.755 436.184 304.861C438.372 313.394 437.158 322.204 436.867 330.907C436.45 343.389 437.975 355.967 442.321 367.97C444.595 374.25 447.642 380.39 448.886 386.848C450.436 394.902 449.121 403.102 448.139 411.21C446.251 426.798 445.602 442.481 446.196 458.135C446.546 467.338 436.726 467.088 430.225 461.428C425.679 457.471 425.725 453.13 424.171 448.206C419.071 432.044 409.254 419.627 410.511 402.109Z" fill="#CFE8EA"/>
</g>

<path d="M471.845 427.116C480.539 416.086 497.844 409.827 503.405 397.59C504.821 394.477 505.375 391.127 507.103 388.114C510.942 381.423 519.658 377.647 528.226 374.575C529.416 374.148 530.768 374.831 530.784 375.866C530.811 377.512 529.824 379.082 528.098 379.999C521.497 383.507 516.477 388.874 514.239 394.925C511.587 402.096 512.728 409.962 509.433 416.964C506.668 422.842 500.979 427.644 498.304 433.549C495.859 438.946 496.11 444.846 494.958 450.509C493.806 456.171 490.62 462.178 484.043 464.569C460.249 473.217 466.229 434.241 471.845 427.116Z" fill="#B2C9DD"/>
<path d="M372.914 423.384C373.28 428.72 372.244 434.314 374.879 439.234C376.564 442.381 379.601 444.928 382.092 447.72C390.839 457.525 394.002 471.409 407.452 476.936C408.34 477.301 409.329 477.628 410.312 477.484C411.692 477.282 412.596 476.231 413.151 475.211C416.455 469.134 412.76 462.282 410.574 455.895C410.191 454.777 409.87 453.532 410.545 452.505C411.287 451.376 412.975 450.887 414.129 450.001C416.429 448.235 416.215 445.308 415.761 442.794C414.626 436.513 413.028 430.285 410.979 424.151C409.816 420.673 408.473 417.165 405.943 414.176C403.158 410.888 399.111 408.431 395.322 405.848C378.579 394.432 365.759 379.436 358.59 362.879C357.039 359.296 355.656 355.512 352.445 352.703C349.236 349.894 343.511 348.445 339.598 350.619C336.813 352.166 348.201 366.682 349.528 368.422C353.322 373.396 353.369 377.721 355.511 383.244C360.758 396.774 371.92 408.891 372.914 423.384Z" fill="#CFE8EA"/>
<g class="palm-leaf-2" transform-box="fill-box" transform-origin="80% 95%">
    <animateTransform attributeName="transform" type="rotate"
        values="0;2;-5;1;0"
        keyTimes="0;0.25;0.6;0.85;1"
        calcMode="spline"
        keySplines="0.35 0 0.65 1;0.35 0 0.65 1;0.35 0 0.65 1;0.35 0 0.65 1"
        dur="7s" repeatCount="indefinite"/>
    <path d="M386.166 429.568C383.682 424.475 381.177 419.316 380.362 413.895C379.455 407.869 380.67 401.707 379.374 395.725C377.708 388.036 372.046 381.267 369.248 373.786C367.227 368.384 366.735 362.709 365.523 357.157C362.057 341.28 352.635 325.76 355.358 309.795C355.95 306.322 357.936 302.275 362.294 301.687C366.239 301.154 369.828 304.011 370.851 307.078C371.874 310.146 371.106 313.379 370.822 316.544C370.028 325.368 373.203 334.386 379.648 341.612C385.84 348.554 394.828 353.786 400.398 361.051C407.231 369.963 408.153 380.835 411.634 390.891C418.559 410.888 435.955 428.343 439.111 448.928C440.367 457.119 437.928 467.073 428.37 470.336C400.724 479.774 392.415 442.38 386.166 429.568Z" fill="#B2C9DD"/>
</g>

<path d="M434.465 444.65L438.885 444.654L497.889 444.707C502.225 444.711 505.422 447.923 504.416 451.266L481.228 528.364C480.507 530.763 477.802 532.454 474.691 532.451L438.808 532.419L434.388 532.415L398.504 532.383C395.394 532.38 392.692 530.685 391.974 528.285L368.923 451.145C367.924 447.8 371.126 444.594 375.462 444.598L434.465 444.65Z" fill="white"/>

</g>


<g class="MasterHat">
    <animateTransform attributeName="transform"
        type="translate"
        values="0 0; 0 -8; 0 7; 0 0"
        keyTimes="0;0.33;0.66;1"
        dur="5.2s"
        repeatCount="indefinite"
        calcMode="spline"
        keySplines="0.4 0 0.6 1;0.4 0 0.6 1;0.4 0 0.6 1"/>
    <animateTransform attributeName="transform"
        type="rotate"
        additive="sum"
        values="0 340 100; 2.2 340 100; -2.2 340 100; 0 340 100"
        keyTimes="0;0.33;0.66;1"
        dur="5.2s"
        repeatCount="indefinite"
        calcMode="spline"
        keySplines="0.4 0 0.6 1;0.4 0 0.6 1;0.4 0 0.6 1"/>
    <path opacity="0.3" d="M492.385 444.702L497.889 444.707C502.225 444.711 505.422 447.923 504.416 451.266L481.228 528.364C480.507 530.762 477.802 532.454 474.691 532.451L438.808 532.419L434.388 532.415L398.504 532.383C395.394 532.38 392.692 530.684 391.974 528.285L391.121 525.429C434.43 506.263 476.68 479.559 492.385 444.702Z" fill="white"/>
    <path d="M276.227 63.833L274.804 92.934C274.611 96.8843 276.135 100.725 278.995 103.458C286.175 110.321 302.565 121.94 332.023 123.109C361.941 124.296 376.162 112.924 381.881 106.255C383.952 103.84 385.171 100.815 385.354 97.6389L387.13 66.7591L276.227 63.833Z" fill="url(#paint0_linear_1831_4630)"/>
    <path d="M328.424 15.0153L254.393 54.9771C250.581 57.0348 250.604 62.511 254.434 64.5332C273.121 74.3969 315.761 97.5723 333.332 112.654C335.212 114.268 337.948 114.39 339.972 112.963L412.465 61.8289C415.744 59.5159 415.46 54.5654 411.936 52.6463C393.351 42.5259 346.182 17.3302 332.05 14.4673C330.815 14.217 329.533 14.4166 328.424 15.0153Z" fill="url(#paint1_linear_1831_4630)"/>
    <path d="M266.557 60.1032C266.557 60.1032 291.294 75.4642 316.031 90.825C319.123 92.745 322.215 94.6652 325.258 96.5553C326.78 97.5005 328.29 98.4382 329.782 99.3644C330.528 99.8274 331.269 100.288 332.005 100.745C332.369 100.968 332.749 101.214 333.096 101.416C333.282 101.522 333.471 101.636 333.647 101.713C333.823 101.802 334.003 101.885 334.195 101.957C334.948 102.258 335.741 102.44 336.536 102.501C337.332 102.557 338.128 102.492 338.889 102.315C339.651 102.139 340.378 101.851 341.041 101.47C341.717 101.075 342.401 100.647 343.067 100.246C345.74 98.6213 348.267 97.0855 350.6 95.6676C359.931 89.9965 366.152 86.2158 366.152 86.2158C366.297 86.1283 366.484 86.1741 366.571 86.318C366.659 86.4615 366.613 86.6485 366.47 86.7364C366.47 86.7364 360.271 90.5515 350.971 96.2747C348.646 97.7054 346.128 99.2554 343.464 100.895C342.793 101.304 342.134 101.721 341.428 102.139C340.703 102.562 339.906 102.883 339.069 103.082C338.232 103.281 337.357 103.357 336.48 103.3C335.604 103.238 334.728 103.042 333.895 102.714C333.687 102.638 333.479 102.544 333.272 102.441C333.055 102.343 332.877 102.235 332.689 102.129C332.291 101.9 331.946 101.678 331.57 101.45C330.831 100.997 330.087 100.541 329.339 100.082C327.842 99.1641 326.327 98.235 324.8 97.2983C321.746 95.425 318.643 93.5223 315.54 91.6194C290.719 76.396 265.897 61.1728 265.897 61.1728C265.601 60.9912 265.509 60.6041 265.69 60.308C265.871 60.0119 266.259 59.9193 266.555 60.1007L266.557 60.1032Z" fill="#BDD0FB"/>
    <g class="hatTail">
        <!-- Stationary base part of the tail -->
        <path d="M335.782 57.1931C335.782 57.1931 391.949 68.7625 398.184 72.0322C404.42 75.3017 414.966 102.378 414.966 102.378C434.122 118.275 449.666 139.146 447.894 156.86C447.894 156.86 418.402 138.909 416.107 124.387C413.812 109.864 412.744 103.999 412.744 103.999C412.744 103.999 400.24 75.9995 396.357 73.4347C396.357 73.4347 333.736 60.6898 335.782 57.1931Z" fill="url(#paint2_linear_1831_4630)"/>
        <!-- Swinging remote part of the tail -->
        <g>
            <animateTransform attributeName="transform"
                type="rotate"
                values="0 414 102; 18 414 102; -14 414 102; 0 414 102"
                keyTimes="0;0.33;0.66;1"
                dur="2.7s"
                repeatCount="indefinite"
                calcMode="spline"
                keySplines="0.45 0 0.55 1;0.45 0 0.55 1;0.45 0 0.55 1"/>
            <path d="M414.966 102.378C434.122 118.275 449.666 139.146 447.894 156.86C447.894 156.86 418.402 138.909 416.107 124.387C413.812 109.864 412.744 103.999 412.744 103.999" fill="url(#paint2_linear_1831_4630)"/>
            <path d="M420.37 116.104C420.37 116.104 420.339 116.28 420.319 116.549C420.301 116.683 420.295 116.868 420.29 117.086C420.284 117.303 420.268 117.551 420.286 117.835C420.301 118.117 420.299 118.43 420.329 118.772C420.366 119.113 420.406 119.482 420.448 119.877C420.495 120.271 420.59 120.687 420.665 121.128C420.707 121.348 420.74 121.575 420.794 121.804C420.854 122.033 420.915 122.266 420.978 122.504C421.04 122.743 421.104 122.986 421.169 123.234C421.231 123.483 421.298 123.736 421.392 123.986C421.566 124.49 421.746 125.012 421.93 125.548C422.014 125.819 422.133 126.081 422.25 126.349C422.365 126.616 422.483 126.887 422.601 127.161C422.844 127.706 423.06 128.279 423.368 128.82C423.657 129.371 423.95 129.93 424.248 130.497L424.472 130.923L424.728 131.335C424.899 131.611 425.071 131.887 425.244 132.165C425.592 132.719 425.934 133.283 426.293 133.84C426.683 134.377 427.074 134.916 427.465 135.454L428.052 136.263C428.251 136.53 428.433 136.809 428.655 137.057C429.081 137.567 429.506 138.075 429.927 138.579C430.349 139.082 430.768 139.581 431.182 140.075C431.626 140.541 432.065 141.002 432.497 141.456C432.929 141.909 433.354 142.355 433.77 142.792C433.979 143.009 434.182 143.229 434.39 143.438C434.606 143.639 434.819 143.837 435.03 144.033C435.872 144.815 436.669 145.555 437.404 146.238C438.124 146.939 438.853 147.503 439.478 148.028C440.107 148.548 440.655 149.002 441.107 149.376C442.01 150.123 442.526 150.55 442.526 150.55L442.535 150.558C442.628 150.635 442.642 150.772 442.564 150.865C442.488 150.957 442.353 150.971 442.26 150.897C442.26 150.897 441.733 150.478 440.812 149.745C440.352 149.379 439.792 148.934 439.15 148.423C438.512 147.908 437.768 147.354 437.03 146.663C436.277 145.989 435.461 145.26 434.598 144.488C434.382 144.295 434.163 144.099 433.942 143.901C433.728 143.695 433.52 143.477 433.305 143.262C432.877 142.83 432.44 142.388 431.995 141.938C431.55 141.489 431.098 141.032 430.64 140.569C430.212 140.078 429.779 139.581 429.342 139.08C428.905 138.578 428.466 138.072 428.024 137.564C427.796 137.316 427.605 137.037 427.398 136.77L426.786 135.961C426.378 135.421 425.97 134.881 425.564 134.343C425.188 133.783 424.827 133.215 424.462 132.656C424.28 132.376 424.099 132.097 423.919 131.82L423.65 131.404L423.413 130.973C423.097 130.398 422.785 129.83 422.478 129.272C422.153 128.723 421.918 128.139 421.658 127.582C421.53 127.302 421.404 127.026 421.28 126.752C421.155 126.479 421.028 126.211 420.935 125.931C420.733 125.38 420.537 124.844 420.347 124.325C420.244 124.068 420.17 123.806 420.1 123.548C420.028 123.291 419.956 123.038 419.886 122.791C419.817 122.544 419.748 122.301 419.682 122.064C419.62 121.826 419.581 121.587 419.532 121.358C419.444 120.896 419.337 120.462 419.28 120.045C419.227 119.628 419.177 119.236 419.131 118.874C419.092 118.511 419.086 118.173 419.066 117.869C419.041 117.566 419.052 117.29 419.054 117.051C419.056 116.813 419.059 116.609 419.077 116.43C419.102 116.072 419.128 115.916 419.128 115.916L419.132 115.892C419.189 115.549 419.513 115.318 419.855 115.375C420.198 115.432 420.429 115.756 420.372 116.099L420.37 116.104Z" fill="#BDD0FB"/>
            <path d="M427.741 124.621C427.741 124.621 427.803 124.722 427.92 124.912C428.038 125.101 428.209 125.332 428.426 125.652C428.902 126.33 429.582 127.299 430.399 128.46C432.062 130.784 434.279 133.883 436.496 136.981C440.956 143.162 445.415 149.344 445.415 149.344C445.526 149.496 445.493 149.71 445.34 149.821C445.189 149.93 444.978 149.898 444.866 149.75C444.866 149.75 440.29 143.652 435.714 137.556C433.437 134.497 431.16 131.439 429.453 129.145C429.029 128.568 428.64 128.04 428.296 127.572C427.951 127.096 427.649 126.68 427.401 126.339C427.145 125.973 426.93 125.674 426.809 125.486C426.688 125.298 426.623 125.198 426.623 125.198C426.436 124.907 426.52 124.519 426.811 124.331C427.102 124.144 427.491 124.228 427.678 124.519C427.679 124.521 427.681 124.524 427.682 124.526L427.741 124.621Z" fill="#BDD0FB"/>
        </g>
    </g>
</g>


<g class="buttonManufacturing" transform-box="fill-box" transform-origin="186px 124px">
    <animateTransform attributeName="transform"
        type="scale"
        values="1 1;1.08 1.08;1 1"
        keyTimes="0;0.5;1"
        dur="4.2s"
        repeatCount="indefinite"
        calcMode="spline"
        keySplines="0.4 0 0.6 1;0.4 0 0.6 1"/>
    <rect x="118.5" y="107.5" width="135" height="33" rx="16.5" fill="white"/>
    <rect x="118.5" y="107.5" width="135" height="33" rx="16.5" stroke="#FF0000"/>
    <path d="M137.321 129V118.091H141.135C141.895 118.091 142.522 118.222 143.015 118.485C143.509 118.744 143.876 119.094 144.118 119.534C144.359 119.971 144.48 120.456 144.48 120.989C144.48 121.457 144.397 121.844 144.23 122.15C144.066 122.455 143.85 122.697 143.58 122.874C143.314 123.052 143.024 123.183 142.712 123.268V123.375C143.045 123.396 143.381 123.513 143.718 123.727C144.056 123.94 144.338 124.245 144.565 124.643C144.793 125.04 144.906 125.527 144.906 126.102C144.906 126.649 144.782 127.141 144.533 127.578C144.285 128.015 143.892 128.361 143.356 128.616C142.82 128.872 142.122 129 141.263 129H137.321ZM138.642 127.828H141.263C142.126 127.828 142.738 127.661 143.1 127.327C143.466 126.99 143.649 126.582 143.649 126.102C143.649 125.733 143.555 125.392 143.367 125.08C143.179 124.763 142.911 124.511 142.562 124.323C142.214 124.131 141.803 124.036 141.327 124.036H138.642V127.828ZM138.642 122.885H141.092C141.49 122.885 141.849 122.807 142.168 122.651C142.491 122.494 142.747 122.274 142.935 121.99C143.127 121.706 143.223 121.372 143.223 120.989C143.223 120.509 143.056 120.103 142.722 119.769C142.388 119.431 141.859 119.263 141.135 119.263H138.642V122.885ZM148.264 127.146L152.205 120.818H153.654V129H152.397V122.672L148.477 129H147.006V120.818H148.264V127.146ZM156.057 132.068V120.818H157.271V122.118H157.42C157.513 121.976 157.64 121.795 157.804 121.575C157.971 121.351 158.209 121.152 158.518 120.978C158.83 120.8 159.253 120.712 159.785 120.712C160.474 120.712 161.081 120.884 161.607 121.228C162.133 121.573 162.543 122.061 162.838 122.693C163.132 123.325 163.28 124.071 163.28 124.93C163.28 125.797 163.132 126.548 162.838 127.184C162.543 127.816 162.134 128.306 161.612 128.654C161.09 128.998 160.488 129.17 159.807 129.17C159.281 129.17 158.86 129.083 158.544 128.909C158.228 128.732 157.985 128.531 157.814 128.308C157.644 128.08 157.513 127.892 157.42 127.743H157.314V132.068H156.057ZM157.292 124.909C157.292 125.527 157.383 126.072 157.564 126.544C157.745 127.013 158.01 127.381 158.358 127.647C158.706 127.91 159.132 128.041 159.636 128.041C160.162 128.041 160.6 127.903 160.952 127.626C161.307 127.345 161.573 126.969 161.751 126.496C161.932 126.021 162.023 125.491 162.023 124.909C162.023 124.334 161.934 123.815 161.756 123.354C161.582 122.888 161.318 122.521 160.963 122.251C160.611 121.978 160.169 121.841 159.636 121.841C159.125 121.841 158.695 121.971 158.347 122.23C157.999 122.485 157.736 122.844 157.559 123.306C157.381 123.764 157.292 124.298 157.292 124.909ZM168.621 129.17C167.882 129.17 167.234 128.995 166.677 128.643C166.123 128.292 165.69 127.8 165.377 127.168C165.068 126.536 164.914 125.797 164.914 124.952C164.914 124.099 165.068 123.355 165.377 122.72C165.69 122.084 166.123 121.591 166.677 121.239C167.234 120.887 167.882 120.712 168.621 120.712C169.36 120.712 170.006 120.887 170.56 121.239C171.118 121.591 171.551 122.084 171.86 122.72C172.172 123.355 172.328 124.099 172.328 124.952C172.328 125.797 172.172 126.536 171.86 127.168C171.551 127.8 171.118 128.292 170.56 128.643C170.006 128.995 169.36 129.17 168.621 129.17ZM168.621 128.041C169.182 128.041 169.644 127.897 170.006 127.61C170.368 127.322 170.636 126.944 170.81 126.475C170.984 126.006 171.071 125.499 171.071 124.952C171.071 124.405 170.984 123.895 170.81 123.423C170.636 122.951 170.368 122.569 170.006 122.278C169.644 121.987 169.182 121.841 168.621 121.841C168.06 121.841 167.598 121.987 167.236 122.278C166.874 122.569 166.606 122.951 166.432 123.423C166.258 123.895 166.171 124.405 166.171 124.952C166.171 125.499 166.258 126.006 166.432 126.475C166.606 126.944 166.874 127.322 167.236 127.61C167.598 127.897 168.06 128.041 168.621 128.041ZM180.42 117.75L181.059 118.517C180.811 118.759 180.523 118.927 180.196 119.023C179.869 119.119 179.5 119.178 179.088 119.199C178.676 119.22 178.218 119.241 177.714 119.263C177.146 119.284 176.675 119.423 176.302 119.678C175.929 119.934 175.642 120.303 175.439 120.786C175.237 121.269 175.107 121.862 175.051 122.565H175.157C175.434 122.054 175.818 121.678 176.308 121.436C176.798 121.195 177.323 121.074 177.884 121.074C178.524 121.074 179.099 121.223 179.61 121.521C180.122 121.82 180.526 122.262 180.825 122.848C181.123 123.434 181.272 124.156 181.272 125.016C181.272 125.871 181.119 126.61 180.814 127.232C180.512 127.853 180.088 128.332 179.541 128.67C178.998 129.004 178.36 129.17 177.629 129.17C176.897 129.17 176.256 128.998 175.706 128.654C175.155 128.306 174.727 127.791 174.422 127.109C174.117 126.424 173.964 125.577 173.964 124.568V123.695C173.964 121.873 174.273 120.491 174.891 119.55C175.512 118.609 176.446 118.123 177.693 118.091C178.133 118.077 178.525 118.073 178.87 118.08C179.214 118.087 179.514 118.071 179.77 118.032C180.026 117.993 180.242 117.899 180.42 117.75ZM177.629 128.041C178.122 128.041 178.547 127.917 178.902 127.668C179.26 127.42 179.536 127.07 179.727 126.619C179.919 126.164 180.015 125.63 180.015 125.016C180.015 124.419 179.917 123.911 179.722 123.492C179.53 123.073 179.255 122.754 178.896 122.533C178.538 122.313 178.108 122.203 177.607 122.203C177.242 122.203 176.913 122.265 176.622 122.39C176.331 122.514 176.082 122.697 175.876 122.938C175.67 123.18 175.51 123.474 175.397 123.822C175.287 124.17 175.228 124.568 175.221 125.016C175.221 125.932 175.436 126.665 175.866 127.216C176.295 127.766 176.883 128.041 177.629 128.041ZM188.771 124.334V125.506H184.254V124.334H188.771ZM184.552 120.818V129H183.295V120.818H184.552ZM189.73 120.818V129H188.473V120.818H189.73ZM193.383 127.146L197.324 120.818H198.773V129H197.516V122.672L193.596 129H192.126V120.818H193.383V127.146ZM207.61 120.818V127.828H208.761V131.642H207.504V129H201.176V120.818H202.433V127.828H206.353V120.818H207.61ZM210.329 121.99V120.818H216.976V121.99H214.292V129H213.034V121.99H210.329ZM218.91 129V120.818H222.255C223.136 120.818 223.835 121.017 224.354 121.415C224.872 121.812 225.132 122.338 225.132 122.991C225.132 123.489 224.984 123.874 224.689 124.147C224.395 124.417 224.016 124.6 223.555 124.696C223.857 124.739 224.15 124.845 224.434 125.016C224.721 125.186 224.959 125.42 225.148 125.719C225.336 126.013 225.43 126.376 225.43 126.805C225.43 127.224 225.323 127.599 225.11 127.929C224.897 128.26 224.592 128.521 224.194 128.712C223.796 128.904 223.32 129 222.766 129H218.91ZM220.103 127.849H222.766C223.2 127.849 223.539 127.746 223.784 127.54C224.029 127.335 224.151 127.054 224.151 126.699C224.151 126.276 224.029 125.944 223.784 125.703C223.539 125.458 223.2 125.335 222.766 125.335H220.103V127.849ZM220.103 124.249H222.255C222.592 124.249 222.882 124.202 223.123 124.11C223.365 124.014 223.55 123.879 223.677 123.705C223.809 123.528 223.874 123.318 223.874 123.077C223.874 122.732 223.731 122.462 223.443 122.267C223.155 122.068 222.759 121.969 222.255 121.969H220.103V124.249ZM230.757 129.17C230.018 129.17 229.37 128.995 228.812 128.643C228.258 128.292 227.825 127.8 227.513 127.168C227.204 126.536 227.049 125.797 227.049 124.952C227.049 124.099 227.204 123.355 227.513 122.72C227.825 122.084 228.258 121.591 228.812 121.239C229.37 120.887 230.018 120.712 230.757 120.712C231.495 120.712 232.142 120.887 232.696 121.239C233.253 121.591 233.686 122.084 233.995 122.72C234.308 123.355 234.464 124.099 234.464 124.952C234.464 125.797 234.308 126.536 233.995 127.168C233.686 127.8 233.253 128.292 232.696 128.643C232.142 128.995 231.495 129.17 230.757 129.17ZM230.757 128.041C231.318 128.041 231.779 127.897 232.142 127.61C232.504 127.322 232.772 126.944 232.946 126.475C233.12 126.006 233.207 125.499 233.207 124.952C233.207 124.405 233.12 123.895 232.946 123.423C232.772 122.951 232.504 122.569 232.142 122.278C231.779 121.987 231.318 121.841 230.757 121.841C230.196 121.841 229.734 121.987 229.372 122.278C229.009 122.569 228.741 122.951 228.567 123.423C228.393 123.895 228.306 124.405 228.306 124.952C228.306 125.499 228.393 126.006 228.567 126.475C228.741 126.944 229.009 127.322 229.372 127.61C229.734 127.897 230.196 128.041 230.757 128.041Z" fill="#FF0000"/>
</g>

<g class="buttonDistribution" transform-box="fill-box" transform-origin="117px 172px">
    <animateTransform attributeName="transform"
        type="scale"
        values="1 1;1.12 1.12;1 1"
        keyTimes="0;0.35;1"
        dur="7.1s"
        repeatCount="indefinite"
        calcMode="spline"
        keySplines="0.5 0 0.5 1;0.5 0 0.5 1"/>
    <rect x="52.5" y="155.5" width="130" height="33" rx="16.5" fill="white"/>
    <rect x="52.5" y="155.5" width="130" height="33" rx="16.5" stroke="#FF0000"/>
    <path d="M70.3835 179.642V175.828H71.0866C71.3281 175.608 71.5554 175.297 71.7685 174.896C71.9851 174.491 72.168 173.951 72.3171 173.277C72.4698 172.598 72.571 171.737 72.6207 170.693L72.8551 166.091H79.3324V175.828H80.5895V179.621H79.3324V177H71.6406V179.642H70.3835ZM72.6634 175.828H78.0753V167.263H74.0483L73.8778 170.693C73.8352 171.489 73.7607 172.21 73.6541 172.856C73.5476 173.499 73.4109 174.069 73.244 174.566C73.0771 175.059 72.8835 175.48 72.6634 175.828ZM83.7723 175.146L87.7141 168.818H89.1629V177H87.9058V170.672L83.9854 177H82.5152V168.818H83.7723V175.146ZM94.8893 177.17C94.1222 177.17 93.4617 176.989 92.9077 176.627C92.3538 176.265 91.9276 175.766 91.6293 175.13C91.331 174.495 91.1819 173.768 91.1819 172.952C91.1819 172.121 91.3346 171.387 91.64 170.752C91.9489 170.113 92.3786 169.614 92.929 169.255C93.483 168.893 94.1293 168.712 94.868 168.712C95.4433 168.712 95.9617 168.818 96.4234 169.031C96.885 169.244 97.2632 169.543 97.558 169.926C97.8527 170.31 98.0356 170.757 98.1066 171.268H96.8495C96.7536 170.896 96.5406 170.565 96.2103 170.278C95.8836 169.987 95.4433 169.841 94.8893 169.841C94.3992 169.841 93.9695 169.969 93.6002 170.224C93.2344 170.477 92.9486 170.833 92.7426 171.295C92.5402 171.753 92.439 172.291 92.439 172.909C92.439 173.541 92.5384 174.092 92.7373 174.56C92.9397 175.029 93.2238 175.393 93.5896 175.652C93.9589 175.912 94.3921 176.041 94.8893 176.041C95.216 176.041 95.5125 175.984 95.7788 175.871C96.0452 175.757 96.2707 175.594 96.4553 175.381C96.64 175.168 96.7714 174.912 96.8495 174.614H98.1066C98.0356 175.097 97.8598 175.532 97.5793 175.919C97.3023 176.302 96.9347 176.608 96.4766 176.835C96.0221 177.059 95.493 177.17 94.8893 177.17ZM99.3998 169.99V168.818H106.048V169.99H103.363V177H102.106V169.99H99.3998ZM107.981 180.068V168.818H109.196V170.118H109.345C109.437 169.976 109.565 169.795 109.728 169.575C109.895 169.351 110.133 169.152 110.442 168.978C110.755 168.8 111.177 168.712 111.71 168.712C112.399 168.712 113.006 168.884 113.532 169.228C114.057 169.573 114.467 170.061 114.762 170.693C115.057 171.325 115.204 172.071 115.204 172.93C115.204 173.797 115.057 174.548 114.762 175.184C114.467 175.816 114.059 176.306 113.537 176.654C113.015 176.998 112.413 177.17 111.731 177.17C111.206 177.17 110.785 177.083 110.469 176.909C110.153 176.732 109.91 176.531 109.739 176.308C109.569 176.08 109.437 175.892 109.345 175.743H109.238V180.068H107.981ZM109.217 172.909C109.217 173.527 109.308 174.072 109.489 174.544C109.67 175.013 109.934 175.381 110.282 175.647C110.63 175.91 111.057 176.041 111.561 176.041C112.086 176.041 112.525 175.903 112.876 175.626C113.232 175.345 113.498 174.969 113.675 174.496C113.857 174.021 113.947 173.491 113.947 172.909C113.947 172.334 113.858 171.815 113.681 171.354C113.507 170.888 113.242 170.521 112.887 170.251C112.536 169.978 112.093 169.841 111.561 169.841C111.049 169.841 110.62 169.971 110.272 170.23C109.924 170.485 109.661 170.844 109.483 171.306C109.306 171.764 109.217 172.298 109.217 172.909ZM118.479 175.146L122.421 168.818H123.87V177H122.612V170.672L118.692 177H117.222V168.818H118.479V175.146ZM132.344 165.75L132.984 166.517C132.735 166.759 132.447 166.927 132.121 167.023C131.794 167.119 131.425 167.178 131.013 167.199C130.601 167.22 130.143 167.241 129.639 167.263C129.07 167.284 128.6 167.423 128.227 167.678C127.854 167.934 127.566 168.303 127.364 168.786C127.162 169.269 127.032 169.862 126.975 170.565H127.082C127.359 170.054 127.742 169.678 128.232 169.436C128.722 169.195 129.248 169.074 129.809 169.074C130.448 169.074 131.023 169.223 131.535 169.521C132.046 169.82 132.451 170.262 132.749 170.848C133.048 171.434 133.197 172.156 133.197 173.016C133.197 173.871 133.044 174.61 132.739 175.232C132.437 175.853 132.012 176.332 131.466 176.67C130.922 177.004 130.285 177.17 129.553 177.17C128.822 177.17 128.181 176.998 127.63 176.654C127.08 176.306 126.652 175.791 126.347 175.109C126.041 174.424 125.889 173.577 125.889 172.568V171.695C125.889 169.873 126.197 168.491 126.815 167.55C127.437 166.609 128.371 166.123 129.617 166.091C130.058 166.077 130.45 166.073 130.794 166.08C131.139 166.087 131.439 166.071 131.695 166.032C131.95 165.993 132.167 165.899 132.344 165.75ZM129.553 176.041C130.047 176.041 130.471 175.917 130.826 175.668C131.185 175.42 131.46 175.07 131.652 174.619C131.844 174.164 131.94 173.63 131.94 173.016C131.94 172.419 131.842 171.911 131.647 171.492C131.455 171.073 131.18 170.754 130.821 170.533C130.462 170.313 130.033 170.203 129.532 170.203C129.166 170.203 128.838 170.265 128.547 170.39C128.255 170.514 128.007 170.697 127.801 170.938C127.595 171.18 127.435 171.474 127.321 171.822C127.211 172.17 127.153 172.568 127.146 173.016C127.146 173.932 127.36 174.665 127.79 175.216C128.22 175.766 128.808 176.041 129.553 176.041ZM136.029 180.068C135.816 180.068 135.626 180.05 135.459 180.015C135.293 179.983 135.177 179.951 135.113 179.919L135.433 178.811C135.738 178.889 136.008 178.918 136.242 178.896C136.477 178.875 136.685 178.77 136.866 178.582C137.05 178.397 137.219 178.097 137.372 177.682L137.606 177.043L134.581 168.818H135.944L138.203 175.338H138.288L140.546 168.818H141.91L138.437 178.193C138.281 178.616 138.087 178.966 137.856 179.243C137.626 179.523 137.357 179.731 137.052 179.866C136.75 180.001 136.409 180.068 136.029 180.068ZM150.104 168.818V175.828H151.255V179.642H149.997V177H143.669V168.818H144.926V175.828H148.847V168.818H150.104ZM153.291 177V168.818H154.548V177H153.291ZM153.93 167.455C153.685 167.455 153.474 167.371 153.296 167.204C153.122 167.037 153.035 166.837 153.035 166.602C153.035 166.368 153.122 166.167 153.296 166C153.474 165.833 153.685 165.75 153.93 165.75C154.175 165.75 154.385 165.833 154.559 166C154.736 166.167 154.825 166.368 154.825 166.602C154.825 166.837 154.736 167.037 154.559 167.204C154.385 167.371 154.175 167.455 153.93 167.455ZM161.872 177V169.969H159.699C159.209 169.969 158.824 170.082 158.543 170.31C158.263 170.537 158.122 170.849 158.122 171.247C158.122 171.638 158.248 171.945 158.5 172.169C158.756 172.392 159.106 172.504 159.55 172.504H162.192V173.676H159.55C158.996 173.676 158.518 173.578 158.117 173.383C157.716 173.188 157.407 172.909 157.19 172.547C156.973 172.181 156.865 171.748 156.865 171.247C156.865 170.743 156.979 170.31 157.206 169.947C157.433 169.585 157.758 169.306 158.181 169.111C158.607 168.916 159.113 168.818 159.699 168.818H163.065V177H161.872ZM156.418 177L158.74 172.93H160.104L157.781 177H156.418Z" fill="#FF0000"/>
</g>
<g class="buttonCRM" transform-box="fill-box" transform-origin="387px 223px">
    <animateTransform attributeName="transform"
        type="scale"
        values="1 1;1.15 1.15;1 1"
        keyTimes="0;0.3;1"
        dur="5.6s"
        repeatCount="indefinite"
        calcMode="spline"
        keySplines="0.5 0 0.5 1;0.5 0 0.5 1"/>
    <rect x="352.5" y="206.5" width="70" height="33" rx="16.5" fill="white"/>
    <rect x="352.5" y="206.5" width="70" height="33" rx="16.5" stroke="#FF0000"/>
    <path d="M380.099 220.5H378.778C378.7 220.12 378.564 219.786 378.368 219.499C378.176 219.211 377.942 218.969 377.665 218.774C377.392 218.575 377.088 218.426 376.754 218.327C376.42 218.227 376.072 218.178 375.71 218.178C375.05 218.178 374.451 218.344 373.915 218.678C373.382 219.012 372.958 219.504 372.642 220.154C372.33 220.804 372.173 221.601 372.173 222.545C372.173 223.49 372.33 224.287 372.642 224.937C372.958 225.587 373.382 226.079 373.915 226.413C374.451 226.746 375.05 226.913 375.71 226.913C376.072 226.913 376.42 226.864 376.754 226.764C377.088 226.665 377.392 226.517 377.665 226.322C377.942 226.123 378.176 225.88 378.368 225.592C378.564 225.301 378.7 224.967 378.778 224.591H380.099C380 225.148 379.819 225.647 379.556 226.088C379.293 226.528 378.967 226.903 378.576 227.212C378.185 227.517 377.747 227.75 377.26 227.909C376.777 228.069 376.261 228.149 375.71 228.149C374.78 228.149 373.952 227.922 373.228 227.467C372.504 227.013 371.934 226.366 371.518 225.528C371.103 224.69 370.895 223.696 370.895 222.545C370.895 221.395 371.103 220.401 371.518 219.562C371.934 218.724 372.504 218.078 373.228 217.624C373.952 217.169 374.78 216.942 375.71 216.942C376.261 216.942 376.777 217.022 377.26 217.181C377.747 217.341 378.185 217.576 378.576 217.885C378.967 218.19 379.293 218.563 379.556 219.003C379.819 219.44 380 219.939 380.099 220.5ZM382.334 228V217.091H386.02C386.872 217.091 387.572 217.237 388.119 217.528C388.666 217.815 389.071 218.211 389.333 218.716C389.596 219.22 389.728 219.793 389.728 220.436C389.728 221.079 389.596 221.649 389.333 222.146C389.071 222.643 388.668 223.034 388.124 223.318C387.581 223.598 386.887 223.739 386.041 223.739H383.059V222.545H385.999C386.581 222.545 387.05 222.46 387.405 222.29C387.764 222.119 388.023 221.878 388.183 221.565C388.346 221.249 388.428 220.873 388.428 220.436C388.428 219.999 388.346 219.618 388.183 219.291C388.019 218.964 387.758 218.712 387.4 218.534C387.041 218.353 386.567 218.263 385.978 218.263H383.655V228H382.334ZM387.469 223.099L390.154 228H388.62L385.978 223.099H387.469ZM392.029 217.091H393.606L397.313 226.146H397.441L401.148 217.091H402.725V228H401.489V219.712H401.383L397.973 228H396.78L393.371 219.712H393.265V228H392.029V217.091Z" fill="#FF0000"/>
</g>
<g class="buttonLidership" transform-box="fill-box" transform-origin="255px 299px">
    <animateTransform attributeName="transform"
        type="scale"
        values="1 1;1.12 1.12;1 1"
        keyTimes="0;0.35;1"
        dur="5.1s"
        repeatCount="indefinite"
        calcMode="spline"
        keySplines="0.5 0 0.5 1;0.5 0 0.5 1"/>
    <rect x="199.5" y="282.5" width="111" height="33" rx="16.5" fill="white"/>
    <rect x="199.5" y="282.5" width="111" height="33" rx="16.5" stroke="#FF0000"/>
    <path d="M217.384 304V302.786H217.703C218.158 302.786 218.511 302.64 218.763 302.349C219.015 302.058 219.196 301.587 219.306 300.937C219.42 300.287 219.496 299.426 219.536 298.354L219.727 293.091H226.375V304H225.054V294.263H220.984L220.814 298.609C220.771 299.753 220.667 300.726 220.5 301.528C220.333 302.331 220.04 302.944 219.621 303.366C219.202 303.789 218.591 304 217.788 304H217.384ZM228.944 304V295.818H230.201V304H228.944ZM229.583 294.455C229.338 294.455 229.127 294.371 228.949 294.204C228.775 294.037 228.688 293.837 228.688 293.602C228.688 293.368 228.775 293.167 228.949 293C229.127 292.833 229.338 292.75 229.583 292.75C229.828 292.75 230.038 292.833 230.212 293C230.389 293.167 230.478 293.368 230.478 293.602C230.478 293.837 230.389 294.037 230.212 294.204C230.038 294.371 229.828 294.455 229.583 294.455ZM231.73 306.344V302.828H232.412C232.579 302.654 232.722 302.466 232.843 302.263C232.964 302.061 233.069 301.821 233.157 301.544C233.25 301.264 233.328 300.923 233.392 300.522C233.456 300.117 233.513 299.629 233.562 299.057L233.839 295.818H239.038V302.828H240.295V306.344H239.038V304H232.987V306.344H231.73ZM233.839 302.828H237.781V296.99H235.011L234.798 299.057C234.709 299.913 234.599 300.66 234.468 301.299C234.336 301.939 234.127 302.448 233.839 302.828ZM245.494 304.17C244.706 304.17 244.026 303.996 243.454 303.648C242.886 303.297 242.447 302.807 242.138 302.178C241.833 301.546 241.68 300.811 241.68 299.973C241.68 299.135 241.833 298.396 242.138 297.757C242.447 297.114 242.877 296.614 243.427 296.255C243.981 295.893 244.628 295.712 245.366 295.712C245.793 295.712 246.213 295.783 246.629 295.925C247.044 296.067 247.423 296.298 247.763 296.617C248.104 296.933 248.376 297.352 248.578 297.874C248.781 298.396 248.882 299.039 248.882 299.803V300.335H242.575V299.249H247.604C247.604 298.787 247.511 298.375 247.327 298.013C247.146 297.651 246.886 297.365 246.549 297.155C246.215 296.946 245.821 296.841 245.366 296.841C244.866 296.841 244.432 296.965 244.067 297.214C243.704 297.459 243.426 297.778 243.23 298.173C243.035 298.567 242.937 298.989 242.937 299.44V300.165C242.937 300.783 243.044 301.306 243.257 301.736C243.474 302.162 243.774 302.487 244.157 302.711C244.541 302.931 244.986 303.041 245.494 303.041C245.825 303.041 246.123 302.995 246.389 302.903C246.659 302.807 246.892 302.665 247.087 302.477C247.282 302.285 247.433 302.047 247.54 301.763L248.754 302.104C248.626 302.516 248.412 302.878 248.11 303.19C247.808 303.499 247.435 303.741 246.991 303.915C246.547 304.085 246.048 304.17 245.494 304.17ZM250.894 307.068V295.818H252.109V297.118H252.258C252.35 296.976 252.478 296.795 252.641 296.575C252.808 296.351 253.046 296.152 253.355 295.978C253.668 295.8 254.09 295.712 254.623 295.712C255.312 295.712 255.919 295.884 256.445 296.228C256.97 296.573 257.38 297.061 257.675 297.693C257.97 298.325 258.117 299.071 258.117 299.93C258.117 300.797 257.97 301.548 257.675 302.184C257.38 302.816 256.972 303.306 256.45 303.654C255.928 303.998 255.326 304.17 254.644 304.17C254.119 304.17 253.698 304.083 253.382 303.909C253.066 303.732 252.823 303.531 252.652 303.308C252.482 303.08 252.35 302.892 252.258 302.743H252.151V307.068H250.894ZM252.13 299.909C252.13 300.527 252.221 301.072 252.402 301.544C252.583 302.013 252.847 302.381 253.195 302.647C253.543 302.91 253.97 303.041 254.474 303.041C254.999 303.041 255.438 302.903 255.79 302.626C256.145 302.345 256.411 301.969 256.589 301.496C256.77 301.021 256.86 300.491 256.86 299.909C256.86 299.334 256.771 298.815 256.594 298.354C256.42 297.888 256.155 297.521 255.8 297.251C255.449 296.978 255.007 296.841 254.474 296.841C253.963 296.841 253.533 296.971 253.185 297.23C252.837 297.485 252.574 297.844 252.396 298.306C252.219 298.764 252.13 299.298 252.13 299.909ZM263.459 304.17C262.692 304.17 262.031 303.989 261.477 303.627C260.923 303.265 260.497 302.766 260.199 302.13C259.901 301.495 259.751 300.768 259.751 299.952C259.751 299.121 259.904 298.387 260.21 297.752C260.518 297.113 260.948 296.614 261.499 296.255C262.053 295.893 262.699 295.712 263.438 295.712C264.013 295.712 264.531 295.818 264.993 296.031C265.455 296.244 265.833 296.543 266.127 296.926C266.422 297.31 266.605 297.757 266.676 298.268H265.419C265.323 297.896 265.11 297.565 264.78 297.278C264.453 296.987 264.013 296.841 263.459 296.841C262.969 296.841 262.539 296.969 262.17 297.224C261.804 297.477 261.518 297.833 261.312 298.295C261.11 298.753 261.009 299.291 261.009 299.909C261.009 300.541 261.108 301.092 261.307 301.56C261.509 302.029 261.793 302.393 262.159 302.652C262.528 302.912 262.962 303.041 263.459 303.041C263.786 303.041 264.082 302.984 264.348 302.871C264.615 302.757 264.84 302.594 265.025 302.381C265.21 302.168 265.341 301.912 265.419 301.614H266.676C266.605 302.097 266.429 302.532 266.149 302.919C265.872 303.302 265.504 303.608 265.046 303.835C264.592 304.059 264.063 304.17 263.459 304.17ZM267.969 296.99V295.818H274.617V296.99H271.932V304H270.675V296.99H267.969ZM276.551 304V295.818H279.896C280.777 295.818 281.476 296.017 281.995 296.415C282.513 296.812 282.772 297.338 282.772 297.991C282.772 298.489 282.625 298.874 282.33 299.147C282.035 299.417 281.657 299.6 281.196 299.696C281.497 299.739 281.79 299.845 282.075 300.016C282.362 300.186 282.6 300.42 282.788 300.719C282.977 301.013 283.071 301.376 283.071 301.805C283.071 302.224 282.964 302.599 282.751 302.929C282.538 303.26 282.233 303.521 281.835 303.712C281.437 303.904 280.961 304 280.407 304H276.551ZM277.744 302.849H280.407C280.841 302.849 281.18 302.746 281.425 302.54C281.67 302.335 281.792 302.054 281.792 301.699C281.792 301.276 281.67 300.944 281.425 300.703C281.18 300.458 280.841 300.335 280.407 300.335H277.744V302.849ZM277.744 299.249H279.896C280.233 299.249 280.523 299.202 280.764 299.11C281.006 299.014 281.19 298.879 281.318 298.705C281.45 298.528 281.515 298.318 281.515 298.077C281.515 297.732 281.371 297.462 281.084 297.267C280.796 297.068 280.4 296.969 279.896 296.969H277.744V299.249ZM288.397 304.17C287.659 304.17 287.011 303.995 286.453 303.643C285.899 303.292 285.466 302.8 285.154 302.168C284.845 301.536 284.69 300.797 284.69 299.952C284.69 299.099 284.845 298.355 285.154 297.72C285.466 297.084 285.899 296.591 286.453 296.239C287.011 295.887 287.659 295.712 288.397 295.712C289.136 295.712 289.782 295.887 290.336 296.239C290.894 296.591 291.327 297.084 291.636 297.72C291.949 298.355 292.105 299.099 292.105 299.952C292.105 300.797 291.949 301.536 291.636 302.168C291.327 302.8 290.894 303.292 290.336 303.643C289.782 303.995 289.136 304.17 288.397 304.17ZM288.397 303.041C288.959 303.041 289.42 302.897 289.782 302.61C290.145 302.322 290.413 301.944 290.587 301.475C290.761 301.006 290.848 300.499 290.848 299.952C290.848 299.405 290.761 298.895 290.587 298.423C290.413 297.951 290.145 297.569 289.782 297.278C289.42 296.987 288.959 296.841 288.397 296.841C287.836 296.841 287.375 296.987 287.013 297.278C286.65 297.569 286.382 297.951 286.208 298.423C286.034 298.895 285.947 299.405 285.947 299.952C285.947 300.499 286.034 301.006 286.208 301.475C286.382 301.944 286.65 302.322 287.013 302.61C287.375 302.897 287.836 303.041 288.397 303.041Z" fill="#FF0000"/>
</g>
<g class="buttonMarket" transform-box="fill-box" transform-origin="414px 270px">
    <animateTransform attributeName="transform"
        type="scale"
        values="1 1;1.09 1.09;1 1"
        keyTimes="0;0.25;1"
        dur="3.7s"
        repeatCount="indefinite"
        calcMode="spline"
        keySplines="0.45 0 0.55 1;0.45 0 0.55 1"/>
    <rect x="374.5" y="253.5" width="80" height="33" rx="16.5" fill="white"/>
    <rect x="374.5" y="253.5" width="80" height="33" rx="16.5" stroke="#FF0000"/>
    <path d="M393.321 275V264.091H397.007C397.863 264.091 398.563 264.245 399.106 264.554C399.653 264.86 400.058 265.273 400.32 265.795C400.583 266.317 400.714 266.9 400.714 267.543C400.714 268.185 400.583 268.77 400.32 269.295C400.061 269.821 399.66 270.24 399.116 270.552C398.573 270.861 397.877 271.016 397.028 271.016H394.386V269.844H396.986C397.572 269.844 398.042 269.743 398.397 269.54C398.752 269.338 399.01 269.064 399.17 268.72C399.333 268.372 399.415 267.979 399.415 267.543C399.415 267.106 399.333 266.715 399.17 266.371C399.01 266.026 398.751 265.756 398.392 265.561C398.033 265.362 397.558 265.263 396.964 265.263H394.642V275H393.321ZM404.029 273.146L407.971 266.818H409.42V275H408.163V268.672L404.242 275H402.772V266.818H404.029V273.146ZM417.298 270.334V271.506H412.781V270.334H417.298ZM413.079 266.818V275H411.822V266.818H413.079ZM418.257 266.818V275H417V266.818H418.257ZM423.977 275.17C423.238 275.17 422.59 274.995 422.032 274.643C421.478 274.292 421.045 273.8 420.733 273.168C420.424 272.536 420.269 271.797 420.269 270.952C420.269 270.099 420.424 269.355 420.733 268.72C421.045 268.084 421.478 267.591 422.032 267.239C422.59 266.887 423.238 266.712 423.977 266.712C424.715 266.712 425.362 266.887 425.916 267.239C426.473 267.591 426.906 268.084 427.215 268.72C427.528 269.355 427.684 270.099 427.684 270.952C427.684 271.797 427.528 272.536 427.215 273.168C426.906 273.8 426.473 274.292 425.916 274.643C425.362 274.995 424.715 275.17 423.977 275.17ZM423.977 274.041C424.538 274.041 424.999 273.897 425.362 273.61C425.724 273.322 425.992 272.944 426.166 272.475C426.34 272.006 426.427 271.499 426.427 270.952C426.427 270.405 426.34 269.895 426.166 269.423C425.992 268.951 425.724 268.569 425.362 268.278C424.999 267.987 424.538 267.841 423.977 267.841C423.416 267.841 422.954 267.987 422.592 268.278C422.229 268.569 421.961 268.951 421.787 269.423C421.613 269.895 421.526 270.405 421.526 270.952C421.526 271.499 421.613 272.006 421.787 272.475C421.961 272.944 422.229 273.322 422.592 273.61C422.954 273.897 423.416 274.041 423.977 274.041ZM429.703 275V266.818H430.96V270.376H431.791L434.731 266.818H436.351L433.048 270.76L436.393 275H434.774L432.089 271.548H430.96V275H429.703Z" fill="#FF0000"/>
</g>

</g>
<defs>
<linearGradient id="paint0_linear_1831_4630" x1="302.138" y1="175.463" x2="340.215" y2="50.5138" gradientUnits="userSpaceOnUse">
<stop stop-color="#6A88B4"/>
<stop offset="1" stop-color="#304B77"/>
</linearGradient>
<linearGradient id="paint1_linear_1831_4630" x1="299.002" y1="-12.9506" x2="334.598" y2="61.6015" gradientUnits="userSpaceOnUse">
<stop stop-color="#304B77"/>
<stop offset="1" stop-color="#6A88B4"/>
</linearGradient>
<linearGradient id="paint2_linear_1831_4630" x1="356.098" y1="55.3364" x2="462.109" y2="151.109" gradientUnits="userSpaceOnUse">
<stop stop-color="#8BC4CB"/>
<stop offset="1" stop-color="#6A88B4"/>
</linearGradient>
<clipPath id="clip0_1831_4630">
<rect width="481" height="471" fill="white"/>
</clipPath>
</defs>
</svg>
